<svg version="1.1" xmlns="http://www.w3.org/2000/svg" viewBox="0 0 635.6 272.58" preserveAspectRatio="none">
  <path fill="#444444" d="M456.05,239.12c26.35-1.93,52.78-1.56,79.17-2.76c16.42-1.21,34.22-2.35,48.06-12.31 c9.82-6.87,14.76-18.33,18.04-29.46c8.48-27.51,1.45-62.57-0.64-91.76c-1.02-13.87,0.71-29.25-7.93-41.19 c-8.68-12.87-24.23-17.96-38.62-21.36c-25.91-6.96-52.96-5.05-79.48-4.88c-24.92,1.29-49.75,4.57-74.72,3.99 c-20.85,0.64-41.46-3.94-62.31-2.62c-13.41,0.89-26.83-0.1-40.2-1.02c-21.84-1.5-43.68,1.37-65.53,0.6 c-20.18-0.58-40.42-0.96-60.48,1.68c-26.1,3.61-52.49,4.65-78.56,8.41c-18.21,2.43-38.76,3.2-52.92,16.42 c-11.92,11.46-11.75,29.25-11.32,44.56c1.31,27.01,2.05,40.48,0.87,62.09c-0.54,15.43,1.06,31.93,10.63,44.7 c10.26,14.47,27.57,22.36,44.93,24.02c18.71,2.06,37.6,2.72,56.41,1.31c28.84-1.91,65.55-1.43,94.39-3.32 c3.99-0.08,27.96-0.07,54.96,3.3S422.75,239.87,456.05,239.12z"/>
  <path fill="#ffffff" d="M451.69,231.76c26.35-1.93,52.78-1.56,79.17-2.76c16.42-1.21,34.22-2.35,48.06-12.31 c9.82-6.87,14.76-18.33,18.04-29.46c8.48-27.51,1.45-62.57-0.64-91.76c-1.02-13.87,0.71-29.25-7.93-41.19 c-8.68-12.87-24.23-17.96-38.62-21.36c-25.91-6.96-52.96-5.05-79.48-4.88c-24.92,1.29-49.75,4.57-74.72,3.99 c-20.85,0.64-41.46-3.94-62.31-2.62c-13.41,0.89-26.83-0.1-40.2-1.02c-21.84-1.5-43.68,1.37-65.53,0.6 c-20.18-0.58-40.42-0.96-60.48,1.68c-26.1,3.61-52.49,4.65-78.56,8.41c-18.21,2.43-38.76,3.2-52.92,16.42 c-11.92,11.46-11.75,29.25-11.32,44.55c1.31,27.01,2.05,40.48,0.87,62.09c-0.54,15.43,1.06,31.93,10.63,44.7 c10.26,14.47,27.57,22.36,44.93,24.02c18.71,2.06,37.6,2.72,56.41,1.31c28.84-1.91,65.55-1.43,94.39-3.32 c3.99-0.08,27.96-0.07,54.96,3.3S418.39,232.51,451.69,231.76z"/>
</svg>
