<svg xmlns="http://www.w3.org/2000/svg" viewBox="0 0 66 63">
  <path fill="#70b854" d="M41.8,2.32c22.15,3.95,24.75,19.74,21.75,36.25c-2.64,14.5-21.09,27.02-40.2,21.09S2.26,37.91,2.26,31.32 S4.89-4.27,41.8,2.32z"/>
  <path fill="#4d8337" d="M63.55,38.57c0.16-0.88,0.3-1.76,0.43-2.64L47.91,15.91l-2.23-1.1l-7.05,12l-12,1.98l-15.38-0.18l0.2,0.35 l25.53,31.98C50.51,59.36,61.56,49.53,63.55,38.57z"/>
  <path fill="#ffffff" d="M54.81,35.83c-0.21-1.96-0.77-3.92-1.83-5.15c-0.24-0.29-0.49-0.53-0.76-0.74c-2.84,1.76-4.59,3.53-9.33,4.36 c-4.74,0.84-12.86,1.24-16.27,1.47c-0.36,1.59-0.4,2.57-0.38,4.31c0.02,1.82,1.1,4.26,1.96,5.26c1.39,1.61,2.34,1.67,3.6,1.98 c2.95,0.55,4.7,0.37,7.69-0.58c0.01,2.11,0.13,3.36-0.5,4.47c-0.62,1.11,1.51,1.13,2.59-0.17s2.03-2.09,2.56-4.08 c1.84,0.06,3.67-0.28,5.46-0.9c2.01-0.57,3.72-2.83,4.58-5.62C54.63,39.03,54.98,37.44,54.81,35.83z"/>
  <path fill="#ffffff" d="M42.63,29.9c2.92-1.5,8.27-4.43,8.15-7.38c-0.03-1.55-0.5-6.06-7.37-9.69c-4.94-2.61-18.32-3.02-22.73-0.77 s-9.97,4.19-10.65,11.6c-0.36,3.9,1.63,6.55,4.87,7.34c4.27,1.06,6.08,0.82,12,0.79S39.28,31.61,42.63,29.9z"/>
  <g>
    <path fill="#70b854" stroke="#70b854" stroke-width="0.3629" stroke-miterlimit="10" d="M18.54,23.54c0,0.73-0.3,1.2-1.16,1.72c-0.31,0.14-0.65,0.2-0.99,0.3c-0.08,0.04-0.08,0.08-0.15,0.08 c-0.04,0-0.08-0.03-0.07-0.03c-0.01,0-0.01,0-0.02,0.01c-0.04,0-0.07,0-0.09,0.01v0.01c-0.03,0.07-0.14,0.1-0.25,0.1 c-0.2,0-0.27-0.07-0.27-0.22v-0.06c-0.01-0.04-0.02-0.09-0.02-0.13c0-0.06,0.02-0.13,0.02-0.18c0-0.01,0-0.03,0-0.04v-0.13 c0-0.68,0.08-1.37,0.08-2.04c0-0.12,0-0.23,0-0.35c0.01-0.73,0.08-1.46,0.08-2.19c-0.02-0.49-0.02-0.95-0.05-1.45 c0-0.05,0.01-0.11,0.01-0.16V18.3v-0.05c0.02-0.09,0.1-0.16,0.21-0.16c0.04,0,0.07,0.01,0.1,0.01c0.14,0,0.39-0.1,0.6-0.1 c0.17,0,0.34,0.04,0.51,0.11c0.38,0.17,0.87,0.54,0.87,1.28c0,0.68-0.39,0.96-1.11,1.43c0,0,0,0.01-0.01,0.01 c0.27,0.2,0.79,0.51,0.87,0.71c0.39,0.55,0.72,1.36,0.72,1.36c0.04,0.12,0.12,0.3,0.12,0.38C18.54,23.39,18.54,23.47,18.54,23.54z M18.06,23.47l-0.01-0.13c-0.02-0.22-0.14-0.39-0.18-0.61l-0.01-0.01c-0.21-0.37-0.49-0.99-0.81-1.16 c-0.22-0.11-0.44-0.33-0.66-0.42c-0.02,0.14-0.05,0.27-0.05,0.41c0,0.37,0.04,0.74,0.02,1.11c0,0.04,0,0.08,0,0.13 c0,0.07,0.01,0.13,0.01,0.19c0,0.06-0.02,0.1-0.02,0.15c0,0.13,0.01,0.24,0.02,0.36c0,0.12,0,0.23-0.01,0.34 c0,0.04,0.01,0.08,0.01,0.12c0,0.23-0.08,0.49-0.08,0.71c0.01,0.08,0.04,0.16,0.04,0.23c0,0.06-0.06,0.15-0.06,0.22 c0,0.03,0.01,0.04,0.04,0.04c0.45,0,0.94-0.28,0.98-0.31c0.5-0.31,0.72-0.66,0.78-1.15v-0.22H18.06z M16.54,18.43 c-0.06,0-0.17,0-0.17,0.05c0.01,0.06,0.02,0.13,0.02,0.18c0,0.2-0.02,0.42-0.02,0.62c0,0.41,0.05,0.81,0.05,1.22 c0,0.04,0,0.08,0.01,0.11c0.58-0.24,1.04-0.63,1.04-1.22c0-0.13-0.02-0.24-0.07-0.37C17.29,18.73,17.07,18.43,16.54,18.43z"/>
    <path fill="#70b854" stroke="#70b854" stroke-width="0.3629" stroke-miterlimit="10" d="M22.24,21.18c0,0.71-0.1,1.58-0.1,2.1c0,0.03,0,0.06,0,0.09c0,0.54-0.44,1.25-0.56,1.34 c-0.07,0.08-0.15,0.2-0.29,0.26c-0.16,0.07-0.21,0.15-0.56,0.2c-0.2,0-0.41-0.04-0.57-0.04c-0.01,0-0.02,0-0.03,0 c-0.35-0.03-0.35-0.18-0.64-0.35c-0.27-0.33-0.35-0.74-0.38-1.15h0.01l-0.06-0.42c-0.05-0.04-0.05-0.36-0.05-0.46 c0-0.33,0.06-0.69,0.06-1.01c0-0.08,0-0.15,0-0.22c0.14-0.89,0.2-1.62,0.63-2.51c0.2-0.42,0.17-0.45,0.8-0.76 c0.22-0.01,0.37-0.05,0.6-0.05c0.89,0,0.99,1.1,1.04,1.49c0.06,0.48,0.09,0.94,0.09,1.41C22.24,21.13,22.24,21.16,22.24,21.18z M21.75,22.01c-0.01-0.07-0.01-0.14-0.01-0.2c0-0.04,0-0.08,0-0.12c0-0.09,0-0.18,0-0.26c0.03-0.12,0.02-0.38,0.02-0.56 c0-0.32-0.06-0.67-0.08-1.01c-0.04-0.42-0.06-0.67-0.35-1.15c-0.04-0.06-0.06-0.08-0.13-0.08c-0.01,0-0.02,0-0.04,0 c-0.04-0.01-0.06-0.01-0.08-0.01c-0.67,0-0.9,0.71-0.9,1.03c0,0.35-0.13,0.66-0.13,0.65c0,0.04,0,0.16-0.08,0.24 c-0.04-0.01,0.01,0.99-0.08,1.3c-0.01,0.09-0.02,0.17-0.02,0.24c0,0.05,0,0.1,0,0.14c0,0.12-0.01,0.23-0.01,0.35 c0,0.51,0.01,0.96,0.32,1.68c0.06,0.19,0.07,0.38,0.35,0.52h0.04c0.69-0.05,0.91-0.84,1.03-1.14c0.08-0.23,0.14-0.65,0.13-0.76 c0-0.11-0.01-0.22-0.01-0.33c0-0.15,0-0.43,0.03-0.49C21.75,22.05,21.75,22.01,21.75,22.01z"/>
    <path fill="#70b854" stroke="#70b854" stroke-width="0.3629" stroke-miterlimit="10" d="M27.08,19.37c-0.09,0.48-0.19,1.05-0.19,1.54c0,0.1-0.01,0.3,0.02,0.35l-0.01,0.06 c-0.02,0.16-0.07,0.33-0.07,0.48c0,0.01,0,0.03,0,0.04c0,0.18-0.04,0.34-0.04,0.52c0.01,0.08,0.01,0.16,0.01,0.24 c0,0.18,0,0.39-0.06,0.54l-0.08,1.04c0,0.12-0.01,0.24-0.01,0.36c0,0.19,0.06,0.4,0.06,0.59c0,0.01-0.1,0.25-0.3,0.25 c-0.06,0-0.29-0.1-0.29-0.26c0-0.01,0-0.02,0-0.03l0.04-0.49c0.12-1.04,0.17-2.08,0.27-3.1c0-0.01,0-0.02,0-0.03 c0-0.03-0.01-0.06-0.04-0.08c-0.29-0.38-0.56-0.76-0.91-1.08c-0.25-0.22-0.53-0.55-0.72-0.78c-0.19-0.17-0.31-0.28-0.45-0.5 L24.29,19c0,0.02,0,0.03,0,0.05c0,0.03,0,0.07,0,0.1c0.01,0.08,0.01,0.16,0.02,0.23c0,0.1-0.01,0.19-0.06,0.28 c0.02,0.06,0.02,0.12,0.02,0.18c0,0.21-0.05,0.46-0.05,0.69c0,0.09,0,0.17,0,0.25c0,0.18-0.03,0.37-0.03,0.54 c0,0.15,0.01,0.29,0.01,0.43c0,0.68-0.04,1.39-0.07,2.05c0,0.07,0.03,0.18,0.03,0.23c0,0.1-0.05,0.2-0.05,0.3 c0,0.3,0.01,0.61,0.07,0.88c0,0.17-0.12,0.34-0.32,0.34c-0.1,0-0.2-0.07-0.2-0.13l-0.01-0.02c0-0.01,0-0.01,0-0.01 c-0.04,0.01-0.06,0.01-0.09,0.01c-0.17,0-0.28-0.1-0.28-0.25c0-0.08,0.05-0.16,0.05-0.24c0.01-0.29-0.02-0.68,0.06-0.94 c0.08-0.46,0.05-0.96,0.05-1.42c0.02-0.63,0.04-1.28,0.09-1.92c0-0.01,0-0.03,0-0.04c0-0.04,0-0.07-0.01-0.1v0.01 c-0.01-0.01-0.01-0.02-0.01-0.04c0-0.29,0.12-0.74,0.12-1.14c0-0.02,0-0.05,0-0.08c0-0.19,0.04-0.39,0.04-0.58 c0-0.07,0-0.14,0-0.19c0-0.25,0-0.59,0.23-0.59c0.37,0,0.8,0.85,0.96,1.07c0.21,0.3,0.5,0.54,0.68,0.72 c0.32,0.32,0.62,0.66,0.95,0.99l0.02-0.29c0-0.02-0.01-0.04-0.01-0.06c0-0.61,0.19-1.29,0.27-1.93c0.01-0.12,0.05-0.39,0.21-0.39 c0.24,0,0.3,0.11,0.3,0.27C27.2,18.62,27.19,19.01,27.08,19.37z"/>
    <path fill="#70b854" stroke="#70b854" stroke-width="0.3629" stroke-miterlimit="10" d="M31.29,18.07c-0.31,0-0.65-0.04-0.97-0.06c-0.02,0-0.04,0.01-0.04,0.03c0.01,0.19,0.06,0.39,0.06,0.58 c0,0.08-0.02,0.16-0.02,0.24c0,0.2,0.06,0.46,0.06,0.68c0,0.18,0.06,0.38,0.06,0.53c0,0.19-0.01,0.41-0.02,0.61 c0,0.09,0.01,0.17,0.01,0.25c0,0.03,0,0.06,0,0.09c0,0.4,0.09,0.8,0.09,1.2c0,0.06,0,0.12,0,0.18c0,0.68,0.1,1.28,0.14,1.95 c0,0.23-0.14,0.56-0.38,0.6c-0.12,0.03-0.31,0.21-0.49,0.27c-0.21,0.08-0.52,0.13-0.69,0.13c-0.82,0-0.94-0.91-0.94-1.36 c0-0.32,0.17-0.61,0.36-0.61c0.12,0,0.28,0.15,0.28,0.32c0,0.16-0.21,0.17-0.21,0.35c0.05,0.12,0.09,0.91,0.44,0.91 c0.67-0.15,0.89-0.1,0.89-0.89c0-0.23-0.05-0.47-0.05-0.69c0-0.1,0.01-0.19,0.01-0.28c0-0.2-0.03-0.4-0.06-0.6v-0.15 c0.01-0.02,0.01-0.04,0.01-0.06c-0.16-1.28-0.23-2.72-0.23-3.37c0-0.28,0.02-0.58,0.05-0.9c0-0.02-0.01-0.03-0.04-0.03 c-0.13,0.04-0.28,0.03-0.38,0.07c-0.15,0.07-0.37,0.13-0.5,0.13c-0.15,0-0.23-0.11-0.23-0.25c0-0.2,0.86-0.31,1.37-0.31 c0.45,0,0.8,0.02,1.15,0.02c0.08,0,0.15-0.01,0.23-0.02h0.02c0.01-0.01,0.04-0.01,0.06-0.01c0.13,0,0.25,0.09,0.27,0.19 C31.59,17.96,31.44,18.07,31.29,18.07z"/>
    <path fill="#70b854" stroke="#70b854" stroke-width="0.3629" stroke-miterlimit="10" d="M35.29,21.18c0,0.71-0.1,1.58-0.1,2.1c0,0.03,0,0.06,0,0.09c0,0.54-0.44,1.25-0.56,1.34 c-0.07,0.08-0.15,0.2-0.29,0.26c-0.16,0.07-0.21,0.15-0.56,0.2c-0.2,0-0.41-0.04-0.57-0.04c-0.01,0-0.02,0-0.04,0 c-0.35-0.03-0.35-0.18-0.64-0.35c-0.27-0.33-0.35-0.74-0.38-1.15h0.01l-0.06-0.42c-0.05-0.04-0.05-0.36-0.05-0.46 c0-0.33,0.06-0.69,0.06-1.01c0-0.08,0-0.15,0-0.22c0.14-0.89,0.2-1.62,0.63-2.51c0.2-0.42,0.17-0.45,0.8-0.76 c0.22-0.01,0.37-0.05,0.6-0.05c0.89,0,0.99,1.1,1.04,1.49c0.06,0.48,0.09,0.94,0.09,1.41C35.29,21.13,35.29,21.16,35.29,21.18z M34.81,22.01c-0.01-0.07-0.01-0.14-0.01-0.2c0-0.04,0-0.08,0-0.12c0-0.09,0-0.18,0-0.26c0.03-0.12,0.02-0.38,0.02-0.56 c0-0.32-0.06-0.67-0.08-1.01c-0.04-0.42-0.06-0.67-0.35-1.15c-0.04-0.06-0.06-0.08-0.13-0.08c-0.01,0-0.02,0-0.04,0 c-0.04-0.01-0.06-0.01-0.08-0.01c-0.67,0-0.9,0.71-0.9,1.03c0,0.35-0.13,0.66-0.13,0.65c0,0.04,0,0.16-0.08,0.24 c-0.03-0.01,0.01,0.99-0.08,1.3c-0.01,0.09-0.02,0.17-0.02,0.24c0,0.05,0,0.1,0,0.14c0,0.12-0.01,0.23-0.01,0.35 c0,0.51,0.01,0.96,0.32,1.68c0.06,0.19,0.07,0.38,0.35,0.52h0.04c0.69-0.05,0.91-0.84,1.03-1.14c0.08-0.23,0.14-0.65,0.13-0.76 c0-0.11-0.01-0.22-0.01-0.33c0-0.15,0-0.43,0.03-0.49C34.81,22.05,34.81,22.01,34.81,22.01z"/>
    <path fill="#70b854" stroke="#70b854" stroke-width="0.3629" stroke-miterlimit="10" d="M39.97,18.98c0,0.17,0,0.56-0.07,0.68c0,0.43-0.14,0.87-0.14,1.29c0,0.16,0.02,0.3,0.02,0.46 s-0.01,0.31-0.01,0.47c0,0.15,0.02,0.29,0.02,0.44c0,1.17-0.4,1.64-0.64,1.84c-0.17,0.15-0.37,0.64-1.1,0.67 c-0.23,0-0.86-0.55-0.82-0.52c-0.47-0.6-0.76-1.02-0.84-2.01c0-0.05,0-0.1-0.01-0.16l0.09,0.06c-0.14-0.3-0.14-0.54-0.14-0.75 c0-0.08,0-0.15,0-0.22c0-0.43-0.07-0.88-0.07-1.32c0-0.07,0.01-0.13,0.01-0.19c0-0.08-0.01-0.15-0.01-0.22 c0-0.19,0.07-0.39,0.07-0.58c0-0.1-0.02-0.2-0.02-0.31c0-0.15,0.2-0.4,0.41-0.4c0.05,0,0.08,0.02,0.12,0.02l0.08,0.01 c0.01,0,0.02,0,0.05,0c0.21,0,0.37,0.12,0.37,0.22c0,0.09-0.16,0.22-0.17,0.33c-0.07,0.3-0.02,0.56-0.05,0.83 c-0.02,0.37-0.08,0.75-0.08,1.11c0,0.51,0.01,1.05,0.07,1.52v0.06c0.17,0.46,0.21,1.05,0.36,1.45c0.17,0.29,0.1,0.32,0.68,0.66 c0.01,0.02,0.05,0.04,0.07,0.04c0.19-0.08,0.16-0.23,0.37-0.28c0.17-0.28,0.35-0.35,0.43-0.55c0.15-0.43,0.31-0.74,0.31-1.21 c0-0.18-0.01-0.37-0.01-0.55c0-0.2,0.01-0.41,0.01-0.62c0-0.16-0.01-0.32-0.01-0.47c0-0.04,0-0.08,0-0.12l-0.01-0.16 c0-0.06,0.05-0.14,0.05-0.21l-0.01-0.09c0.06-0.4,0.14-0.78,0.14-1.19c0-0.15-0.1-0.31-0.1-0.42c0-0.08,0.08-0.14,0.22-0.14 c0.21,0,0.37,0.05,0.37,0.23C39.96,18.78,39.97,18.87,39.97,18.98z"/>
    <path fill="#70b854" stroke="#70b854" stroke-width="0.3629" stroke-miterlimit="10" d="M43.95,24.91c0,0.19-0.08,0.29-0.23,0.29c-0.21,0-0.32-0.19-0.32-0.34s0.01-0.29,0.01-0.43 c0-0.49-0.09-0.94-0.21-1.45c-0.11-0.62-0.85-1.46-1.26-1.62c-0.05,0.4-0.08,0.74-0.13,1.13c0,0.09,0.01,0.18,0.01,0.26 c0,0.61-0.09,1.25-0.19,1.81c-0.01,0.04-0.02,0.08-0.02,0.11s0,0.05,0.01,0.07l-0.01,0.05c0.04,0.04,0.05,0.07,0.05,0.11 c0,0.21-0.2,0.27-0.3,0.27c-0.21,0-0.2-0.21-0.37-0.21c-0.12-0.01-0.15-0.11-0.15-0.16c0-0.72,0.23-1.37,0.23-1.97 c0.04-0.59,0.1-1.17,0.1-1.76c0-0.07,0-0.14,0-0.2c0-0.73,0.12-1.46,0.12-2.19c0-0.33-0.02-0.87,0.25-1.01 c0.21-0.11,0.56-0.18,0.71-0.18c0.67,0,1.11,0.37,1.16,0.45c0.24,0.41,0.43,0.68,0.43,1.08c0,0.87-0.75,1.36-1.48,1.86 c-0.05,0.03-0.09,0.05-0.14,0.07l-0.04,0.02c0.73,0.46,1.24,0.98,1.52,1.82c0,0.26,0.14,0.56,0.17,0.84 c0.04,0.25,0.07,0.51,0.07,0.77c0,0.05,0,0.1,0,0.15c0,0.08,0.01,0.17,0.01,0.25C43.95,24.82,43.95,24.86,43.95,24.91z M42.99,18.14C42.87,18,42.4,17.9,42.2,17.9c-0.12,0-0.12,0.16-0.12,0.25c0.01,0.33,0.07,0.67,0.07,0.99 c0,0.1-0.05,0.17-0.05,0.25c0,0.05,0.01,0.09,0.01,0.14s0,0.1-0.03,0.15v0.02c0.01,0.01,0.01,0.03,0.01,0.05s-0.01,0.04-0.01,0.06 c0,0.04,0.01,0.08,0.01,0.12l-0.04,0.34l-0.02,0.28c0.61-0.31,1.31-0.83,1.31-1.6C43.35,18.61,43.2,18.49,42.99,18.14z"/>
  </g>
  <g>
    <path fill="#70b854" stroke="#70b854" stroke-width="0.3224" stroke-miterlimit="10" d="M33.26,42.85c-0.15,0.38-0.39,0.81-0.88,1.01l-0.13,0.05c0.11,0.11,0.21,0.27,0.22,0.43 c0.01,0.12-0.04,0.23-0.18,0.26c-0.05,0.16-0.19,0.23-0.35,0.24c-0.2,0.01-0.64-0.09-0.65-0.25v-0.06 c-0.01-0.12,0.11-0.16,0.2-0.18c0.09,0,0.15,0.05,0.15,0.1v0.04c0.06,0.04,0.16,0.06,0.25,0.09c0.05-0.02,0.13-0.07,0.13-0.11 c0-0.05-0.05-0.12-0.06-0.13l-0.17-0.2c-0.05-0.05-0.06-0.09-0.08-0.14c-0.53-0.01-0.67-0.52-0.95-0.89 c-0.07-0.07-0.28-0.34-0.29-0.65c0-0.01,0.01-0.01,0.01-0.02c-0.02-0.19-0.08-0.36-0.12-0.57l-0.12-0.51 c-0.02-0.13-0.02-0.26-0.05-0.39l-0.13-0.65c0-0.02-0.01-0.06-0.02-0.09c-0.01-0.17,0.01-0.33,0-0.5c0-0.08-0.02-0.16-0.03-0.25 c-0.01-0.23,0.02-0.49,0.07-0.73c0.01-0.03,0.02-0.06,0.01-0.09c-0.02-0.34,0.22-0.79,0.6-0.94l0.06-0.03 c0.08-0.01,0.18-0.03,0.27-0.03c0.42-0.03,0.99,0.36,1.01,0.7c0.01,0.11-0.05,0.19-0.17,0.21c-0.11,0.01-0.16-0.02-0.21-0.09 c-0.04-0.08-0.21-0.51-0.55-0.49c-0.24,0.02-0.32,0.66-0.3,0.96c0,0.01,0.01,0.01,0.01,0.02C30.8,38.99,30.8,38.99,30.8,39 c0,0.02,0.01,0.04,0.01,0.06c0.01,0.17-0.05,0.36-0.04,0.54c0.02,0.27,0.09,0.54,0.11,0.8c0.01,0.09,0,0.18,0.01,0.26 c0,0.06,0.01,0.13,0.02,0.2l0.04,0.22c0.07,0.48,0.12,0.95,0.3,1.42c0,0.03,0.15,1.17,0.58,1.14c0.12-0.02,0.22-0.04,0.33-0.06 c0.26-0.08,0.7-0.6,0.68-0.95c0-0.02,0-0.04,0-0.06l0.02-0.1c0-0.01,0-0.02,0-0.03c0-0.02-0.01-0.05-0.07-0.1L33,42.18 c0.17,0.03,0.21,0.1,0.21,0.18l0.05,0.4C33.28,42.8,33.27,42.82,33.26,42.85z"/>
    <path fill="#70b854" stroke="#70b854" stroke-width="0.3224" stroke-miterlimit="10" d="M36.81,42.76c0,0.05-0.06,0.11-0.2,0.12c-0.09,0.01-0.23-0.06-0.23-0.15c0-0.01,0-0.02,0-0.02 c-0.03-0.5-0.29-1-0.38-1.5c-0.05-0.27-0.15-0.54-0.24-0.81c-0.03-0.07-0.07-0.16-0.08-0.24l-0.02-0.06 c-0.02-0.02-0.03-0.01-0.03-0.01c-0.03,0-0.06,0-0.1,0.01h-0.15c-0.06,0-0.12-0.02-0.18-0.04c-0.04,0.01-0.09,0.02-0.14,0.02 h-0.13c-0.13,0.01-0.18,0.65-0.18,0.66c-0.06,0.33-0.25,0.75-0.23,1.04c0,0.01,0,0.02,0,0.03c0.03,0.52-0.16,1.2-0.4,1.21 c-0.09,0.01-0.4-0.1-0.42-0.37c-0.01-0.16,0.06-0.33,0.06-0.46c0-0.72,0.22-1.31,0.33-1.89c0.11-0.66,0.23-1.39,0.44-2.01 c0-0.01,0.01-0.02,0.01-0.02v-0.01c0.03-0.23,0.14-0.42,0.19-0.69c0.14-0.02,0.2-0.04,0.28-0.04c0.44-0.03,0.5,0.8,0.54,0.96 c0.12,0.48,0.25,0.95,0.43,1.38c0.28,0.7,0.26,0.89,0.32,1.05c0.08,0.11,0.05,0.27,0.09,0.41c0.06,0.2,0.15,0.39,0.2,0.6 c0,0.01,0,0.02,0,0.02c0.01,0.17,0.17,0.38,0.19,0.61c0,0.02,0,0.04,0,0.06c0,0.05,0.03,0.08,0.03,0.13 C36.8,42.73,36.81,42.74,36.81,42.76z M35.41,39.36c-0.09-0.32-0.18-0.62-0.27-0.94c0.02,0.28-0.15,0.56-0.17,0.87 c0.01,0.1,0,0.32-0.08,0.47c0,0.02,0.01,0.02,0.03,0.02c0.18-0.01,0.36-0.05,0.54-0.06c0.02,0,0.04,0.01,0.06,0 C35.52,39.62,35.45,39.48,35.41,39.36z"/>
    <path fill="#70b854" stroke="#70b854" stroke-width="0.3224" stroke-miterlimit="10" d="M42.43,37.9c-0.03,0.2-0.15,0.35-0.19,0.53c-0.14,0.52-0.33,1-0.33,1.49c0.02,0.34-0.2,0.99-0.29,1.28 c-0.09,0.26-0.08,0.69-0.33,0.9c-0.03,0.35-0.44,0.95-0.42,1.16c0,0.02,0,0.02,0,0.04c0,0.08-0.09,0.13-0.18,0.14l-0.14,0.01 c-0.1,0-0.15-0.04-0.18-0.1v-0.06c-0.05-0.25-0.12-0.54-0.14-0.79c0-0.04,0.01-0.07,0-0.11c-0.01-0.18-0.14-0.46-0.15-0.68 c0-0.02,0-0.05,0.01-0.07c-0.02-0.34-0.19-0.65-0.23-1c-0.1-0.59-0.35-1.11-0.4-1.67c-0.05-0.48-0.18-0.98-0.28-1.44 c0-0.01,0-0.02,0-0.03c-0.01-0.23,0.15-0.27,0.16-0.28l0.06-0.03c0.03-0.02,0.08-0.04,0.16-0.05c0.3-0.02,0.29,0.28,0.33,0.47 c0.03,0.21,0.09,0.55,0.18,0.67c-0.01,0.02-0.01,0.04-0.01,0.06c0.01,0.21,0.15,0.5,0.21,0.74c0.05,0.21,0.11,0.4,0.17,0.61v0.01 c0.01,0.01,0.01,0.02,0.01,0.04s0,0.03,0,0.06c0.01,0.17,0.05,0.33,0.11,0.5l0.01,0.12c0.01,0.01,0.01,0.02,0.01,0.04v0.02 c0.11,0.15,0.08,0.43,0.12,0.64c0.02,0.12,0.09,0.23,0.1,0.35c0,0.02,0,0.04,0,0.06c0.01,0.17,0.06,0.34,0.11,0.5v0.02 c0.15-0.31,0.23-0.63,0.39-1c0.16-0.8,0.32-1.6,0.46-2.31c0.01-0.01,0.01-0.02,0.01-0.02L42,38.08c0.06-0.11,0.08-0.29,0.12-0.42 c0.07-0.21,0.13-0.6,0.33-0.61c0.14-0.01,0.27,0.06,0.27,0.16c0,0.03-0.01,0.06-0.02,0.08C42.58,37.47,42.52,37.68,42.43,37.9z"/>
    <path fill="#70b854" stroke="#70b854" stroke-width="0.3224" stroke-miterlimit="10" d="M46.52,42.14c0,0.05-0.06,0.11-0.2,0.12c-0.09,0.01-0.23-0.06-0.23-0.15c0-0.01,0-0.02,0-0.02 c-0.03-0.5-0.29-1-0.38-1.5c-0.05-0.27-0.15-0.54-0.24-0.81c-0.03-0.07-0.07-0.16-0.08-0.24l-0.02-0.06 c-0.02-0.02-0.03-0.01-0.03-0.01c-0.03,0-0.06,0-0.1,0.01h-0.15c-0.06,0-0.12-0.02-0.18-0.04c-0.04,0.01-0.09,0.02-0.14,0.02 h-0.13c-0.13,0.01-0.18,0.65-0.18,0.66c-0.06,0.33-0.25,0.75-0.23,1.04c0,0.01,0,0.02,0,0.03c0.03,0.52-0.16,1.2-0.4,1.21 c-0.09,0.01-0.4-0.1-0.42-0.37c-0.01-0.16,0.06-0.33,0.06-0.46c0-0.72,0.22-1.31,0.32-1.89c0.11-0.66,0.23-1.39,0.44-2.01 c0-0.01,0.01-0.02,0.01-0.02v-0.01c0.03-0.23,0.14-0.42,0.19-0.69c0.14-0.02,0.2-0.04,0.28-0.04c0.44-0.03,0.5,0.8,0.54,0.96 c0.12,0.48,0.25,0.95,0.43,1.38c0.28,0.7,0.26,0.89,0.32,1.05c0.08,0.11,0.05,0.27,0.09,0.41c0.05,0.2,0.15,0.39,0.2,0.6 c0,0.01,0,0.02,0,0.02c0.01,0.17,0.17,0.38,0.19,0.61c0,0.02,0,0.04,0,0.06c0,0.05,0.03,0.08,0.03,0.13 C46.51,42.11,46.52,42.12,46.52,42.14z M45.12,38.75c-0.09-0.31-0.18-0.62-0.27-0.94c0.02,0.28-0.15,0.56-0.17,0.87 c0.01,0.1,0,0.32-0.08,0.47c0,0.02,0.01,0.02,0.03,0.02c0.18-0.01,0.36-0.05,0.54-0.06c0.02,0,0.04,0,0.06,0 C45.23,39,45.16,38.86,45.12,38.75z"/>
    <path fill="#70b854" stroke="#70b854" stroke-width="0.3224" stroke-miterlimit="10" d="M51.57,37.26c0.03,0.41-0.16,0.59-0.44,1.17c-0.27,0.56-0.9,0.96-1.02,1.12c-0.15,0.23-0.35,0.27-0.33,0.71 c0.01,0.14,0.07,0.28,0.08,0.42c0.01,0.14-0.19,0.22-0.26,0.23c-0.22,0.01-0.23-0.19-0.3-0.23c-0.04-0.03-0.05-0.08-0.05-0.11 c0.01-0.34-0.05-0.88,0.32-1.12c0.46-0.4,0.65-0.65,0.62-0.6c0.11-0.12,0.39-0.39,0.38-0.46c0.03-0.33,0.09-0.65,0.06-0.97 c-0.03-0.5-0.22-0.97-0.63-1.01c-0.08,0-0.2,0-0.28,0c-0.14,0.01-0.52,0.11-0.56,0.14l-0.02,0.01c-0.12,0.16-0.21,0.48-0.37,0.49 c-0.12,0.01-0.2-0.08-0.2-0.16c-0.02-0.26,0.12-0.46,0.32-0.59s0.29-0.21,0.56-0.24c0.21-0.02,0.43-0.07,0.63-0.09 c0.47-0.03,1.14,0.62,1.3,0.74c0.14,0.12,0.17,0.32,0.18,0.48C51.57,37.21,51.57,37.24,51.57,37.26z M49.71,42.8 c-0.19,0.01-0.35-0.11-0.36-0.27c0-0.03,0-0.06-0.01-0.1c0-0.02,0-0.03,0-0.05c-0.02-0.24,0.26-0.51,0.46-0.53 c0.26-0.02,0.42,0.27,0.45,0.46C50.23,42.55,49.98,42.78,49.71,42.8z"/>
  </g>
  <path fill="#ffffff" d="M16.75,30.93c0,0,0.48,4.67,4.39,6.52s-0.34-1.58,1.44-5.9C24.37,27.23,16.75,30.93,16.75,30.93z"/>
</svg>
