<svg xmlns="http://www.w3.org/2000/svg" viewBox="0 0 66 63">
  <path fill="#ec6781" d="M24.47,60.31C2.25,56.34-0.37,40.5,2.65,23.94C5.29,9.4,23.81-3.17,42.98,2.78S64.14,24.6,64.14,31.22 S61.5,66.92,24.47,60.31z"/>
  <path fill="#b33955" d="M29.72,46.43c-9.98,2.95-16.31-2.95-16.31-2.95l18.31,17.7c30.11,1.77,32.42-23.81,32.42-29.96 c0-0.15,0-0.31,0-0.47L53.86,19.42c0,0-0.85,18.52-3.89,22.93C44.95,49.65,30.43,48.26,29.72,46.43z"/>
  <path fill="#ffffff" opacity="0.45" enable-background="new" d="M28.39,44.8c-0.71-0.84-0.71-6.37-1.29-7.72c-0.58-1.35-2.45-0.26-3.41-3.02c-0.97-2.77,2.7-4.12,3.67-5.02 c0.97-0.9,1.22-2.77,1.35-3.73c0.13-0.97,2.7-4.89,2.7-4.89s-1.54-1.61-0.13-3.09c0.78-0.81,1.81-1.66,2.82-1.91 c-2.52-1.48-5.19-1.95-8.32-1.95c-9.36,0-16.96,7.59-16.96,16.96s7.59,16.96,16.96,16.96c1.74,0,3.16,0.13,4.74-0.36 C29.77,45.99,28.84,45.33,28.39,44.8z"/>
  <path fill="#ffffff" d="M37.16,50.4c0,0,1.09-7.34-0.84-7.34s-3.93,1.48-4.83-1.54s0.32-5.6-1.29-6.31c-1.61-0.71-3.47-1.74-1.87-3.67 c1.61-1.93,3.15-2.32,3.15-4.44s2.7-5.41,2.7-5.41s2.9,2.7,4.83,2.9c1.93,0.19-0.33,7.73-0.33,7.73l4,1.29c0,0,1.22-3.31,2.7-3.16 c2.18,0.22,2.83,1.87,2.45,3.54c-0.39,1.67-3.86,2.7-3.86,2.7l0.39,3.47l4.63,3.6v5.86C49,49.63,43.98,52.59,37.16,50.4z"/>
  <path fill="#ffffff" d="M50.19,41.65l-3.26-2.16l-0.28-1.65c0,0,1.93-0.94,3.22-2.48s0.54-5.2-1.57-6.51 c-2.84-1.76-5.12,0.18-6.47,2.88c-0.41,0-1.19-0.37-1.19-0.37s2.06-5.2,1.42-7.26c-0.64-2.06-3.89-1.01-7.24-4.55 c-1.29-2.06,7.43-5.48,14.57-2.48c8.04,3.38,8.43,7.5,8.11,12.13S51.6,40.82,50.19,41.65z"/>
  <path fill="#ec6781" d="M34.39,29.68c0,0-1.74-0.58-1.29-1.42s1.16,0.13,2.38,0.45c1.22,0.32,2.12,0.97,1.42,1.35 c-0.71,0.39-2.25,0.51-2.57,0.97C34.01,31.48,33.88,30.33,34.39,29.68z"/>
  <path fill="#ffffff" d="M17.5,41.52c0.9-3.02-0.32-5.6,1.29-6.31c1.61-0.71,3.47-1.74,1.87-3.67c-1.61-1.93-3.15-2.32-3.15-4.44 c0-1.81-2.68-5.3-3.48-6.29c-1.88,2.73-3.97,6.04-3.97,9.61c0,5,3.15,9.5,6.6,12.6C16.99,42.74,17.28,42.27,17.5,41.52z"/>
  <path fill="#ec6781" d="M25.47,47.07c-9.18,0-16.65-7.47-16.65-16.65s7.47-16.65,16.65-16.65c2.75,0,5.45,0.68,7.86,1.97 c0.19,0.1-1.5,1.28-1.64,1.21c-1.94-0.89-4.06-1.36-6.21-1.36c-8.18,0-14.44,6.65-14.44,14.83s6.26,14.83,14.44,14.83 c1.07,0,2.12-0.11,3.15-0.34c0.14-0.03,1.4,1.53,1.22,1.57C28.42,46.88,26.95,47.07,25.47,47.07z"/>
  <path fill="#ffffff" d="M25.91,48.98c-10.47,0-18.99-8.32-18.99-18.55s8.52-18.55,18.99-18.55c3.39,0,6.71,0.88,9.62,2.55 c0,0-1.7,1.39-2.03,1.23c-2.34-1.15-4.94-1.75-7.59-1.75c-9.33,0-16.92,7.41-16.92,16.53s7.59,16.53,16.92,16.53 c1.38,0,2.75-0.16,4.08-0.48c0.3-0.07,1.51,1.69,1.51,1.69C29.69,48.7,27.81,48.98,25.91,48.98z"/>
  <path fill="#ec6781" d="M14.6,29.68c0,0,1.74-0.58,1.29-1.42s-1.16,0.13-2.38,0.45c-1.22,0.32-2.12,0.97-1.42,1.35 s2.25,0.51,2.57,0.97C14.99,31.48,15.12,30.33,14.6,29.68z"/>
</svg>
