<?xml version="1.0" encoding="utf-8"?>
<!-- Generator: Adobe Illustrator 24.0.2, SVG Export Plug-In . SVG Version: 6.00 Build 0)  -->
<svg version="1.1" id="Calque_1" xmlns="http://www.w3.org/2000/svg" xmlns:xlink="http://www.w3.org/1999/xlink" x="0px" y="0px"
	 viewBox="0 0 67.41 65.72" style="enable-background:new 0 0 67.41 65.72;" xml:space="preserve">
<style type="text/css">
	.st0{fill:#EB6680;}
	.st1{fill:#B23855;}
	.st2{fill:#FFFFFF;}
	.st3{fill:#EA667F;}
</style>
<g>
	<path class="st0" d="M25.31,61.16C3.09,57.2,0.47,41.36,3.49,24.8C6.13,10.25,24.65-2.31,43.82,3.64s21.16,21.82,21.16,28.43
		S62.34,67.78,25.31,61.16z"/>
	<path class="st1" d="M61.71,46.99l-3.62-3.6c0,0-2.25-0.75-6.18-2.18c-4.35-1.59-10.32-2.15-16.61-2.01
		c-11.95,0.25-18.12,1.89-18.12,1.89s-7.77,3.48-7.08,4.99c0.48,1.04,10.13,9.85,16.08,15.22C47.84,64.88,57.47,56.06,61.71,46.99z"
		/>
	<path class="st2" d="M10.29,21.84c0.29,0.2,0.53,0.36,0.76,0.52c1.6,1.1,2.54,2.56,2.45,4.56c-0.01,0.21,0.02,0.42,0.03,0.63
		c0.13,1.86,0.98,3.3,2.6,4.22c1.06,0.6,2.21,0.85,3.53,0.58c-0.2-0.17-0.31-0.26-0.43-0.35c-1.92-1.41-3.2-3.13-3.05-5.68
		c0.04-0.62-0.21-1.3-0.47-1.88C14.8,22.35,12.35,21.17,10.29,21.84z M56.48,18.78c-0.06,0.21-0.11,0.33-0.14,0.45
		c-0.71,2.82-2.11,4.97-5.07,5.98c-1.75,0.59-2.85,2.04-3.32,3.87c-0.41,1.58-0.19,3.07,0.76,4.59c0.14-0.44,0.25-0.74,0.32-1.05
		c0.57-2.35,1.89-4.01,4.24-4.8c0.63-0.21,1.23-0.58,1.78-0.98C57.53,25,58.22,21.21,56.48,18.78z"/>
	<path class="st2" d="M18.88,50.15c-0.14,0.03-0.3,0.12-0.42,0.09c-2.46-0.65-4.92-1.3-7.1-2.9c-0.34-0.25-0.66-0.57-0.93-0.92
		c-0.69-0.89-0.68-1.89,0.01-2.78c0.91-1.17,2.11-1.8,3.34-2.28c1.46-0.57,2.96-0.99,4.45-1.46c0.19-0.06,0.41-0.01,0.62-0.01
		c0.02,0.06,0.04,0.13,0.06,0.19c-0.16,0.12-0.32,0.26-0.49,0.37c-1.22,0.75-2.45,1.5-3.67,2.25c-0.12,0.08-0.23,0.19-0.34,0.3
		c-1.43,1.38-1.48,2.82,0.03,4.06c1.21,0.99,2.59,1.68,3.89,2.51c0.2,0.13,0.39,0.26,0.59,0.4C18.9,50.03,18.89,50.09,18.88,50.15z"
		/>
	<path class="st2" d="M49.79,49.94c0.2-0.13,0.4-0.26,0.6-0.39c1.24-0.77,2.48-1.53,3.7-2.32c0.28-0.18,0.5-0.49,0.72-0.77
		c0.74-0.94,0.74-1.94-0.02-2.88c-1.22-1.53-2.84-2.28-4.43-3.09c-0.21-0.1-0.4-0.25-0.59-0.38c0.01-0.07,0.02-0.14,0.03-0.2
		c0.16-0.02,0.34-0.1,0.49-0.06c2.36,0.62,4.71,1.25,6.83,2.72c2.19,1.53,2.19,3.41-0.01,4.92c-1.97,1.36-4.15,2.02-6.36,2.59
		c-0.29,0.08-0.59,0.1-0.89,0.15C49.84,50.15,49.81,50.04,49.79,49.94z"/>
	<path class="st2" d="M49.88,43.88c-0.2-0.2-0.41-0.43-0.66-0.54c-1.28-0.55-4.4-1.82-4.39-2.22c0.02-1.22-1.18-4.46-4.66-5.74
		c-1.71-0.63-4.53-1.39-3.41-3.43c0.14-0.29,0.31-0.59,0.54-0.81c1.22-1.12,2.26-2.38,3.02-3.87c0.12-0.24,0.38-0.42,0.58-0.63
		c1.87-1.94,3.61-4.75,2.42-7.17c-0.1-0.21-0.16-0.45-0.2-0.69c-0.09-0.58-0.11-1.18-0.25-1.75c-0.53-2.29-3.43-4.87-5.65-5.76
		c-0.35-0.14-0.85-0.23-0.98-0.58c-1.05-2.73-4.36-4.3-7.89-2.45c-3.78,1.98-3.71,4.53-2.65,7.99c0.08,0.25,0.05,0.54-0.02,0.78
		c-0.57,1.99-0.77,5.17,0.67,7.12c0.69,0.93,1.2,1.83,1.58,2.92c0.46,1.32,1.39,3.25,2.58,3.99c3.6,2.24-1.01,4.14-4.15,5.54
		c-2.15,0.99-2.53,3.26-2.51,4.5c0.01,0.38-0.07,0.59-0.49,0.67c-0.55,0.11-1.1,0.29-1.63,0.48c-1.05,0.38-2.1,0.79-2.91,1.61
		c-0.73,0.74-0.72,1.57,0.04,2.29c0.21,0.19,0.43,0.38,0.67,0.53c1.46,0.94,3.11,1.37,4.77,1.75c0.04,0.01,0.09-0.05,0.24-0.14
		c-0.28-0.14-0.5-0.22-0.68-0.35c-0.74-0.52-1.52-1.01-2.2-1.61c-0.53-0.47-0.69-1.18-0.46-1.86c0.42-1.25,1.47-1.85,2.65-2.42
		c0,0.85,0.05,1.58-0.01,2.31c-0.08,0.89,0.36,1.34,1.11,1.67c1.51,0.65,3.99,1.53,5.6,1.71c3.45,0.38,5.28-0.5,8.71-1.04
		c1.35-0.22,3.44-0.4,4.75-0.8c0.59-0.18,0.89-0.65,0.86-1.32c-0.04-0.8-0.01-1.61-0.01-2.53c1.07,0.52,1.99,1.08,2.51,2.07
		c0.35,0.65,0.34,1.39-0.15,1.95c-0.5,0.57-1.11,1.05-1.72,1.51c-0.38,0.28-0.84,0.45-1.26,0.67c0.02,0.07,0.05,0.15,0.07,0.22
		c0.77-0.21,1.55-0.39,2.3-0.63c1.18-0.38,2.34-0.82,3.26-1.71C50.58,45.43,50.59,44.61,49.88,43.88z M42.37,20.34
		c0.69,1.37-0.84,3.52-1.83,4.79c-0.41-2.35-0.41-2.35-2.61-5.11c0.96,0,3.17-0.01,4.07,0.01C42.12,20.04,42.3,20.2,42.37,20.34z
		 M34.54,10.65c-2.73,0-5.75,1.39-7.43,4.18c-1.16-2.26-0.23-4.1,1.39-5.11C30.65,8.39,33.83,8.27,34.54,10.65z M28.18,23.11
		c-0.07,0.19-0.14,0.38-0.21,0.57c-0.01,0.02-0.34,0.34-0.35,0.36c-2.66-3.69-0.82-8.26,2.49-10.53c2.02-1.38,4.21-1.99,6.63-1.1
		c1.96,0.72,4.58,3.13,5.01,5.11c0.07,0.34,0.1,0.68,0.14,1.03c0.01,0.07-0.02,0.15-0.03,0.3c-0.3,0-1.88,0-2.15,0
		c-1.95,0.01-3.9-0.03-5.85,0.04C31.01,18.99,29.16,20.49,28.18,23.11z"/>
	<path class="st3" d="M36.96,28.48c0-0.01,0.01-0.01,0.01-0.02h-0.02c-0.4-0.97-1.56-1.67-2.92-1.67s-2.52,0.7-2.92,1.67h-0.02
		c0,0.01,0.01,0.01,0.01,0.02c0,0.01-0.01,0.01-0.01,0.02h0.02c0.4,0.97,1.56,1.67,2.92,1.67s2.52-0.7,2.92-1.67h0.02
		C36.96,28.49,36.96,28.49,36.96,28.48z"/>
</g>
</svg>
