<?xml version="1.0" encoding="utf-8"?>
<!-- Generator: Adobe Illustrator 25.0.0, SVG Export Plug-In . SVG Version: 6.00 Build 0)  -->
<svg version="1.1" id="Calque_1" xmlns="http://www.w3.org/2000/svg" xmlns:xlink="http://www.w3.org/1999/xlink" x="0px" y="0px"
	 viewBox="0 0 62.2 60" style="enable-background:new 0 0 62.2 60;" xml:space="preserve">
<g>
	<polygon style="opacity:0.4;fill:#5DBFBF;" points="16.9,54.3 9,44.2 11.8,33.5 22.9,30.3 51.7,41.3 51.9,49.2 41.6,53.7 	"/>
	<path style="opacity:0.7;fill-rule:evenodd;clip-rule:evenodd;fill:#5DBFBF;" d="M14.4,27.8c2,1.4,3.3,1,4.8-0.9c1.2-1.4-0.8-1.5-1.6-3.2c0,0,0.3-0.1,0.3-0.1c-0.1-0.3-0.4-0.5-0.6-0.8
		c-0.3-0.5-0.8-0.6-0.6-1.1c0.3-0.5,0.6-0.1,1.2-0.2c1.3-0.2,3-0.5,4.1-1.4c0.5-0.4,1-1.1,1-1.8c0-0.7-0.7-1.3-1.3-1.7
		c-1.1-0.7-2.5-1.2-3.7-1.3c-1.8-0.2-3.6-0.3-5.5-0.6c-1.6-0.2-4.4-0.5-5.7,0.6c-0.9,0.8-1,2.2-0.8,3.3c0.1,0.7,0.4,1.3,1,1.7
		c1,0.8,3.1,1.1,4.3,1.3c0.2,0,0.5-0.3,0.5,0C12.1,25.1,11.7,25.9,14.4,27.8z"/>
	<path style="opacity:0.7;fill-rule:evenodd;clip-rule:evenodd;fill:#5DBFBF;" d="M39.1,34.8c0,2.4,3.6,2.1,4.6-0.1c4.4-9.6-0.2-11.2,5.1-20.4c1.8-3.1,3.9,1.8,7.1,0.1c0-3.9,0-8.2,0-12.1
		c-1.6-1.4-3.2-1.5-4.3,0.3c-1.8,3.2,2.7,4.9-0.4,7c-4.2,3-5.4-1.8-10.2,0.1c-2,0.8-1.3,2.7-0.2,4.5c0.7,1.1,3.1-1.5,2.8-0.2
		C41.5,24.6,39,24.3,39.1,34.8z"/>
	<g>
		<path style="fill-rule:evenodd;clip-rule:evenodd;fill:#5DBFBF;" d="M12.1,52.9c-3.8-2.4-6.4-6.8-6.4-11.7c0-7.5,6.2-13.6,13.7-13.6c1.6,0,3.7,0.5,5.2,1.2c7,2.5,7,2.7,14,5.1
			c7,2.5,7.3,1.9,14.3,4.3c0,0,0-0.1,0-0.1c3.7,0.9,6.1,4.7,6.1,8.7c0,2.3-0.7,4.3-2.1,5.9c0.3,0.9,1.8-1,2.1,0
			c0.9,2.6,2.3,4-0.2,5.1c-6.2,2.5-6.5,0.5-13.2,0.5c-6.7,0-6.7-0.3-13.4-0.3c-6.7,0-6.7,0.7-13.4,0.7s-7.1,2-13.3-0.6
			c-2.5-1-2.1-3.5,0-5.2c2.7-2.2,3.4-0.3,6.9-0.2C12.3,52.7,12.1,52.9,12.1,52.9z M44.8,40.8c-2.6,0-4.6,1.9-4.6,4.5s2,4.6,4.6,4.6
			c2.6,0,4.7-2.1,4.7-4.6s-2.2-5-4.8-5C44.7,40.3,44.8,40.8,44.8,40.8z M44.8,42.7c-1.5,0-2.7,1.1-2.7,2.6c0,1.5,1.1,2.7,2.7,2.7
			c1.5,0,2.9-1.2,2.9-2.7c0-1.5-1.4-3.1-2.9-3.1C44.7,42.2,44.8,42.7,44.8,42.7z M19.4,34c-4,0-7.2,3.1-7.2,7.2c0,4,3.2,7.3,7.2,7.3
			c2.2,0,4.2-0.9,5.6-2.5c1.6,0,1.7,0.3,2.4,1.7c0.4,0.9-0.8,0.5-0.5,1.4c0.4,1.1,0.5,1.7,1.5,1.1c2.3-1.5,3-1.5,3.4-4.2
			c0.2-1.2-1.1-1.5-2.3-1.4c-0.9,0.1-0.1,1.7-0.9,1.6c-1.6-0.1-1.3-0.8-2.3-2c0.5-1,0.4-1.8,0.4-3c0-4-3.3-7.6-7.3-7.6
			C19.3,33.6,19.4,34,19.4,34z M18.9,40c2.9,0.8,2.4,2,5.1,3.3c0.3-0.6,0.4-1.3,0.4-2c0-2.8-2.3-5.2-5.1-5.2c-2.8,0-5.4,2.4-5.4,5.2
			c0,2.8,2.6,4.8,5.4,4.8c1.4,0,2.5,0,3.4-1c-2.1-2.1-2.5-1.5-4.6-3.6C17.4,40.7,18.1,39.7,18.9,40z"/>
	</g>
</g>
</svg>
