<svg xmlns="http://www.w3.org/2000/svg" viewBox="0 0 66 63">
  <path fill="#0db0c5" d="M41.89,1.61c22.57,4.03,25.23,20.12,22.17,36.94c-2.69,14.78-21.5,27.54-40.98,21.5S1.58,37.88,1.58,31.17 S4.27-5.11,41.89,1.61z"/>
  <path fill="#046B73" fill-rule="evenodd" clip-rule="evenodd" d="M39.75,60.91c12.5-2.53,22.41-11.94,24.3-22.35c0.55-3.05,0.92-6.08,1.01-9.01L36.86,9.02L34.75,22.8 l4.74,5.78l-2.56,12.99l13.78,5.13l-33.19,2.9L39.75,60.91z"/>
  <g>
    <path fill="none" d="M43.08,40.83c-0.95-0.87-1.62-1.9-1.87-3.19c-0.14-0.7-0.34-1.38-0.52-2.07c-0.19-0.76-0.38-1.52-0.57-2.29 c-0.03,0-0.06,0-0.09,0c-0.04,0.12-0.09,0.24-0.11,0.36c-0.57,2.78-0.5,5.6-0.46,8.42c0,0.13,0.22,0.32,0.36,0.36 c0.43,0.1,0.87,0.12,1.31,0.19c1.63,0.28,3.27,0.56,5.03,0.87c-0.27-0.22-0.46-0.36-0.63-0.51 C44.72,42.27,43.88,41.57,43.08,40.83z"/>
    <path fill="none" d="M30.23,33.36c-0.05,0-0.11,0-0.16,0.01c-0.26,1.04-0.54,2.08-0.77,3.13c-0.38,1.72-0.91,3.34-2.34,4.51 c-0.37,0.3-0.7,0.64-1.07,0.95c-0.58,0.5-1.17,0.98-1.78,1.49c2.12-0.34,4.18-0.68,6.24-1c0.34-0.05,0.41-0.22,0.4-0.52 c-0.07-2.27-0.11-4.55-0.21-6.82C30.52,34.52,30.34,33.94,30.23,33.36z"/>
  </g>
  <path fill="#ffffff" d="M50.95,41.96c-1.11-1.35-2.27-2.64-3.36-4.01c-0.81-1.02-2.13-4.07-2.65-5.23c-1.07-2.4-2.04-7.59-4.22-9.08 c-1.08-0.73-2.53-0.64-3.79-1c-0.28-0.08-0.72-0.34-0.71-0.51c0.01-0.57-0.37-1.24,0.33-1.7c0.89-0.58,1.39-1.45,1.71-2.45 c0.09-0.27,0.27-0.54,0.47-0.75c0.46-0.49,0.9-2.24,0.49-2.63c-0.24-0.22-0.35-0.46-0.4-0.7c0.51,0.17,0.9,0.32,1.07,0.46 c0.77,0.63-0.14-0.91-0.77-1.55s0.63-0.35,0.63-0.35s-0.98-1.9-1.83-2.74s-6.12-3.3-8.02,0.84c0,0-0.01,0.03-0.02,0.07 c-0.45,0.24-1.22,0.81-1.01,1.83c0.14,0.69,0.34,1.29,0.5,1.72c-0.01,0.01-0.02,0.03-0.03,0.04c-0.54,0.37-0.47,0.88-0.39,1.4 c0.12,0.76,1.6,3.73,2.14,4.28c0.19,0.19,0.39,0.37,0.61,0.52c0.68,0.46,0.32,1.14,0.32,1.71c0,0.17-0.45,0.42-0.73,0.5 c-1.3,0.37-2.14,0.77-3.43,1.15c-1.51,0.44-2.9,1.32-3.17,2.91c-0.31,1.86-1.17,3.69-1.55,5.53c-0.36,1.74-0.42,3.39-1.65,4.76 c-1.26,1.4-2.44,2.88-3.66,4.32c-0.9,1.05-1.53,2.2-1.95,3.56c-2.09,6.78,8.49,5.57,11.91,5.44c1.43-0.06,5.27-1,6.69-0.94 c2.98,0.13,5.96,0.4,9.21,0.64c0.83,0,1.93,0,3.03,0c0.17,0,0.33,0.02,0.5,0c0.88-0.09,1.79-0.11,2.65-0.31 c1.62-0.37,2.47-1.41,2.61-3.07C52.61,44.87,52.06,43.31,50.95,41.96z M28.32,41.69c-2.52,0.39-5.03,0.8-7.62,1.22 c0.75-0.63,1.47-1.22,2.17-1.82c0.44-0.38,0.85-0.79,1.3-1.16c1.74-1.43,1.89-3,2.34-5.1c0.28-1.28,1.14-2.96,1.46-4.23 c0.06,0,0.13-0.01,0.19-0.01c0.13,0.71,0.35,1.42,0.39,2.14c0.12,2.78,0.17,5.56,0.25,8.33C28.82,41.42,28.73,41.63,28.32,41.69z M38.57,30.2c-0.24,0.77-0.53,1.51-0.89,2.24c-0.5,1.02-1.11,1.99-1.84,2.93c-0.03,0.04-0.06,0.07-0.08,0.11 c-0.38,0.51-0.69,1.05-1.04,1.58c-0.07,0.1-0.14,0.19-0.26,0.27c-0.49,0.31-0.62,0.29-0.88-0.16c-0.66-1.2-1.47-2.33-2.13-3.53 c-0.23-0.41-0.51-0.8-0.78-1.2c-0.2-0.3-0.4-0.61-0.57-0.93c-0.04-0.07-0.06-0.15-0.09-0.22c-0.2-0.51-0.18-1.05-0.18-1.57 c0-0.41,0.33-0.66,0.85-0.69c1.67-0.1,2.68,0.7,3.48,1.73c0.24,0.31,0.36,0.29,0.53,0.02c0.28-0.43,0.62-0.8,1.06-1.11 c0.17-0.12,0.35-0.23,0.55-0.34c0.69-0.36,1.55-0.3,2.05,0.15C38.59,29.7,38.66,29.93,38.57,30.2z M41.49,41.9 c-0.53-0.09-1.08-0.12-1.6-0.24c-0.18-0.04-0.44-0.28-0.44-0.44c-0.05-3.44-0.13-6.89,0.56-10.29c0.03-0.15,0.09-0.3,0.14-0.44 c0.04,0,0.08,0,0.11,0c0.23,0.93,0.46,1.86,0.69,2.79c0.21,0.84,0.46,1.68,0.63,2.53c0.31,1.57,1.12,2.84,2.28,3.9 c3.96,2.5,3.43,2.98,3.77,3.24C45.48,42.59,43.49,42.24,41.49,41.9z"/>
</svg>
