<?xml version="1.0" encoding="utf-8"?>
<!-- Generator: Adobe Illustrator 24.0.2, SVG Export Plug-In . SVG Version: 6.00 Build 0)  -->
<svg version="1.0" id="Calque_1" xmlns="http://www.w3.org/2000/svg" xmlns:xlink="http://www.w3.org/1999/xlink" x="0px" y="0px"
	 viewBox="0 0 67.41 65.72" style="enable-background:new 0 0 67.41 65.72;" xml:space="preserve">
<style type="text/css">
	.st0{fill:#06AEC4;}
	.st1{fill-rule:evenodd;clip-rule:evenodd;fill:#016A72;}
	.st2{fill:#FFFFFF;}
</style>
<g>
	<path class="st0" d="M42.27,3.85c22.57,4.03,25.23,20.12,22.17,36.94c-2.69,14.78-21.5,27.54-40.98,21.5S1.96,40.12,1.96,33.4
		S4.65-2.87,42.27,3.85z"/>
	<path class="st1" d="M40.13,63.15c12.5-2.53,22.41-11.94,24.3-22.35c0.55-3.05,0.92-6.08,1.01-9.01l-12.7-13.39L43.6,38.65
		L31.09,54.95L40.13,63.15z"/>
	<g>
		<g>
			<path class="st2" d="M60.08,37.78L60.08,37.78L60.08,37.78L60.08,37.78C60.09,37.78,60.08,37.78,60.08,37.78
				C60.09,37.77,60.09,37.77,60.08,37.78C60.09,37.77,60.09,37.78,60.08,37.78L60.08,37.78z"/>
			<path class="st2" d="M60.09,37.79L60.09,37.79L60.09,37.79C60.09,37.78,60.1,37.78,60.09,37.79c0.01-0.01,0.01-0.02,0-0.02
				c0,0,0,0,0,0c0,0,0,0,0,0C60.09,37.78,60.09,37.78,60.09,37.79z"/>
			<path class="st2" d="M52.11,18.09c-2.28-2.08-6.22-2.34-9.4-0.69c-0.91,0.47-1.75,0.99-2.53,1.55c-1.99,1.43-3.58,3.13-4.85,5.09
				c-0.81,1.24-1.36,1.33-2.45-0.08c-3.67-4.73-8.3-8.42-15.99-7.97c-2.36,0.14-3.89,1.27-3.89,3.17c0,2.42-0.12,4.86,0.82,7.22
				c0.14,0.34,0.25,0.68,0.42,1.01c0.75,1.47,1.66,2.87,2.6,4.25c1.24,1.83,2.53,3.63,3.58,5.51c3.05,5.5,6.77,10.72,9.79,16.22
				c1.16,2.11,1.79,2.17,4.02,0.75c0.54-0.35,0.88-0.77,1.19-1.24c1.58-2.43,3.02-4.93,4.77-7.28c0.13-0.17,0.26-0.34,0.39-0.51
				c3.36-4.31,6.17-8.79,8.45-13.46c1.63-3.33,2.99-6.75,4.07-10.27C53.49,20.09,53.16,19.05,52.11,18.09z M42.35,37.24
				c-0.34,0.06-0.68,0.12-1.02,0.17c-0.17,0.02-0.34,0.04-0.51,0.06c-0.09,0.01-0.18,0.01-0.26,0.02c-0.08,0.01-0.23,0-0.36,0
				c-0.41-0.02-0.8-0.18-1.13-0.45c-0.16-0.13-0.32-0.3-0.44-0.46c-0.11-0.13-0.2-0.26-0.29-0.38c-0.09-0.13-0.16-0.24-0.24-0.36
				L38,35.65c-0.02-0.04-0.02-0.02-0.03-0.03l-0.02-0.01c-0.04-0.02-0.08-0.03-0.11-0.03c-0.05,0-0.1,0.05-0.1,0.1
				c0,0.02,0,0.04,0,0.04l0,0l0,0c0,0,0,0-0.02,0.04c-0.07,0.13-0.15,0.27-0.22,0.41c-0.25,0.46-0.61,1.15-1.1,2.14
				c-0.13,0.25-0.26,0.51-0.4,0.79c-0.27,0.52-0.59,1.14-0.95,1.69c-0.36,0.56-0.78,1.02-1.21,1.21c-0.22,0.07-0.42,0.1-0.68,0.16
				c-0.03,0.01-0.07,0-0.11,0l-0.06,0c-0.02-0.03-0.04-0.01-0.06-0.02c-0.07-0.01-0.14-0.02-0.21-0.03
				c-0.13-0.02-0.23-0.07-0.34-0.12c-0.22-0.1-0.47-0.3-0.71-0.63c-0.24-0.34-0.44-0.82-0.6-1.27c-0.16-0.45-0.29-0.88-0.38-1.18
				c-0.07-0.24-0.12-0.39-0.12-0.39s-0.13-0.45-0.29-1c-0.15-0.54-0.33-1.17-0.43-1.55c-0.17-0.61-0.32-1.14-0.46-1.59
				c-0.02-0.06-0.03-0.11-0.05-0.17l-0.02-0.08l0,0l0,0l0,0c0,0,0,0,0,0c0-0.01-0.01-0.09-0.09-0.06c-0.01,0.01-0.02,0-0.04,0.03
				c-0.04,0.1-0.09,0.2-0.13,0.31c-0.09,0.21-0.17,0.41-0.26,0.61c-0.09,0.2-0.18,0.41-0.28,0.61l-0.16,0.31l-0.19,0.36
				c-0.17,0.32-0.37,0.6-0.65,0.8c-0.06,0.05-0.15,0.08-0.22,0.12c-0.07,0.04-0.15,0.07-0.23,0.09c-0.08,0.03-0.16,0.05-0.24,0.07
				l-0.25,0.04c-0.08,0.01-0.16,0.03-0.24,0.03l-0.19,0c-0.12,0-0.24,0-0.35-0.01c-0.23-0.01-0.45-0.04-0.67-0.07
				c-0.88-0.13-1.74-0.34-2.67-0.61c0.94-0.19,1.8-0.4,2.59-0.62c0.2-0.06,0.39-0.11,0.57-0.18c0.09-0.03,0.18-0.06,0.26-0.1
				c0.04-0.02,0.09-0.03,0.11-0.05c0.03-0.01,0.04-0.03,0.06-0.04c0.07-0.05,0.12-0.11,0.16-0.18c0.03-0.08,0.02-0.16,0.02-0.22
				c0-0.01,0-0.02,0-0.02l0.01-0.06l0.03-0.13l0.06-0.28c0.04-0.2,0.08-0.4,0.12-0.61c0.04-0.21,0.09-0.43,0.14-0.65
				c0.03-0.11,0.05-0.22,0.08-0.34c0.05-0.19,0.12-0.41,0.18-0.63c0.14-0.42,0.28-0.87,0.47-1.26c0.19-0.4,0.41-0.76,0.66-1.02
				c0.25-0.27,0.52-0.45,0.82-0.56c0.16-0.06,0.33-0.08,0.53-0.1c0.1-0.02,0.2,0,0.3,0.01c0.09,0.01,0.18,0.02,0.26,0.04
				c0.22,0.06,0.44,0.16,0.7,0.39c0.26,0.23,0.56,0.62,0.83,1.24c0.14,0.31,0.28,0.67,0.42,1.06c0.07,0.2,0.14,0.41,0.21,0.62
				c0.04,0.14,0.09,0.28,0.14,0.43c0.15,0.48,0.31,1.03,0.48,1.65c0.21,0.75,0.7,2.51,0.7,2.51s0.01,0.02,0.02,0.06
				c0,0.01,0,0.01,0.01,0.02c0,0,0,0,0,0c0,0,0,0,0,0c0.14-0.27,0.27-0.53,0.39-0.77c0.49-0.98,0.87-1.72,1.16-2.23
				c0.09-0.16,0.18-0.31,0.27-0.46l0.1-0.17l0.13-0.2c0.09-0.14,0.17-0.27,0.26-0.39c0.36-0.51,0.76-0.93,1.18-1.13
				c0.21-0.11,0.42-0.15,0.65-0.17l0.18-0.02c0.06-0.01,0.12,0.01,0.18,0.01c0.12,0.01,0.23,0.03,0.34,0.06
				c0.44,0.13,0.79,0.39,1.09,0.74c0.3,0.36,0.52,0.82,0.71,1.26l0.07,0.17c0.02,0.05,0.05,0.12,0.06,0.14l0.06,0.18
				c0.04,0.11,0.07,0.22,0.11,0.32c0.03,0.1,0.07,0.19,0.1,0.27c0.01,0.05,0.01,0.08,0.02,0.13c0.02,0.08,0.08,0.17,0.16,0.22
				c0.03,0.02,0.04,0.04,0.12,0.06l0.22,0.07c0.15,0.04,0.31,0.09,0.46,0.13c0.32,0.08,0.64,0.17,0.96,0.26
				c0.66,0.17,1.35,0.35,2.08,0.54C43.73,36.96,43.04,37.11,42.35,37.24z"/>
		</g>
	</g>
</g>
</svg>
