<?xml version="1.0" encoding="utf-8"?>
<!-- Generator: Adobe Illustrator 25.0.0, SVG Export Plug-In . SVG Version: 6.00 Build 0)  -->
<svg version="1.1" id="Calque_1" xmlns="http://www.w3.org/2000/svg" xmlns:xlink="http://www.w3.org/1999/xlink" x="0px" y="0px"
	 viewBox="0 0 53.5 52.1" style="enable-background:new 0 0 53.5 52.1;" xml:space="preserve">
<path style="fill:#EA4E70;" d="M27.3,52.1c-1.8-0.1-3.6-0.6-5.1-1.6c-1.3-0.8-2.4-2.4-4-3.6c-1.3-1-2.6-2.3-3.9-3.6s-2.3-2.6-3.5-4
	c-1.2-1.4-3-2.1-4-3.5S5.3,32.5,4.4,31s-2.2-2.9-2.8-4.5c-0.7-1.7-1.2-3.4-1.5-5.1c-0.1-1.8,0-3.6,0.4-5.4c0.2-1.8,0.7-3.5,1.5-5.1
	c1-1.6,2.2-3.1,3.7-4.3c1.2-1.4,2.8-2.5,4.5-3.1C12,3,13.9,3,15.6,3.6c1.9,0.5,4,0.7,5.5,1.8c2.6,1.8,1.2,3.4,4.1,3.6
	c2.4,0.2,0.7-1.6,2.6-3.6c1.3-1.1,2.6-2.1,4.1-2.9c1.4-0.8,3-1.3,4.6-1.6C38,0.6,39.6-0.3,41.3,0c1.6,0.5,3.1,1.3,4.4,2.3
	c1.2,0.8,2.1,2.2,3.4,3.4s3,2.2,3.6,3.8c0.5,1.7,0.8,3.5,0.7,5.3c0,1.7-0.8,3.3-1.3,5.1c-0.4,1.7-0.9,3.4-1.5,5
	c-0.7,1.6-0.9,3.4-1.8,5s-2,2.9-3,4.4s-2.1,2.8-3.2,4.2s-2.5,2.6-3.6,3.8s-2.1,3-3.2,4.2c-1.3,1.2-2.7,2.2-4.1,3.2
	C29.8,51.2,28.3,52.1,27.3,52.1z"/>
<path style="opacity:0.5;fill:#FFFFFF;enable-background:new;" d="M45.1,35.4l-0.5-0.6L44,33.9l-0.9-1.2l-0.3-0.5c-0.3-0.5-0.7-0.9-1-1.4c0-0.1-0.1-0.1-0.1-0.2l-1-1.5l0,0
	L40,28.3c-0.1-0.1-0.2-0.3-0.3-0.4l0,0c-0.8-1.2-1.7-2.4-2.3-3.4C27.9,9.8,25.7,11.2,27.3,19c0.3,1.4,0.7,2.8,1.2,4.1l0,0
	c0,0.1,0.1,0.2,0.1,0.3c0.1,0.4,0.3,0.7,0.4,1.1l0,0.1l0,0c0.1,0.4,0.3,0.7,0.5,1.1s0.3,0.7,0.5,1.1c0.1,0.2,0.2,0.3,0.3,0.5
	s0.3,0.6,0.5,0.9l0.3,0.5c0.2,0.4,0.5,0.8,0.8,1.3l0,0c4.2,6.6,5.2,8.6,8.4,7.6c0.4,0.5,1,1.2,1.5,1.9c0.3-0.3,0.6-0.7,0.8-1
	C43.5,37.4,44.3,36.4,45.1,35.4z"/>
<path style="opacity:0.5;fill:#FFFFFF;enable-background:new;" d="M18.2,46.9c0.3-3.1,0.6-5.6,0.8-6.5c0,0,3.2,1.1,3.9-2.1s1.5-15.5,1.1-16.7s-2.6,9.3-3.1,13.2
	c-0.2,1.4-1,0.9-0.8-0.6s1.3-10,1.4-11.7s-0.4-1.4-1.3,2.4s-2,8.8-2.4,9.7s-0.8,0.2-0.5-1.2s1.5-9.7,1.7-11.4s-0.9-0.6-1.3,0.9
	s-1.8,9.4-2.3,11.5s-1.3,0.7-1-1.5s1.5-11.4,1.8-12.6c0.2-0.7-2.3,1.9-3.4,9c-1.1,7.1-0.2,10.4,2.3,10.5c0,0-0.2,1.4-0.5,3.6
	C15.8,44.7,17,45.9,18.2,46.9z"/>
</svg>
