<?xml version="1.0" encoding="utf-8"?>
<!-- Generator: Adobe Illustrator 24.1.1, SVG Export Plug-In . SVG Version: 6.00 Build 0)  -->
<svg version="1.1" id="Layer_2" xmlns="http://www.w3.org/2000/svg" xmlns:xlink="http://www.w3.org/1999/xlink" x="0px" y="0px"
	 viewBox="0 0 111.63 383.72" style="enable-background:new 0 0 111.63 383.72;" xml:space="preserve">
<path d="M83.92,368.17c-2.14,0-4.37-0.32-6.62-0.97c-15.01-4.33-27.13-20.86-32.44-44.21c-6.93-30.5-7.33-42.79-8.11-67.27
	c-0.18-5.69-0.39-12.15-0.7-19.67c-0.51-12.27-3.68-21.27-9.16-26.05c-4.01-3.49-8.41-4.04-10.4-4.08
	c-1.32,0.14-2.25,0.07-2.63,0.03c-3.53-0.39-6.2-3.36-6.23-6.91c-0.02-3.55,2.61-6.55,6.13-6.99c0.23-0.03,0.81-0.09,1.66-0.12
	c2-0.47,10.15-3.74,15.81-26.39c5.09-20.35,2.35-32.38-2.19-52.32c-2.37-10.42-5.32-23.38-7.65-40.29
	c-3.87-28.04,6.97-44.61,16.74-53.56C48.68,9.68,60.25,6.74,60.73,6.62c3.75-0.93,7.55,1.36,8.47,5.12
	c0.93,3.75-1.35,7.53-5.09,8.47c-1.56,0.4-34.55,9.49-28.85,50.8c2.25,16.32,5.01,28.42,7.44,39.1c4.66,20.45,8.02,35.23,2.12,58.82
	c-3.39,13.54-7.98,22.16-12.6,27.64c1.18,0.74,2.36,1.6,3.53,2.59c8.79,7.44,13.59,19.65,14.29,36.31
	c0.32,7.59,0.52,14.08,0.71,19.81c0.78,24.33,1.13,35.43,7.77,64.62c4.91,21.58,15.28,31.73,22.67,33.86
	c2.48,0.71,4.65,0.53,5.67-0.49c2.73-2.73,7.17-2.73,9.9,0c2.73,2.73,2.73,7.17,0,9.9C93.46,366.44,88.92,368.17,83.92,368.17z"/>
</svg>
