<?xml version="1.0" encoding="utf-8"?>
<!-- Generator: Adobe Illustrator 24.0.2, SVG Export Plug-In . SVG Version: 6.00 Build 0)  -->
<svg version="1.1" id="Calque_1" xmlns="http://www.w3.org/2000/svg" xmlns:xlink="http://www.w3.org/1999/xlink" x="0px" y="0px"
	 viewBox="0 0 67.41 65.72" style="enable-background:new 0 0 67.41 65.72;" xml:space="preserve">
<style type="text/css">
	.st0{fill:#48B7B5;}
	.st1{fill:#29807E;}
	.st2{fill:none;}
	.st3{fill:#FFFFFF;}
</style>
<path class="st0" d="M26.37,60.9C4.36,56.97,1.77,41.28,4.75,24.87C7.37,10.45,25.72-1.99,44.72,3.9s20.97,21.62,20.97,28.17
	S63.06,67.46,26.37,60.9z"/>
<path class="st1" d="M65.59,34.45L48.65,16.5l-1.43,1.52c4.38,3.49,7.18,8.86,7.18,14.89c0,10.51-8.52,19.02-19.02,19.02
	c-5.6,0-10.63-2.42-14.11-6.26l-1.65,1.75l14.51,14.36C60.46,63.04,64.95,42.94,65.59,34.45z"/>
<g>
	<path class="st2" d="M32.16,21.09c-0.01,0.01-0.02,0.02-0.03,0.04C32.11,21.19,32.14,21.14,32.16,21.09z"/>
	<path class="st2" d="M31.86,18.6c-0.03,0.47-0.03,0.92-0.02,1.39c0.01,0.31-0.06,0.76,0.13,0.91c0.37,0.29,1.09-0.12,1.1-0.19
		c0.04-0.2,0.05-0.57,0.05-0.87c0-0.33-0.02-0.67,0.01-1.01c0.01-0.16,0.05-0.33,0.11-0.48c0.04-0.09,0.09-0.64,0.42-0.51
		c0.76,0.3,1.21,1.09,1.67,1.73c0.28,0.39,0.67,1.03,1.17,1.13c0.41,0.08,0.6-0.12,0.74-0.41c0.15-0.31,0.22-0.9,0.27-1.25
		c0.1-0.81,0.11-1.62,0.13-2.43c0.01-0.34,0.15-1.54-0.37-1.6c-0.52-0.06-0.69,0.88-0.77,1.29c-0.08,0.42-0.15,0.76-0.25,1.18
		c-0.05,0.21-0.09,0.41-0.16,0.61c-0.01,0.14-0.05,0.27-0.11,0.41c-0.14,0.29-1.32-1.57-1.55-2.03c-0.19-0.38-0.4-0.75-0.61-1.12
		c-0.16-0.27-1.14-0.28-1.55-0.08c-0.35,0.17-0.4,1.03-0.42,1.38c-0.02,0.32-0.05,0.64-0.07,0.95
		C31.88,17.92,31.88,18.25,31.86,18.6z"/>
	<path class="st2" d="M23.1,29.84c-0.54-0.56-1.27-0.92-2.04-1.02c-0.39-0.05-0.79-0.04-1.17,0.03c-0.37,0.07-0.75,0.21-1.04,0.45
		c-0.04,0.03-0.08,0.06-0.11,0.1c-0.6,0.35-1.07,0.91-1.4,1.51c-0.19,0.34-0.34,0.71-0.39,1.09c-0.06,0.39-0.02,0.78,0.07,1.16
		c0.09,0.38,0.24,0.75,0.42,1.1c0.16,0.31,0.36,0.61,0.6,0.87c0.47,0.49,1.13,0.79,1.79,0.92c0.77,0.15,1.58,0.03,2.28-0.32
		c0.66-0.33,1.23-0.87,1.61-1.5c0.2-0.33,0.34-0.7,0.41-1.08c0.07-0.42,0.06-0.85-0.01-1.28C23.98,31.13,23.63,30.39,23.1,29.84z
		 M22.38,33.17c-0.15,0.37-0.42,0.68-0.74,0.9c-0.2,0.14-0.43,0.24-0.66,0.3c-0.23,0.06-0.45,0.06-0.62,0.05c0,0,0,0,0,0
		c-0.07-0.01-0.13-0.02-0.2-0.03c-0.1-0.02-0.17-0.04-0.17-0.04s0,0,0,0c-0.22-0.06-0.43-0.16-0.6-0.29
		c-0.31-0.22-0.51-0.58-0.65-0.93c-0.06-0.16-0.11-0.33-0.14-0.51c-0.02-0.13-0.04-0.33,0.02-0.52c0.02-0.07,0.03-0.14,0.06-0.2
		c0.07-0.2,0.18-0.39,0.31-0.57c0.13-0.18,0.28-0.33,0.43-0.48c0.01-0.01,0.03-0.03,0.04-0.04c0.01-0.01,0.02-0.01,0.03-0.02
		c0.04-0.03,0.09-0.06,0.13-0.08c0.09-0.05,0.19-0.09,0.29-0.12c0.21-0.07,0.41-0.1,0.62-0.11c0.02,0,0.04,0,0.07,0
		c0.11,0,0.2,0.01,0.26,0.02c0,0,0,0,0,0c0,0,0,0,0,0c0.05,0.01,0.09,0.02,0.1,0.02c0.27,0.05,0.53,0.16,0.76,0.33
		c0.32,0.24,0.56,0.61,0.69,0.99C22.54,32.28,22.55,32.75,22.38,33.17z"/>
	<path class="st2" d="M32.16,21.09c-0.01,0.01-0.02,0.02-0.03,0.04C32.11,21.19,32.14,21.14,32.16,21.09z"/>
	<path class="st2" d="M31.86,18.6c-0.03,0.47-0.03,0.92-0.02,1.39c0.01,0.31-0.06,0.76,0.13,0.91c0.37,0.29,1.09-0.12,1.1-0.19
		c0.04-0.2,0.05-0.57,0.05-0.87c0-0.33-0.02-0.67,0.01-1.01c0.01-0.16,0.05-0.33,0.11-0.48c0.04-0.09,0.09-0.64,0.42-0.51
		c0.76,0.3,1.21,1.09,1.67,1.73c0.28,0.39,0.67,1.03,1.17,1.13c0.41,0.08,0.6-0.12,0.74-0.41c0.15-0.31,0.22-0.9,0.27-1.25
		c0.1-0.81,0.11-1.62,0.13-2.43c0.01-0.34,0.15-1.54-0.37-1.6c-0.52-0.06-0.69,0.88-0.77,1.29c-0.08,0.42-0.15,0.76-0.25,1.18
		c-0.05,0.21-0.09,0.41-0.16,0.61c-0.01,0.14-0.05,0.27-0.11,0.41c-0.14,0.29-1.32-1.57-1.55-2.03c-0.19-0.38-0.4-0.75-0.61-1.12
		c-0.16-0.27-1.14-0.28-1.55-0.08c-0.35,0.17-0.4,1.03-0.42,1.38c-0.02,0.32-0.05,0.64-0.07,0.95
		C31.88,17.92,31.88,18.25,31.86,18.6z"/>
	<path class="st2" d="M44.56,39.52c-0.36-0.77-0.72-1.55-1.08-2.32c-0.9-1.94-1.81-3.87-2.72-5.81c-0.14-0.3-0.28-0.6-0.43-0.9
		c-0.03-0.06-0.06-0.13-0.09-0.19c-0.07-0.14-0.14-0.28-0.22-0.42c-0.01-0.02-0.02-0.04-0.03-0.05c0-0.08-0.01-0.15-0.03-0.23
		c0.04-0.28-0.02-0.58-0.17-0.83c0.01,0.01,0.01,0.01,0.02,0.02c-0.02-0.03-0.04-0.06-0.07-0.09c-0.03-0.04-0.06-0.08-0.1-0.12
		c0,0,0-0.01-0.01-0.01c0,0,0,0,0,0c-0.43-0.48-1.1-0.74-1.66-1.04c-1.08-0.58-2.17-1.16-3.27-1.73c-2.39-1.25-4.77-2.57-7.27-3.62
		c-0.38-0.16-0.76-0.35-1.17-0.45c-0.37-0.09-0.7-0.17-0.98-0.08c-0.29,0.09-0.39,0.35-0.29,0.62c0.03,0.09,0.09,0.17,0.14,0.26
		c0,0.27,0.05,0.53,0.11,0.8c0.17,0.81,0.45,1.6,0.75,2.37c0.73,1.92,1.47,3.84,2.25,5.74c0.62,1.5,1.2,3.03,1.93,4.49
		c0.27,0.54,0.56,1.04,1.21,1.17c0.23,0.17,0.5,0.32,0.74,0.47c0.95,0.56,1.93,1.07,2.9,1.59c2.02,1.08,4.07,2.12,6.13,3.12
		c1.17,0.57,2.35,1.1,3.55,1.59c0.67,0.28,1.48-0.47,1.27-1.15C45.61,41.58,45.05,40.58,44.56,39.52z M42.9,40.87
		c-0.05-0.02-0.11-0.05-0.16-0.07c0.04,0.02,0.05,0.02-0.06-0.03c0,0,0,0,0,0c-0.01,0-0.02-0.01-0.03-0.01c0,0,0.01,0,0.02,0.01
		c-0.08-0.04-0.16-0.07-0.24-0.11c-0.87-0.42-1.74-0.84-2.61-1.27c-2.16-1.06-4.34-2.07-6.54-3.05c0.3-0.28,0.59-0.59,0.87-0.84
		c1.55-1.4,3.13-2.76,4.67-4.16c0.09,0.17,0.18,0.33,0.26,0.5c0.39,0.83,0.79,1.67,1.18,2.5c0.89,1.89,1.77,3.78,2.65,5.68
		c0.12,0.25,0.23,0.5,0.35,0.75c0.05,0.11,0.11,0.22,0.16,0.34C43.24,41.02,43.07,40.94,42.9,40.87z"/>
	<path class="st2" d="M23.1,29.84c-0.54-0.56-1.27-0.92-2.04-1.02c-0.39-0.05-0.79-0.04-1.17,0.03c-0.37,0.07-0.75,0.21-1.04,0.45
		c-0.04,0.03-0.08,0.06-0.11,0.1c-0.6,0.35-1.07,0.91-1.4,1.51c-0.19,0.34-0.34,0.71-0.39,1.09c-0.06,0.39-0.02,0.78,0.07,1.16
		c0.09,0.38,0.24,0.75,0.42,1.1c0.16,0.31,0.36,0.61,0.6,0.87c0.47,0.49,1.13,0.79,1.79,0.92c0.77,0.15,1.58,0.03,2.28-0.32
		c0.66-0.33,1.23-0.87,1.61-1.5c0.2-0.33,0.34-0.7,0.41-1.08c0.07-0.42,0.06-0.85-0.01-1.28C23.98,31.13,23.63,30.39,23.1,29.84z
		 M22.38,33.17c-0.15,0.37-0.42,0.68-0.74,0.9c-0.2,0.14-0.43,0.24-0.66,0.3c-0.23,0.06-0.45,0.06-0.62,0.05c0,0,0,0,0,0
		c-0.07-0.01-0.13-0.02-0.2-0.03c-0.1-0.02-0.17-0.04-0.17-0.04s0,0,0,0c-0.22-0.06-0.43-0.16-0.6-0.29
		c-0.31-0.22-0.51-0.58-0.65-0.93c-0.06-0.16-0.11-0.33-0.14-0.51c-0.02-0.13-0.04-0.33,0.02-0.52c0.02-0.07,0.03-0.14,0.06-0.2
		c0.07-0.2,0.18-0.39,0.31-0.57c0.13-0.18,0.28-0.33,0.43-0.48c0.01-0.01,0.03-0.03,0.04-0.04c0.01-0.01,0.02-0.01,0.03-0.02
		c0.04-0.03,0.09-0.06,0.13-0.08c0.09-0.05,0.19-0.09,0.29-0.12c0.21-0.07,0.41-0.1,0.62-0.11c0.02,0,0.04,0,0.07,0
		c0.11,0,0.2,0.01,0.26,0.02c0,0,0,0,0,0c0,0,0,0,0,0c0.05,0.01,0.09,0.02,0.1,0.02c0.27,0.05,0.53,0.16,0.76,0.33
		c0.32,0.24,0.56,0.61,0.69,0.99C22.54,32.28,22.55,32.75,22.38,33.17z"/>
	<path class="st3" d="M21.71,30.86c-0.23-0.17-0.49-0.28-0.76-0.33c-0.01,0-0.05-0.01-0.1-0.02c0,0,0,0,0,0c0,0,0,0,0,0
		c-0.06-0.01-0.14-0.02-0.26-0.02c-0.03,0-0.05,0-0.07,0c-0.22,0-0.42,0.04-0.62,0.11c-0.1,0.03-0.2,0.07-0.29,0.12
		c-0.05,0.03-0.09,0.06-0.13,0.08c-0.01,0.01-0.02,0.01-0.03,0.02c-0.01,0.01-0.03,0.03-0.04,0.04c-0.15,0.15-0.31,0.3-0.43,0.48
		c-0.12,0.17-0.23,0.36-0.31,0.57c-0.02,0.07-0.04,0.13-0.06,0.2c-0.06,0.19-0.04,0.39-0.02,0.52c0.02,0.17,0.08,0.34,0.14,0.51
		c0.13,0.35,0.34,0.71,0.65,0.93c0.18,0.13,0.39,0.23,0.6,0.29c0,0,0,0,0,0s0.06,0.02,0.17,0.04c0.07,0.01,0.13,0.02,0.2,0.03
		c0,0,0,0,0,0c0.18,0.02,0.4,0.01,0.62-0.05c0.24-0.06,0.46-0.16,0.66-0.3c0.32-0.23,0.6-0.54,0.74-0.9
		c0.17-0.42,0.16-0.9,0.02-1.32C22.27,31.47,22.03,31.1,21.71,30.86z"/>
	<path class="st3" d="M42.9,40.01c-0.88-1.89-1.77-3.78-2.65-5.68c-0.39-0.83-0.78-1.67-1.18-2.5c-0.08-0.17-0.17-0.33-0.26-0.5
		c-1.54,1.41-3.12,2.77-4.67,4.16c-0.28,0.25-0.56,0.56-0.87,0.84c2.19,0.98,4.38,1.99,6.54,3.05c0.87,0.43,1.74,0.85,2.61,1.27
		c0.08,0.04,0.16,0.07,0.24,0.11c-0.01,0-0.01,0-0.02-0.01c0.01,0,0.02,0.01,0.03,0.01c0,0,0,0,0,0c0.11,0.05,0.11,0.05,0.06,0.03
		c0.05,0.02,0.11,0.05,0.16,0.07c0.17,0.07,0.34,0.15,0.5,0.22c-0.05-0.11-0.1-0.22-0.16-0.34C43.13,40.51,43.02,40.26,42.9,40.01z"
		/>
	<polygon class="st3" points="50.78,30.83 50.77,30.84 50.78,30.84 	"/>
	<path class="st3" d="M50.6,35.5C50.6,35.5,50.6,35.5,50.6,35.5C50.71,35.48,50.59,35.37,50.6,35.5z"/>
	<path class="st3" d="M55.28,29.41c-0.77-4.36-2.82-8.62-5.88-11.83c-3.12-3.27-7.37-5.34-11.84-5.91
		c-2.25-0.29-4.56-0.23-6.79,0.19c-2.13,0.4-4.37,1.21-6.07,2.59c-0.22,0.18-0.44,0.37-0.65,0.57c-3.47,2.04-6.19,5.31-8.15,8.79
		c-1.1,1.97-1.96,4.11-2.29,6.35c-0.33,2.25-0.12,4.52,0.42,6.72c0.54,2.21,1.4,4.36,2.46,6.37c0.95,1.81,2.07,3.57,3.51,5.04
		c2.76,2.82,6.57,4.57,10.41,5.32c4.48,0.87,9.15,0.19,13.23-1.83c3.82-1.89,7.16-5.05,9.34-8.71c1.14-1.92,1.97-4.05,2.36-6.25
		C55.78,34.36,55.71,31.87,55.28,29.41z M24.13,33.15c-0.07,0.38-0.21,0.75-0.41,1.08c-0.37,0.63-0.95,1.17-1.61,1.5
		c-0.7,0.35-1.51,0.46-2.28,0.32c-0.66-0.13-1.32-0.43-1.79-0.92c-0.25-0.25-0.44-0.56-0.6-0.87c-0.18-0.35-0.33-0.72-0.42-1.1
		c-0.09-0.38-0.13-0.77-0.07-1.16c0.06-0.39,0.2-0.75,0.39-1.09c0.34-0.6,0.81-1.16,1.4-1.51c0.04-0.03,0.07-0.07,0.11-0.1
		c0.29-0.24,0.68-0.38,1.04-0.45c0.38-0.07,0.78-0.08,1.17-0.03c0.77,0.1,1.5,0.45,2.04,1.02c0.53,0.55,0.88,1.29,1.01,2.04
		C24.19,32.3,24.2,32.73,24.13,33.15z M31.87,16.65c0.02-0.35,0.07-1.21,0.42-1.38c0.41-0.2,1.39-0.19,1.55,0.08
		c0.21,0.37,0.38,0.76,0.61,1.12c0.4,0.63,1.57,2.35,1.67,1.62c0.06-0.2,0.21-1.33,0.21-1.76c0-0.61,0.1-1.35,0.96-1.31
		c0.67,0.03,0.53,1.28,0.52,1.62c-0.02,0.81-0.09,1.61-0.19,2.42c-0.04,0.34-0.12,0.93-0.27,1.25c-0.14,0.29-0.42,0.49-0.83,0.41
		c-0.51-0.09-1.02-0.68-1.3-1.06c-0.46-0.64-1.24-1.57-1.54-1.8c-0.28-0.22-0.38,0.42-0.42,0.51c-0.06,0.15-0.1,0.32-0.11,0.48
		c-0.03,0.33-0.01,0.67-0.01,1.01c0,0.3-0.01,0.67-0.05,0.87c-0.02,0.07-0.74,0.48-1.1,0.19c-0.19-0.15-0.13-0.6-0.13-0.91
		c-0.01-0.47-0.01-0.92,0.02-1.39c0.02-0.35,0.02-0.69-0.06-1C31.82,17.28,31.85,16.97,31.87,16.65z M32.16,21.09
		c-0.02,0.05-0.05,0.1-0.03,0.04C32.14,21.11,32.15,21.1,32.16,21.09z M36.42,46.36c-0.48-0.27-1.24-0.44-2.03-0.29
		c-0.79,0.15-0.69,0.66-0.42,0.96c0.26,0.29,1.22,0.49,2.11,0.98c0.46,0.25,0.67,0.55,0.75,0.78c0,0.02,0.01,0.03,0.01,0.05
		c0.02,0.09,0.04,0.17,0.05,0.25c0,0.05,0,0.07,0,0.07c-0.05,1.74-2.33,1.69-2.33,1.69l0.01,0.01c-0.55-0.03-1.12-0.19-1.52-0.38
		c-0.9-0.42-1.88-0.73-1.09-1.52c0.27-0.27,0.41-0.25,0.81-0.19c0.18,0.03,0.51,0.31,0.52,0.33c0.82,0.49,1.43,0.22,1.54,0.07
		c0.27-0.38-0.94-0.65-1.16-0.74c-0.57-0.23-1.08-0.63-1.28-1.19c-0.19-0.52-0.01-1.08,0.31-1.51c0.62-0.82,1.78-1.15,2.82-1.03
		c0.45,0.05,0.9,0.17,1.26,0.41c0.16,0.14,0.32,0.31,0.44,0.47C37.56,46.07,36.9,46.63,36.42,46.36z M44.68,43.85
		c-1.2-0.49-2.39-1.02-3.55-1.59c-2.06-1-4.11-2.04-6.13-3.12c-0.97-0.52-1.95-1.03-2.9-1.59c-0.24-0.14-0.5-0.29-0.74-0.47
		c-0.65-0.13-0.94-0.63-1.21-1.17c-0.72-1.45-1.31-2.98-1.93-4.49c-0.78-1.9-1.52-3.82-2.25-5.74c-0.29-0.77-0.58-1.56-0.75-2.37
		c-0.06-0.27-0.11-0.52-0.11-0.8c-0.06-0.08-0.11-0.17-0.14-0.26c-0.1-0.27,0-0.53,0.29-0.62c0.28-0.09,0.61-0.01,0.98,0.08
		c0.41,0.09,0.79,0.28,1.17,0.45c2.49,1.05,4.87,2.37,7.27,3.62c1.09,0.57,2.18,1.14,3.27,1.73c0.56,0.3,1.22,0.56,1.66,1.04
		c0,0,0,0,0,0c0,0,0,0.01,0.01,0.01c0.04,0.04,0.07,0.08,0.1,0.12c0.02,0.03,0.05,0.06,0.07,0.09c-0.01-0.01-0.01-0.01-0.02-0.02
		c0.15,0.25,0.21,0.55,0.17,0.83c0.02,0.08,0.03,0.15,0.03,0.23c0.01,0.02,0.02,0.04,0.03,0.05c0.08,0.14,0.15,0.28,0.22,0.42
		c0.03,0.06,0.06,0.13,0.09,0.19c0.15,0.3,0.29,0.6,0.43,0.9c0.91,1.93,1.82,3.87,2.72,5.81c0.36,0.77,0.72,1.55,1.08,2.32
		c0.49,1.05,1.05,2.06,1.39,3.17C46.16,43.38,45.35,44.13,44.68,43.85z M51.28,36.21c-0.51,0.31-1.14,0.34-1.72,0.35
		c-0.34,0-0.67,0.02-1.01,0.02c-1.19,0-1.47-0.45-1.61-1.11c-0.17-0.82-0.19-1.69-0.23-2.53c-0.04-0.77-0.34-1.08-0.19-1.85
		c0.08-0.39,0.32-0.72,0.67-0.9c0.31-0.16,0.66-0.14,1-0.13c0.58,0,1.51,0.02,1.66,0.03c0.84,0.07,1.46-0.27,1.7,0.71
		c0.22,0.9-0.79,0.75-1.51,0.88c-0.13,0.02-0.88,0.08-1.43,0.08c-0.19,0-0.01,0.84-0.05,0.85c1.51,0.05,1.86,0.06,1.95,0.64
		c0.14,0.87-1.93,0.76-2,0.83c0.2,0.03-0.18,0.92,0.32,1.01c0.85,0.15,2.56-0.1,2.75,0.17C52.01,35.85,51.89,35.83,51.28,36.21z"/>
	<path class="st3" d="M50.75,30.84c-0.01,0-0.1,0.03-0.02,0.01C50.73,30.85,50.74,30.85,50.75,30.84z"/>
	<path class="st3" d="M50.63,35.68c0.01-0.01-0.02-0.04-0.05-0.07C50.57,35.68,50.56,35.76,50.63,35.68z"/>
</g>
</svg>
