<?xml version="1.0" encoding="utf-8"?>
<!-- Generator: Adobe Illustrator 25.0.0, SVG Export Plug-In . SVG Version: 6.00 Build 0)  -->
<svg version="1.1" id="Calque_1" xmlns="http://www.w3.org/2000/svg" xmlns:xlink="http://www.w3.org/1999/xlink" x="0px" y="0px"
	 viewBox="0 0 73.2 60" style="enable-background:new 0 0 73.2 60;" xml:space="preserve">
<g>
	<path style="fill-rule:evenodd;clip-rule:evenodd;fill:#EE9C4C;" d="M50.1,38.1c-0.2-0.3-0.4-0.5-0.4-0.8c0.4,0,0.2-0.2,0.4,0.1c0.2,0.3-0.3,0.6,0,0.9c0.5,0.3,0.8-0.1,1.4-0.2
		c0-0.3,0-0.6,0.1-0.8c0.3-0.2,0.4-0.5,0.5-0.2c0.1,0.5-0.6,0.4-0.2,0.9c0.4,0.5,0.8,0.7,1.3,0.4c0.6-1.1,1-2.4,1-2
		c0.4,0.2,0.6-0.3,1-0.2c1.2,0.2,2.1-0.3,2.4-1.3c0.2-0.9-0.1-2-1.5-2.6c-0.1-0.5-0.3-2.3-2.1-2.5c-0.3,0-0.7,0.6-0.8,0.5
		c-0.2-0.1-0.4-0.6-0.7-0.7c-0.7-0.3-1.1-0.3-1.6-0.3c-2.4-0.2-1.4,0.6-2.5,0.5c-1.4-0.1-2.5,0.7-2.7,2.3c-0.6,0.3-1.1,0.3-1.5,1
		c-0.5,1-0.1,2.3,0.5,2.9c0.6,0.6,1.9,0.9,2.8,0.3c0.5,0.5,1.1,0.8,1.5,1.6C49.4,38.4,49.5,38.3,50.1,38.1z"/>
	<g>
		<g>
			<path style="fill-rule:evenodd;clip-rule:evenodd;fill:#EE9C4C;" d="M25.2,36c0.6,0,0.5,1.2,0,1.1c-0.7,0-0.6-0.8,0-0.8C25.2,36.4,25.2,36,25.2,36z M25.2,35.5
				c0.1-0.9,1.5-2.9,2.3-2.5c0.8,0.4-0.6,0.9-0.9,1.1c-0.4,0.4-0.4,1.3-0.8,1.7c-0.3,0-0.1-0.3-0.4-0.5
				C25.3,35.3,25.2,35.5,25.2,35.5z M28.1,31.8c-0.1,0.1-1.7,0.6-2.8,2.2c-0.6,0.8-1.6,1.8-1.6,3.3c0,0.5,0.4,1.1,0.5,1.6
				c1.5,0.2,1.5,0.2,3.1,0.2c1.5,0,1.5,0,3,0c1.5,0,1.5,0,3,0c1.5,0,1.6,0.2,3.1-0.3c0.2-1.1,0.1-1.9-0.3-2.9
				c-0.1-0.2,0.1-0.3,0-0.5c-0.1-0.2-0.2-0.1-0.4-0.1c-0.1,0.4-0.3,0.4-0.7,0.5c-1,0.2-0.6-1.1-1.9-2.1c-0.5,0.5-1.3,2-2,1.6
				c-0.6-0.4,0-1.8,0.1-2.4c-0.6-0.2-1.5-0.2-2,0c-1,0.3-1.1-0.1-0.5-1C28.7,31.9,28.2,31.8,28.1,31.8z"/>
		</g>
		<g>
			<path style="fill-rule:evenodd;clip-rule:evenodd;fill:#EE9C4C;" d="M29.1,31.8c-1.7,1.9,1.1,0,2.5,1c0.1,0.4,0.1,0.6,0,1c0,0.2-0.3,0.3-0.3,0.5c0,0.3,0,0.3,0.1,0.5
				c0.3,0,0,0.2,0.8-0.6c0.4-0.4,0.5-0.5,0.8-0.5c1.3,0,1.5,3.4,2.1,1.7c-0.2-0.8,0-0.6-0.5-1.5c-0.4-0.6-0.7-1-1.1-1.4
				c0.4-0.7,0.8-0.6,0.8-1.1c-0.1-0.3,0.2-0.3-0.3-0.2c-0.7,0.1-1,0.8-1.9,0.6c-1.6-0.3-1.4-0.4-2.7-0.1
				C29.1,31.8,29.1,31.8,29.1,31.8z"/>
		</g>
	</g>
	<path style="fill-rule:evenodd;clip-rule:evenodd;fill:#EE9C4C;" d="M13.9,31.8c-0.6,0.1-2.3-0.4-3.1-0.4c-2.5-0.2-1.7-0.7-1.1-1.7c2.2,0.2,2,1,4,1.9
		C13.9,31.7,13.9,31.8,13.9,31.8z M18.2,31.7c0.1-0.4,0.5-0.7,0.7-1.1c0.4-1.1,0.1-1.2-0.7-1.6c-1-0.4-2.2-1.6-3-2
		c-0.9-0.5-1.9-1.4-2.8-2c0.6-1.9,0.2-2.6-0.7-4c-0.7-1-1.5-1.4-2.5-1.5c-1-0.2-2.2-0.3-3.1,0.3c-0.8,0.6-1.2,1.6-1.6,2.8
		c-1.2,0-1.9,0.8-2.5,1.7c-0.6,0.9-1.1,2-1.1,3.1c0,1.2,0.8,2.3,1.6,2.9c-0.7,1.2-0.7,2.2-0.5,3.1c0.2,1.1,0.7,2,1.8,2.4
		c1,0.4,2-0.1,3-0.6c0.9-0.4,1.5-1,2-2.2c0.5-0.1,2.2,0.4,2.8,0.3c1.6-0.1,2.8,0.4,3.9,0.6c1.4,0.3,2.5-0.1,3.1-2.1
		C18.7,31.7,18.2,31.7,18.2,31.7z M7.1,22.1C7,22.6,6.8,22.9,7,23.2c0.3,0.5,1,0.8,1.5,1.2c-0.5,0.7-1.6,0-2.1-0.7
		c-1.4-2.1,0.3-3.2,0-1.7C6.4,22.2,7.1,22.1,7.1,22.1z M10.9,26.9c0,0.5-0.6,0.5-0.4,1c0.2,0.3,0.3,0,0.6,0.1c0.1,0-0.1,0.5,0,0.5
		c1.1,0.4,1.1,0.4,2.2,0.8c0.5,0.2,0.6,0,1.1-0.1c-0.3-0.3-3.7-2-4.3-2.2C10.1,26.8,10.9,26.9,10.9,26.9z M5,35
		c-0.8,0.7-2.3-0.5-2.6-1.1c-0.3-0.7-0.2-2.5,0.9-2.5c0,0.6-0.6,1.6-0.3,2.2c0.3,0.5,1.1,0.8,1.4,1.3C4.6,35,5,35,5,35z M4.7,29.5
		c-0.8,1-3.3-0.8-3-2.3c0.1-0.6,0.8-1.1,1.3-1c0.1,0.7-0.7,1.4-0.3,2.1C3,28.8,4.3,29,4.7,29.5z"/>
	<path style="fill-rule:evenodd;clip-rule:evenodd;fill:#EE9C4C;" d="M23.3,15.5c-0.4-0.3-1-1.4-1.8-2.5c-0.6-0.7-1.2-1.6-1.9-2.4c-0.8-1-1.2-2.1-1.6-2.6c-0.2-0.3-0.9-0.6-0.9-1
		c0.7,0.5,1.6,1.9,2.6,3.1c0.9,1.2,1.7,2.5,2.3,3.2c0.3,0.4,1.4,1.4,1.2,1.8C23.3,15.3,23.3,15.5,23.3,15.5z M21,17.4
		c-0.1-0.3-0.7-1.5-1.8-2.8c-0.7-0.8-1.4-1.8-2.1-2.6C16,10.8,15.2,9.5,15,9.4c-0.4-0.3,0,0.3-0.3,0.2c0.3,0.5,0.8,1.6,1.7,2.8
		c0.7,0.9,1.3,1.9,2.1,2.8C19.5,16.4,20.6,17.3,21,17.4C21.1,17.5,21,17.4,21,17.4z M17.1,6.2c-0.5-0.8,0.8-2,1.5-1.3
		C17.7,5,17.4,5.3,17.2,6C17.2,6.2,17.1,6.2,17.1,6.2z M14.4,8.5c-0.3-0.4,0.1-0.8,0.5-1.2c0.4-0.3,0.6-0.5,1-0.1
		c-0.8,0.1-1.5,0.4-1.7,1C14.2,8.3,14.4,8.5,14.4,8.5z M11.4,10.9c-0.5-0.8,1.1-2.1,1.8-1.5c-0.9,0.1-1.5,0.5-1.7,1.3
		C11.4,10.8,11.4,10.9,11.4,10.9z M14.4,7.3c-0.2,0.3-0.8,0.4-0.4,1.6c-1.9-0.6-3.7,0.7-3.7,2.6c0,0.4,0.4,1.7,1.4,3
		c0.6,0.8,1.8,1.2,2.6,2c0.8,0.8,1.4,1.7,2.2,2.3c1,0.7,2.1,1.4,2.9,1.4c0.9,0,1.8-0.8,2.1-2.3c0.5-0.1,0.1-0.4,0.7-0.5
		c1.4-0.2,1.4-1,1.5-1.7c0.5-0.1,1,0,1.7-0.4c1-0.6,1.4-1.7,1-3.2c-0.3-1-0.9-2.3-1.5-3.4c-0.7-1-1.8-1.8-2.6-2.6
		c-1-1-2.1-1.6-3-1.7c-1.7,0-3.2,0.8-2.8,2.5c-0.4-0.3-1-0.6-1.4-0.4c-0.3,0-0.8-0.4-1.1-0.6c0.2-0.4,0.7-1.4,0.9-1.8
		C15,3.5,15,2.9,14,2.9C13.6,3,13.9,4.6,13.9,5c0,0.3-0.5,0.7-0.4,1.1C13.6,6.7,14.4,6.8,14.4,7.3z"/>
	<g>
		<g>
			<path style="fill-rule:evenodd;clip-rule:evenodd;fill:#EE9C4C;" d="M40.9,12.6c0.4,1.5-1,2-1,3.6c0.4,0.3,2.2,0.8,3.9,1.3c1.5,0.5,4.1,1.9,4.7,2.1c0.6,0.2,1.2,0.5,1.7,0.1
				c0.5-0.4,0.5-1.1,0-1.7c-0.4-0.5-3.8-4.3-4.3-4.6c-0.8,0.5,0,0.8-0.9,1.2c0-0.7,0.2-1.5,0-1.9c-0.1-0.2-1-1.7-2.3-3.1
				C41.4,8.3,40,7,39.8,6.8c-1.2,1-1.3,2.2-2.2,1.5c-0.9-0.7,1.2-0.7,1.1-2.6c-0.9-0.6-2.3-1-3.2-0.9c-1,0.1-2.1,0.1-2.6,1
				c-0.4,0.7-1,1.5-1.4,2.2c-0.4,0.8-0.4,2.2,0.1,3.4c0.4,1.1,1.4,1.7,2.1,2.1c0.8,0.5,1.6,1.1,2.6,1.4c1.9,0.6,2.3,0.3,2.7-0.3
				C39.3,14.3,39.7,13.5,40.9,12.6z"/>
		</g>
		<g>
			<path style="fill-rule:evenodd;clip-rule:evenodd;fill:#EE9C4C;" d="M30.9,8.3c0.7-1.3,1.1-2,2-3.4c-0.1-0.3-1.8-2.9-2-3.1c-0.6,0.1-0.4,0.3-0.5,0.9c0,0.2-0.1,0.3-0.2,0.6
				c0,0.3,0.1,0.4-0.2,0.5c-0.8-0.1-2-0.4-2.7-0.2c0,0.8,1,2,1.5,2.7c0,0.3,0,0.2-0.3,0.4c-0.2,0.1-0.2,0.2-0.4,0.4
				c-0.3,0.3-0.6,0.4-0.4,1C29,9.1,29.3,8.7,30.9,8.3z"/>
		</g>
	</g>
	<g>
		<g>
			<path style="fill-rule:evenodd;clip-rule:evenodd;fill:#EE9C4C;" d="M23.1,25.1c-0.8,0.6-1.3-0.4-1.8,0.5c-0.5,0.8-0.7,1-0.3,1.9c0.4,0,1.6-0.2,2.1-0.3c0.9,1.3,2.2,1.6,3.4,2
				c1.2,0.3,2.5,0.5,3.9,0c0.5-0.2,1.7-0.6,2.5-1.3c0.8-0.7,0.8-2.2,1.1-2.6c0.3-0.4,1.3,0.1,1.4-0.4c-0.1-0.2-1.4-0.4-1.8-0.3
				c-1,0.1-2-0.1-3-0.1c-1,0-1.7,0.7-2.7,0.5c1.2,0,2.1-0.4,3.2-0.5c1.2-0.2,2.2-0.8,3.2-1.3c1.1-0.5,1.7-1.4,2.4-2.3
				c0.7-0.8,1.6-1.5,2-2.7c-0.2-0.4-1.5-0.2-3.2,0c-1.1,0.1-2.3,0.1-3.4,0.3c-1.6,0.3-3,0.5-3.4,0.6c-1.4,0.5-2.6,1.4-3.7,2.3
				C24.1,22.2,23.5,23.6,23.1,25.1z"/>
		</g>
		<g>
			<path style="fill-rule:evenodd;clip-rule:evenodd;fill:#EE9C4C;" d="M34.9,27.8c0.8,0,0.9-0.1,1.6-0.5c0.3-0.6,0.2-1.2,0.1-1.8c-0.5-0.1-1.4,0.3-1.9,0.5
				C34.6,26.7,34.6,27.4,34.9,27.8z"/>
		</g>
		<g>
			<path style="fill-rule:evenodd;clip-rule:evenodd;fill:#EE9C4C;" d="M38,22.5c-0.7-0.1-1.1-0.4-1.4,0.3c-0.4,0.9-0.1,1.1,0.3,2c0.6-0.2,0.9-0.3,1.5-0.6
				C38.3,23.7,38.3,23,38,22.5z"/>
		</g>
		<g>
			<path style="fill-rule:evenodd;clip-rule:evenodd;fill:#EE9C4C;" d="M39.9,22c-0.5,0-0.9,0.1-1.3,0.3c-0.1,0.5,0.2,1.3,0.3,1.8c0.7,0,0.8-0.1,1.3-0.5C40.2,23,40.2,22.5,39.9,22
				z"/>
		</g>
		<g>
			<path style="fill-rule:evenodd;clip-rule:evenodd;fill:#EE9C4C;" d="M37.3,27c0.5-0.2,0.6-0.2,1-0.7c0.2-0.3,0.4-0.6,0.2-1.5c-0.4,0-1.1,0.2-1.4,0.4C37,25.8,36.9,26.6,37.3,27z
				"/>
		</g>
		<g>
			<path style="fill-rule:evenodd;clip-rule:evenodd;fill:#EE9C4C;" d="M39.1,26.2c0.4,0,0.9-0.4,1-0.5c0.3-0.5,0.3-1,0.1-1.5c-0.7,0-0.8,0-1.3,0.5C38.9,25.1,38.9,25.7,39.1,26.2z
				"/>
		</g>
		<g>
			<path style="fill-rule:evenodd;clip-rule:evenodd;fill:#EE9C4C;" d="M39,19.8c-0.6,0.4-0.6,0.5-0.8,1.2c-0.1,0.4-0.2,0.7,0.3,0.9c0.7,0.2,0.7,0,1.4-0.3
				c-0.1-0.4-0.1-0.6-0.2-0.9C39.5,20.2,39.5,19.9,39,19.8z"/>
		</g>
		<g>
			<path style="fill-rule:evenodd;clip-rule:evenodd;fill:#EE9C4C;" d="M41.3,19.9c-0.5-0.1-1,0-1.5,0.1c0.2,0.5,0.3,1,0.5,1.4c0.6,0,0.9-0.1,1.2-0.4
				C41.5,20.6,41.5,20.3,41.3,19.9z"/>
		</g>
		<g>
			<path style="fill-rule:evenodd;clip-rule:evenodd;fill:#EE9C4C;" d="M41.8,21.6c-0.6-0.3-1-0.3-1.4,0.2c-0.4,0.6-0.3,1.1,0.3,1.4c0.6,0.3,0.8,0,1.3-0.5
				C42.5,22.4,42.3,21.9,41.8,21.6z"/>
		</g>
		<g>
			<path style="fill-rule:evenodd;clip-rule:evenodd;fill:#EE9C4C;" d="M35.1,25.4c0.6-0.1,0.8,0,1.4-0.4c0-0.6-0.1-1.1-0.4-1.8C35.7,23.8,35.5,24.6,35.1,25.4z"/>
		</g>
		<g>
			<path style="fill-rule:evenodd;clip-rule:evenodd;fill:#EE9C4C;" d="M40.9,24.9c0.6-0.2,1-0.5,1.3-1.1c0-0.1-0.1-0.1-0.1-0.2c-0.1-0.2,0-0.2-0.1-0.3c-0.7,0.2-0.8,0-1.3,0.5
				C40.8,24.5,40.7,24.6,40.9,24.9z"/>
		</g>
		<g>
			<path style="fill-rule:evenodd;clip-rule:evenodd;fill:#EE9C4C;" d="M39.4,18.4c-0.1,0.4,0,0.6,0.3,1.1c0.4,0.1,1,0.2,1.4-0.1C40.7,18.7,40,18.5,39.4,18.4z"/>
		</g>
		<g>
			<path style="fill-rule:evenodd;clip-rule:evenodd;fill:#EE9C4C;" d="M32.6,28.2c0.4,0,1-0.1,1.4-0.2c0.4-0.5,0.2-0.8,0.2-1.3c-0.5,0.1-0.3,0.1-0.8,0.7
				C33,27.7,32.8,27.8,32.6,28.2z"/>
		</g>
		<g>
			<path style="fill-rule:evenodd;clip-rule:evenodd;fill:#EE9C4C;" d="M43.6,21.3c-0.6-0.2-0.8-0.1-1.3,0.2c-0.1,0.4-0.3,0.7,0.1,0.9c0.4,0.3,0.5,0,1-0.3
				C43.5,21.7,43.5,21.5,43.6,21.3z"/>
		</g>
		<g>
			<path style="fill-rule:evenodd;clip-rule:evenodd;fill:#EE9C4C;" d="M41.9,20c-0.3,0.4-0.2,0.7,0.2,1c0.5,0.3,0.8,0.2,1.2-0.2C43.3,19.9,42.7,19.9,41.9,20z"/>
		</g>
		<g>
			<path style="fill-rule:evenodd;clip-rule:evenodd;fill:#EE9C4C;" d="M38,21.3c-0.2,0-0.6,0.6-0.9,0.9C37.7,22.3,38.4,22.1,38,21.3z"/>
		</g>
		<g>
			<path style="fill-rule:evenodd;clip-rule:evenodd;fill:#EE9C4C;" d="M42.5,23.4c0.4-0.1,0.6-0.4,0.7-0.7C43,22.7,42.5,22.5,42.5,23.4z"/>
		</g>
	</g>
	<path style="fill-rule:evenodd;clip-rule:evenodd;fill:#916224;" d="M62.2,40c-0.6-0.6-0.4-1.2-0.1-2c0.1-0.3,0.5,0.2,0.7,0c0.2-0.2,0.5-0.6,0.2-0.7c-1-0.3-1.1-0.1-2.1-0.1
		c-1,0-1,0.2-2,0.2c-1,0-1,0-2,0c-1,0-1,0-2,0c-1,0-1,0.4-2,0.4c-1,0-1-0.1-2-0.1c-1,0-1-0.1-2-0.1c-1,0-1-0.3-2-0.3c-1,0-1,0-2,0
		c-1,0-1,0-2,0c-1,0-1,0.4-2,0.4c-1,0-1-0.1-2-0.1c-1,0-1,0.2-2,0.2c-1,0-1,0.1-2,0.1c-1,0-1-0.5-2-0.5c-1,0-1,0.4-2,0.4
		c-1,0-1-0.4-2-0.4c-1,0-1,0.3-2,0.3c-1,0-1-0.2-2-0.2c-1,0-1,0-2,0c-1,0-1,0-2,0c-1,0-1,0.1-2,0.1c-1,0-1-0.1-2-0.1s-1.1-0.2-2,0.1
		c-0.3,0.1-0.3,0.6-0.1,0.8c0.3,0.2,0.4-0.3,0.5,0c0.3,0.8,0.7,0.9,0.1,1.4c-0.7,0.6-0.8,0.2-1.8,0.2c-1,0-1,0-1.9,0s-1.3-0.7-2-0.1
		c-0.6,0.5-0.5,1.2,0,1.8c0.6,0.8,1,0.4,1.9,0.8c1,0.3,1.1-0.1,2,0.2s1.2,0,1.8,0.8c0.6,0.8,0.3,1,0.3,2c0,1-0.2,1-0.2,2
		c0,1-0.1,1-0.1,2c0,1,0.1,1,0.1,2s0.2,1,0.2,2c0,0.7-0.3,1.6,0,2.2c0.3,0.6,0.8,1.3,1.4,1.8c0.5,0.5,1.3,0.7,2,1
		c0.7,0.2,1.4,0.3,2.2,0.3c1,0,1-0.3,2-0.3c1,0,1,0.5,2,0.5c1,0,1-0.3,2-0.3c1,0,1,0.2,2,0.2c1,0,1,0,2,0c1,0,1-0.2,2-0.2
		c1,0,1-0.1,2-0.1c1,0,1,0,2,0c1,0,1-0.1,2-0.1c1,0,1,0.5,2,0.5c1,0,1,0,2,0c1,0,1-0.2,2-0.2c1,0,1-0.1,2-0.1c1,0,1,0.1,2,0.1
		c1,0,1,0,2,0c1,0,1,0.2,2,0.2c1,0,1-0.5,2-0.5s1,0.3,2,0.3c0.7,0,1.4-0.3,2.1-0.6c0.7-0.2,1.2-0.6,1.8-1.1c0.6-0.5,0.9-1,1.2-1.6
		c0.3-0.6,0.7-1.2,0.7-2c0-1,0.2-1,0.2-2c0-1-0.3-1-0.3-2c0-1,0-1,0-2c0-1-0.1-1-0.1-2s-0.4-1.2,0.2-2.1c0.6-0.8,1.1-0.1,2-0.4
		c1-0.3,0.9-0.5,1.8-0.8s1.5,0.4,2.1-0.4c0.5-0.6,0.2-1.1-0.4-1.6c-0.7-0.6-0.8-0.2-1.7-0.2c-1,0-1-0.3-1.9-0.1
		C63.2,40,62.9,40.6,62.2,40z"/>
	<path style="fill-rule:evenodd;clip-rule:evenodd;fill:#916224;" d="M72.5,32.2c0-0.3-0.7-0.1-0.8-0.4c0.3-0.6,0.4-1.6-0.1-2.7c-0.3-0.8-0.9-1.5-1.4-2.4c-0.4-0.7-0.9-1.6-1.4-2.4
		c-0.5-0.7-1.1-1.4-1.7-2.2c-0.5-0.7-0.8-1.7-1.4-2.4c-0.6-0.7-1.5-1.1-2.1-1.8c-0.6-0.7-1-1.5-1.7-2.2c0-0.5,0.1-0.7,0.6-0.9
		c0.2-0.1,0.2,0.3,0.3,0.5c0.5,0.4,1.2,0.3,1.7-0.2c0.4-0.5,0.4-1.1-0.1-1.5c-0.8-0.8-0.7-0.9-1.5-1.7c-0.8-0.8-0.8-0.7-1.6-1.5
		c-0.8-0.8-0.9-0.6-1.7-1.4c-0.5-0.4-1.1-0.4-1.6,0.1c0,0,0,0,0,0c-0.4,0.5-0.4,1.1,0.1,1.6c0.3,0.2,0.3,0.2,0.2,0.5
		c-0.1,0.5,0,0.5-0.4,0.5c-0.7-0.6-1.5-0.9-2.3-1.5c-0.7-0.6-1.2-1.5-2-2c-0.8-0.6-1.7-0.9-2.5-1.4c-0.8-0.5-1.6-1.1-2.4-1.6
		c-0.9-0.5-1.8-0.8-2.6-1.2c-1-0.5-1.8-0.8-2.6-1c-1.2-0.3-2.1-0.6-2.7-0.2c-0.3,0-0.1-0.3-0.4-0.3c-0.3,0-0.6,0.2-0.6,0.5
		c0,0.3,0.3,0.3,0.5,0.5c0,0,0.2-0.2,0.2-0.2c1,0.9,1,0.9,1.9,1.7c1,0.9,0.8,1.1,1.7,2c1,0.9,1,0.9,1.9,1.8c1,0.9,0.9,0.9,1.9,1.8
		c1,0.9,1.2,0.6,2.1,1.5s0.9,1,1.8,1.9c1,0.9,0.7,1.1,1.7,2c1,0.9,1.2,0.7,2.1,1.6c1,0.9,0.9,1,1.8,1.9c1,0.9,1,0.8,2,1.7
		c1,0.9,0.8,1.1,1.7,2c1,0.9,1,0.9,1.9,1.8c1,1,1.1,0.9,2.1,1.9c1,1,1.1,0.9,2.1,1.9c1,1,1.2,0.9,2.2,1.8s1,1,2.2,1.8
		C72.4,32.7,72.6,32.5,72.5,32.2z M59.2,13.1c0,0,0.3,0,0.3,0C59.5,13.1,59.2,13.1,59.2,13.1z"/>
</g>
</svg>
