<svg xmlns="http://www.w3.org/2000/svg" viewBox="0 0 66 63">
  <path fill="#49b8b6" d="M24.56,60.78C1.91,56.74-0.76,40.59,2.31,23.71C5.01,8.88,23.88-3.93,43.43,2.14S65,24.38,65,31.12 S62.3,67.52,24.56,60.78z"/>
  <path fill="#2a827f" d="M64.9,33.57L47.48,15.1l-1.47,1.57c4.5,3.59,7.39,9.11,7.39,15.31c0,10.81-8.76,19.57-19.57,19.57 c-5.76,0-10.93-2.49-14.52-6.44l-1.69,1.8l14.93,14.78C59.62,62.98,64.25,42.3,64.9,33.57z"/>
  <g>
    <path fill="none" d="M31.48,20.4c-0.01,0.01-0.02,0.02-0.03,0.04C31.43,20.51,31.45,20.45,31.48,20.4z"/>
    <path fill="none" d="M31.16,17.84c-0.03,0.48-0.03,0.95-0.02,1.43c0.01,0.32-0.06,0.78,0.14,0.94c0.38,0.3,1.12-0.12,1.14-0.19 c0.04-0.21,0.05-0.59,0.05-0.9c0-0.34-0.02-0.69,0.01-1.04c0.02-0.16,0.05-0.34,0.11-0.49c0.04-0.09,0.09-0.66,0.43-0.52 c0.79,0.31,1.24,1.12,1.71,1.78c0.29,0.4,0.69,1.06,1.21,1.16c0.43,0.08,0.62-0.12,0.77-0.42c0.15-0.32,0.23-0.93,0.27-1.28 c0.1-0.83,0.11-1.67,0.14-2.5c0.01-0.34,0.15-1.58-0.38-1.65c-0.53-0.07-0.71,0.9-0.79,1.32c-0.09,0.43-0.16,0.79-0.25,1.22 c-0.05,0.22-0.1,0.42-0.16,0.62c-0.01,0.14-0.05,0.28-0.12,0.42c-0.14,0.3-1.36-1.61-1.6-2.09c-0.19-0.39-0.41-0.77-0.62-1.15 c-0.16-0.28-1.17-0.29-1.59-0.09c-0.36,0.17-0.41,1.06-0.43,1.42c-0.02,0.33-0.05,0.65-0.07,0.98 C31.19,17.13,31.19,17.48,31.16,17.84z"/>
    <path fill="none" d="M22.16,29.4c-0.55-0.58-1.31-0.95-2.1-1.05c-0.4-0.05-0.81-0.04-1.2,0.03c-0.38,0.07-0.77,0.21-1.07,0.46 c-0.04,0.03-0.08,0.07-0.11,0.1c-0.61,0.36-1.1,0.94-1.44,1.56c-0.2,0.35-0.35,0.73-0.4,1.12c-0.06,0.4-0.02,0.8,0.07,1.19 c0.1,0.39,0.25,0.77,0.44,1.13c0.17,0.32,0.37,0.63,0.62,0.89c0.49,0.5,1.16,0.81,1.84,0.94c0.79,0.15,1.62,0.03,2.34-0.32 c0.68-0.34,1.27-0.89,1.65-1.54c0.2-0.34,0.35-0.72,0.42-1.11c0.08-0.44,0.06-0.88-0.01-1.31C23.06,30.72,22.7,29.97,22.16,29.4z M21.41,32.83c-0.15,0.38-0.44,0.7-0.77,0.93c-0.21,0.15-0.44,0.25-0.68,0.31c-0.23,0.06-0.46,0.06-0.64,0.05c0,0,0,0,0,0 c-0.07-0.01-0.14-0.02-0.2-0.03c-0.11-0.02-0.17-0.04-0.17-0.04s0,0,0,0c-0.22-0.06-0.44-0.16-0.62-0.3 c-0.32-0.23-0.53-0.6-0.67-0.96c-0.06-0.17-0.12-0.34-0.14-0.52c-0.03-0.14-0.04-0.34,0.02-0.54c0.02-0.07,0.04-0.14,0.06-0.21 c0.07-0.21,0.19-0.4,0.31-0.58c0.13-0.18,0.29-0.34,0.45-0.5c0.01-0.01,0.03-0.03,0.04-0.04c0.01-0.01,0.02-0.01,0.03-0.02 c0.05-0.03,0.09-0.06,0.14-0.09c0.09-0.05,0.19-0.09,0.29-0.12c0.21-0.07,0.42-0.11,0.64-0.11c0.02,0,0.04,0,0.07,0 c0.11,0,0.2,0.01,0.26,0.02c0,0,0,0,0,0c0,0,0,0,0,0c0.05,0.01,0.09,0.02,0.1,0.02c0.28,0.06,0.54,0.17,0.78,0.34 c0.33,0.25,0.58,0.63,0.71,1.02C21.57,31.91,21.59,32.4,21.41,32.83z"/>
    <path fill="none" d="M31.48,20.4c-0.01,0.01-0.02,0.02-0.03,0.04C31.43,20.51,31.45,20.45,31.48,20.4z"/>
    <path fill="none" d="M31.16,17.84c-0.03,0.48-0.03,0.95-0.02,1.43c0.01,0.32-0.06,0.78,0.14,0.94c0.38,0.3,1.12-0.12,1.14-0.19 c0.04-0.21,0.05-0.59,0.05-0.9c0-0.34-0.02-0.69,0.01-1.04c0.02-0.16,0.05-0.34,0.11-0.49c0.04-0.09,0.09-0.66,0.43-0.52 c0.79,0.31,1.24,1.12,1.71,1.78c0.29,0.4,0.69,1.06,1.21,1.16c0.43,0.08,0.62-0.12,0.77-0.42c0.15-0.32,0.23-0.93,0.27-1.28 c0.1-0.83,0.11-1.67,0.14-2.5c0.01-0.34,0.15-1.58-0.38-1.65c-0.53-0.07-0.71,0.9-0.79,1.32c-0.09,0.43-0.16,0.79-0.25,1.22 c-0.05,0.22-0.1,0.42-0.16,0.62c-0.01,0.14-0.05,0.28-0.12,0.42c-0.14,0.3-1.36-1.61-1.6-2.09c-0.19-0.39-0.41-0.77-0.62-1.15 c-0.16-0.28-1.17-0.29-1.59-0.09c-0.36,0.17-0.41,1.06-0.43,1.42c-0.02,0.33-0.05,0.65-0.07,0.98 C31.19,17.13,31.19,17.48,31.16,17.84z"/>
    <path fill="none" d="M44.23,39.36c-0.37-0.8-0.74-1.59-1.12-2.39c-0.93-1.99-1.86-3.99-2.8-5.98c-0.15-0.31-0.29-0.62-0.44-0.93 c-0.03-0.07-0.06-0.13-0.1-0.2c-0.07-0.15-0.14-0.29-0.22-0.43c-0.01-0.02-0.02-0.04-0.03-0.05c0-0.08-0.01-0.16-0.03-0.24 c0.04-0.29-0.03-0.6-0.18-0.85c0.01,0.01,0.01,0.01,0.02,0.02c-0.02-0.03-0.05-0.07-0.07-0.1c-0.03-0.04-0.07-0.09-0.1-0.13 c0,0,0-0.01-0.01-0.01c0,0,0,0,0,0c-0.45-0.49-1.13-0.76-1.7-1.07c-1.12-0.6-2.24-1.19-3.36-1.78c-2.46-1.28-4.91-2.65-7.48-3.72 c-0.4-0.17-0.79-0.36-1.21-0.46c-0.38-0.09-0.72-0.17-1.01-0.08c-0.3,0.09-0.4,0.36-0.3,0.64c0.04,0.09,0.09,0.18,0.15,0.26 c0,0.28,0.05,0.54,0.11,0.82c0.17,0.83,0.47,1.64,0.77,2.44c0.75,1.98,1.51,3.95,2.31,5.91c0.63,1.54,1.24,3.12,1.98,4.62 c0.28,0.56,0.57,1.07,1.24,1.21c0.24,0.18,0.51,0.33,0.76,0.48c0.97,0.58,1.98,1.1,2.98,1.63c2.08,1.11,4.18,2.18,6.31,3.21 c1.2,0.58,2.42,1.13,3.66,1.64c0.69,0.29,1.52-0.48,1.31-1.18C45.31,41.48,44.73,40.45,44.23,39.36z M42.53,40.75 c-0.05-0.02-0.11-0.05-0.16-0.07c0.04,0.02,0.05,0.03-0.07-0.03c0,0,0,0,0,0c-0.01,0-0.02-0.01-0.03-0.01c0.01,0,0.01,0,0.02,0.01 c-0.08-0.04-0.16-0.08-0.24-0.12c-0.9-0.43-1.79-0.87-2.69-1.3c-2.22-1.09-4.47-2.12-6.72-3.14c0.31-0.29,0.61-0.6,0.89-0.86 c1.59-1.44,3.22-2.84,4.81-4.28c0.09,0.17,0.18,0.34,0.26,0.51c0.41,0.86,0.81,1.71,1.21,2.57c0.91,1.95,1.82,3.89,2.73,5.84 c0.12,0.26,0.23,0.51,0.36,0.77c0.06,0.12,0.11,0.23,0.16,0.35C42.87,40.9,42.7,40.82,42.53,40.75z"/>
    <path fill="none" d="M22.16,29.4c-0.55-0.58-1.31-0.95-2.1-1.05c-0.4-0.05-0.81-0.04-1.2,0.03c-0.38,0.07-0.77,0.21-1.07,0.46 c-0.04,0.03-0.08,0.07-0.11,0.1c-0.61,0.36-1.1,0.94-1.44,1.56c-0.2,0.35-0.35,0.73-0.4,1.12c-0.06,0.4-0.02,0.8,0.07,1.19 c0.1,0.39,0.25,0.77,0.44,1.13c0.17,0.32,0.37,0.63,0.62,0.89c0.49,0.5,1.16,0.81,1.84,0.94c0.79,0.15,1.62,0.03,2.34-0.32 c0.68-0.34,1.27-0.89,1.65-1.54c0.2-0.34,0.35-0.72,0.42-1.11c0.08-0.44,0.06-0.88-0.01-1.31C23.06,30.72,22.7,29.97,22.16,29.4z M21.41,32.83c-0.15,0.38-0.44,0.7-0.77,0.93c-0.21,0.15-0.44,0.25-0.68,0.31c-0.23,0.06-0.46,0.06-0.64,0.05c0,0,0,0,0,0 c-0.07-0.01-0.14-0.02-0.2-0.03c-0.11-0.02-0.17-0.04-0.17-0.04s0,0,0,0c-0.22-0.06-0.44-0.16-0.62-0.3 c-0.32-0.23-0.53-0.6-0.67-0.96c-0.06-0.17-0.12-0.34-0.14-0.52c-0.03-0.14-0.04-0.34,0.02-0.54c0.02-0.07,0.04-0.14,0.06-0.21 c0.07-0.21,0.19-0.4,0.31-0.58c0.13-0.18,0.29-0.34,0.45-0.5c0.01-0.01,0.03-0.03,0.04-0.04c0.01-0.01,0.02-0.01,0.03-0.02 c0.05-0.03,0.09-0.06,0.14-0.09c0.09-0.05,0.19-0.09,0.29-0.12c0.21-0.07,0.42-0.11,0.64-0.11c0.02,0,0.04,0,0.07,0 c0.11,0,0.2,0.01,0.26,0.02c0,0,0,0,0,0c0,0,0,0,0,0c0.05,0.01,0.09,0.02,0.1,0.02c0.28,0.06,0.54,0.17,0.78,0.34 c0.33,0.25,0.58,0.63,0.71,1.02C21.57,31.91,21.59,32.4,21.41,32.83z"/>
    <path fill="#ffffff" d="M20.72,30.45c-0.24-0.18-0.5-0.29-0.78-0.34c-0.01,0-0.05-0.01-0.1-0.02c0,0,0,0,0,0c0,0,0,0,0,0 c-0.06-0.01-0.15-0.02-0.26-0.02c-0.03,0-0.05,0-0.07,0c-0.22,0-0.43,0.04-0.64,0.11c-0.1,0.03-0.2,0.07-0.29,0.12 c-0.05,0.03-0.09,0.06-0.14,0.09c-0.01,0.01-0.02,0.01-0.03,0.02c-0.02,0.01-0.03,0.03-0.04,0.04c-0.16,0.16-0.31,0.31-0.45,0.5 c-0.13,0.18-0.24,0.37-0.31,0.58c-0.02,0.07-0.04,0.14-0.06,0.21c-0.06,0.2-0.05,0.4-0.02,0.54c0.03,0.18,0.08,0.35,0.14,0.52 c0.14,0.36,0.35,0.73,0.67,0.96c0.18,0.13,0.4,0.23,0.62,0.3c0,0,0,0,0,0s0.06,0.02,0.17,0.04c0.07,0.01,0.14,0.02,0.2,0.03 c0,0,0,0,0,0c0.18,0.02,0.41,0.01,0.64-0.05c0.24-0.06,0.48-0.16,0.68-0.31c0.33-0.23,0.61-0.55,0.77-0.93 c0.18-0.43,0.16-0.92,0.02-1.36C21.3,31.08,21.06,30.7,20.72,30.45z"/>
    <path fill="#ffffff" d="M42.53,39.86c-0.91-1.95-1.82-3.89-2.73-5.84c-0.4-0.86-0.8-1.72-1.21-2.57c-0.08-0.17-0.17-0.34-0.26-0.51 c-1.58,1.45-3.21,2.85-4.81,4.28c-0.29,0.26-0.58,0.58-0.89,0.86c2.26,1.01,4.5,2.05,6.72,3.14c0.89,0.44,1.79,0.88,2.69,1.3 c0.08,0.04,0.16,0.08,0.24,0.12c-0.01,0-0.01,0-0.02-0.01c0.01,0,0.02,0.01,0.03,0.01c0,0,0,0,0,0c0.11,0.05,0.11,0.05,0.07,0.03 c0.05,0.02,0.11,0.05,0.16,0.07c0.17,0.08,0.35,0.15,0.52,0.23c-0.05-0.12-0.1-0.23-0.16-0.35 C42.76,40.38,42.65,40.12,42.53,39.86z"/>
    <polygon fill="#ffffff" points="50.63,30.42 50.62,30.43 50.63,30.43"/>
    <path fill="#ffffff" d="M50.44,35.23C50.44,35.23,50.44,35.23,50.44,35.23C50.55,35.21,50.43,35.09,50.44,35.23z"/>
    <path fill="#ffffff" d="M55.26,28.96c-0.79-4.48-2.9-8.87-6.05-12.17c-3.2-3.36-7.59-5.49-12.18-6.08c-2.31-0.3-4.7-0.24-6.99,0.2 c-2.19,0.42-4.49,1.25-6.24,2.67c-0.23,0.19-0.45,0.39-0.67,0.59c-3.57,2.1-6.37,5.46-8.39,9.04c-1.14,2.02-2.01,4.22-2.35,6.53 c-0.34,2.32-0.13,4.65,0.43,6.92c0.56,2.28,1.44,4.48,2.53,6.56c0.98,1.87,2.13,3.67,3.61,5.19c2.83,2.9,6.76,4.7,10.71,5.47 c4.6,0.89,9.41,0.2,13.61-1.88c3.93-1.95,7.37-5.2,9.61-8.96c1.17-1.98,2.03-4.16,2.42-6.43C55.77,34.05,55.71,31.49,55.26,28.96z M23.21,32.81c-0.07,0.39-0.22,0.77-0.42,1.11c-0.39,0.65-0.98,1.21-1.65,1.54c-0.72,0.36-1.55,0.48-2.34,0.32 c-0.68-0.13-1.36-0.44-1.84-0.94c-0.25-0.26-0.45-0.57-0.62-0.89c-0.19-0.36-0.34-0.74-0.44-1.13c-0.1-0.39-0.13-0.79-0.07-1.19 c0.06-0.4,0.21-0.78,0.4-1.12c0.35-0.62,0.83-1.19,1.44-1.56c0.04-0.03,0.08-0.07,0.11-0.1c0.3-0.25,0.7-0.39,1.07-0.46 c0.39-0.07,0.8-0.08,1.2-0.03c0.79,0.1,1.54,0.47,2.1,1.05c0.54,0.57,0.91,1.32,1.04,2.1C23.27,31.93,23.29,32.37,23.21,32.81z M31.17,15.83c0.02-0.37,0.07-1.25,0.43-1.42c0.43-0.2,1.43-0.19,1.59,0.09c0.22,0.38,0.39,0.78,0.62,1.15 c0.41,0.64,1.62,2.42,1.71,1.67c0.07-0.2,0.22-1.37,0.22-1.81c0-0.63,0.11-1.39,0.99-1.35c0.69,0.03,0.55,1.32,0.54,1.66 c-0.02,0.84-0.1,1.66-0.2,2.49c-0.04,0.35-0.12,0.96-0.27,1.28c-0.14,0.3-0.43,0.5-0.86,0.42c-0.52-0.1-1.05-0.7-1.34-1.1 c-0.47-0.66-1.28-1.61-1.58-1.85c-0.29-0.22-0.39,0.43-0.43,0.52c-0.06,0.15-0.1,0.33-0.11,0.49c-0.03,0.34-0.01,0.69-0.01,1.04 c0,0.31-0.01,0.69-0.05,0.9c-0.02,0.08-0.76,0.49-1.14,0.19c-0.2-0.15-0.13-0.62-0.14-0.94c-0.01-0.48-0.01-0.95,0.02-1.43 c0.02-0.36,0.02-0.71-0.06-1.03C31.13,16.48,31.15,16.16,31.17,15.83z M31.48,20.4c-0.02,0.05-0.05,0.11-0.03,0.04 C31.45,20.42,31.47,20.41,31.48,20.4z M35.86,46.4c-0.49-0.28-1.28-0.45-2.09-0.3c-0.82,0.15-0.71,0.68-0.44,0.98 c0.27,0.3,1.25,0.51,2.18,1.01c0.48,0.26,0.69,0.57,0.78,0.8c0,0.02,0.01,0.04,0.01,0.05c0.02,0.09,0.04,0.17,0.06,0.25 c0,0.05,0,0.08,0,0.08c-0.05,1.79-2.39,1.74-2.39,1.74l0.01,0.01c-0.56-0.03-1.16-0.2-1.56-0.39c-0.92-0.43-1.94-0.75-1.12-1.56 c0.28-0.28,0.42-0.26,0.83-0.19c0.19,0.03,0.52,0.31,0.53,0.34c0.84,0.51,1.48,0.23,1.59,0.07c0.28-0.39-0.96-0.67-1.19-0.76 c-0.59-0.23-1.11-0.65-1.32-1.22c-0.19-0.53-0.01-1.11,0.32-1.55c0.64-0.84,1.83-1.18,2.91-1.06c0.46,0.05,0.93,0.17,1.3,0.42 c0.17,0.15,0.33,0.32,0.45,0.49C37.03,46.1,36.35,46.68,35.86,46.4z M44.35,43.81c-1.23-0.51-2.46-1.05-3.66-1.64 c-2.12-1.03-4.22-2.1-6.31-3.21c-1-0.53-2.01-1.06-2.98-1.63c-0.25-0.15-0.52-0.3-0.76-0.48c-0.67-0.14-0.96-0.65-1.24-1.21 c-0.74-1.5-1.35-3.07-1.98-4.62c-0.8-1.96-1.56-3.93-2.31-5.91c-0.3-0.79-0.59-1.6-0.77-2.44c-0.06-0.28-0.11-0.54-0.11-0.82 c-0.06-0.08-0.11-0.17-0.15-0.26c-0.11-0.28,0-0.55,0.3-0.64c0.29-0.09,0.63-0.01,1.01,0.08c0.42,0.1,0.81,0.29,1.21,0.46 c2.56,1.08,5.01,2.44,7.48,3.72c1.12,0.59,2.24,1.18,3.36,1.78c0.57,0.31,1.26,0.58,1.7,1.07c0,0,0,0,0,0c0,0,0,0.01,0.01,0.01 c0.04,0.04,0.07,0.08,0.1,0.13c0.02,0.03,0.05,0.06,0.07,0.1c-0.01-0.01-0.01-0.01-0.02-0.02c0.15,0.25,0.22,0.56,0.18,0.85 c0.02,0.08,0.03,0.16,0.03,0.24c0.01,0.02,0.02,0.04,0.03,0.05c0.08,0.14,0.15,0.28,0.22,0.43c0.03,0.07,0.06,0.13,0.1,0.2 c0.15,0.31,0.29,0.62,0.44,0.93c0.94,1.99,1.87,3.98,2.8,5.98c0.37,0.8,0.74,1.59,1.12,2.39c0.5,1.08,1.08,2.11,1.43,3.26 C45.88,43.33,45.05,44.1,44.35,43.81z M51.14,35.95c-0.52,0.32-1.17,0.35-1.77,0.36c-0.35,0-0.69,0.02-1.03,0.02 c-1.23,0-1.52-0.46-1.66-1.14c-0.17-0.85-0.19-1.74-0.24-2.6c-0.04-0.79-0.35-1.12-0.2-1.9c0.08-0.4,0.33-0.75,0.69-0.93 c0.32-0.16,0.68-0.14,1.02-0.14c0.59,0,1.55,0.02,1.71,0.03c0.87,0.07,1.51-0.28,1.74,0.73c0.22,0.93-0.81,0.77-1.56,0.91 c-0.13,0.02-0.9,0.08-1.47,0.09c-0.2,0-0.01,0.87-0.05,0.87c1.55,0.06,1.91,0.06,2,0.66c0.14,0.89-1.98,0.78-2.06,0.86 c0.21,0.03-0.18,0.95,0.33,1.04c0.87,0.15,2.64-0.1,2.83,0.17C51.89,35.58,51.77,35.57,51.14,35.95z"/>
    <path fill="#ffffff" d="M50.6,30.43c-0.01,0-0.1,0.03-0.02,0.01C50.58,30.44,50.59,30.44,50.6,30.43z"/>
    <path fill="#ffffff" d="M50.47,35.41c0.01-0.01-0.02-0.04-0.05-0.07C50.41,35.41,50.4,35.49,50.47,35.41z"/>
  </g>
</svg>
