<?xml version="1.0" encoding="utf-8"?>
<!-- Generator: Adobe Illustrator 25.0.0, SVG Export Plug-In . SVG Version: 6.00 Build 0)  -->
<svg version="1.1" id="Calque_1" xmlns="http://www.w3.org/2000/svg" xmlns:xlink="http://www.w3.org/1999/xlink" x="0px" y="0px"
	 viewBox="0 0 62.2 60" style="enable-background:new 0 0 62.2 60;" xml:space="preserve">
<g>
	<path fill="#7AA530" d="M50.5,13c-2.4,0-4.6-0.3-6.5-0.8c-2.4-0.6-4.5-1.6-6-2.5c-3.2-1.9-4.8-4.1-4.9-4.3c-0.3-0.5-0.6-0.8-1.2-0.8
		s-1.1,0.2-1.4,0.7c-0.1,0.2-1.6,2.5-4.8,4.4c-1.6,1-3.6,1.9-6,2.5c-1.9,0.5-4.1,0.8-6.5,0.8c-1,0-2,0.5-2,1.5
		c0,3.4,0.8,3.4,0.8,6.8c0,3.4-0.5,3.4-0.5,6.8s-0.1,3.4-0.1,6.8c0,2.2,0.2,4.4,0.9,6.3c0.7,2,2.5,3.5,3.8,5.2
		c1.3,1.7,2.7,3.2,4.3,4.5c1.7,1.4,2.9,3.5,4.6,4.5c2,1.1,4.1,2.1,5.9,2.6c0.2,0,0.5,0,0.6,0c0,0,0.9-0.2,1-0.2
		c1.8-0.5,3.9-1.3,5.9-2.5c1.8-1,3.2-2.7,4.9-4.2c1.6-1.4,3.1-2.8,4.4-4.5c1.3-1.7,2.5-3.5,3.2-5.5c0.7-2,0.8-4.1,0.8-6.2
		c0-3.4-0.2-3.4-0.2-6.8c0-3.4,0.5-3.4,0.5-6.8s0.5-3.4,0.5-6.8C52.8,13.5,51.5,13,50.5,13z"/>
	<g>
		<path fill="#DCE8B3" d="M17.2,22.1c-0.3-0.4,0.1,1.9,3.2,6c3.1,4.1,5.3,5.3,6.7,4.1c0,0,5.6,7.8,9.4,11.1c3.8,3.3,4.5,0.4,2.6-1.5
			c-1.9-1.9-8.4-9.6-9.8-11.4c0,0,2.2-1.1,0.9-3.1c-1.3-2-7.4-8.6-8.2-9c-0.8-0.4,4.3,5.8,6.2,8c0.6,0.8-0.5,1.5-1.5,0.3
			c-0.7-0.9-4.6-5.7-5.4-6.6c-0.8-0.9-1-0.5,0.6,1.9c1.6,2.4,3.9,5.4,4.2,6.1c0.3,0.7-0.3,1-1.8-0.4s-4-5.2-4.8-6.2
			c-0.8-1-0.7,0.2-0.2,1.1c0.6,1,3.7,5.2,4.6,6.6c0.9,1.4,0,1.5-1.6,0C19.8,26.6,17.7,22.8,17.2,22.1z"/>
	</g>
	<g>
		<path fill="#DCE8B3" d="M46.4,25.7c-2.1,4.6-7.6,7.5-9.2,6.1c0,0-4.6,6.8-9.1,10.8c-4.6,3.9-5.4,0.5-3.1-1.8
			c2.2-2.3,7.9-8.9,9.6-11.2c0,0-0.8-3.6,0.5-6.1c1.3-2.4,1.9-2.8,4.8-5.1C45,14.4,48.5,21.1,46.4,25.7z"/>
	</g>
	<path fill="#7AA530" d="M31.1,32.5c0,0,0.8,1.1,1.4,1.7c0.3,0.3,1.1,1.5,1.8,2.1s1.2,1.5,1.2,1.5s1.1,2.3,3.1,1.4s-2.2-1.8-3.1-2.9
		c-0.3-0.4-0.7-1.5-1.3-1.9c-0.6-0.4-1.1-1.2-1.5-1.6c-0.6-0.7-1-0.9-1-0.9S29.5,30.6,31.1,32.5z"/>
	<path fill="#7AA530" d="M29.2,35.1c0.6,0.6,3.4,4.3,4.6,5.6s0.5,2,0.5,2s-3.2-3.3-3.4-4.1s-0.6-0.4-1.8-1.7c-1.2-1.2-1.1-1.7-1.1-1.7
		S28.5,34.5,29.2,35.1z"/>
</g>
</svg>
