<svg xmlns="http://www.w3.org/2000/svg" viewBox="0 0 2131.2731 302.93381">
  <style type="text/css" id="style122">
    .st0{fill:#BDE0E1;stroke:#BDE0E1;stroke-width:2.134;stroke-linecap:round;stroke-linejoin:round;stroke-miterlimit:10;} .st1{fill:none;stroke:#BDE0E1;stroke-width:2.134;stroke-linecap:round;stroke-linejoin:round;stroke-miterlimit:10;} .st2{fill:#28A952;} .st3{font-family:'ToolboxHeartstrings';} .st4{font-size:268.7264px;} .st5{letter-spacing:2.1;}
  </style>
  <g id="g172" transform="translate(-15.0833,-5.685058)">
    <g id="g128">
      <path class="st0" d="m 111.82,70.17 10.8,97.81 17.06,10.92 c 0,0 -28.55,-109.14 -27.86,-108.73 z" id="path124" style="fill:#bde0e1;stroke:#bde0e1;stroke-width:2.13400006;stroke-linecap:round;stroke-linejoin:round;stroke-miterlimit:10" />
      <path class="st1" d="m 112.05,70.11 37.57,90.95 -9.71,17.78 c 0,0 -27.45,-109.42 -27.86,-108.73 z" id="path126" style="fill:none;stroke:#bde0e1;stroke-width:2.13400006;stroke-linecap:round;stroke-linejoin:round;stroke-miterlimit:10" />
    </g>
    <g id="g134">
      <path class="st0" d="m 168.05,288.66 -10.8,-97.81 -17.06,-10.92 c 0,0 28.55,109.14 27.86,108.73 z" id="path130" style="fill:#bde0e1;stroke:#bde0e1;stroke-width:2.13400006;stroke-linecap:round;stroke-linejoin:round;stroke-miterlimit:10" />
      <path class="st1" d="m 167.82,288.72 -37.57,-90.95 9.71,-17.78 c 0,0 27.45,109.42 27.86,108.73 z" id="path132" style="fill:none;stroke:#bde0e1;stroke-width:2.13400006;stroke-linecap:round;stroke-linejoin:round;stroke-miterlimit:10" />
    </g>
    <g id="g140">
      <path class="st0" d="m 30.69,207.53 97.81,-10.8 10.92,-17.06 c 0,0 -109.14,28.55 -108.73,27.86 z" id="path136" style="fill:#bde0e1;stroke:#bde0e1;stroke-width:2.13400006;stroke-linecap:round;stroke-linejoin:round;stroke-miterlimit:10" />
      <path class="st1" d="m 30.63,207.3 90.95,-37.57 17.78,9.71 c 0,0 -109.42,27.45 -108.73,27.86 z" id="path138" style="fill:none;stroke:#bde0e1;stroke-width:2.13400006;stroke-linecap:round;stroke-linejoin:round;stroke-miterlimit:10" />
    </g>
    <g id="g146">
      <path class="st0" d="m 249.18,151.3 -97.81,10.8 -10.92,17.06 c 0,0 109.14,-28.55 108.73,-27.86 z" id="path142" style="fill:#bde0e1;stroke:#bde0e1;stroke-width:2.13400006;stroke-linecap:round;stroke-linejoin:round;stroke-miterlimit:10" />
      <path class="st1" d="m 249.24,151.53 -90.95,37.57 -17.78,-9.71 c 0,0 109.42,-27.45 108.73,-27.86 z" id="path144" style="fill:none;stroke:#bde0e1;stroke-width:2.13400006;stroke-linecap:round;stroke-linejoin:round;stroke-miterlimit:10" />
    </g>
    <g id="g152">
      <g id="g150">
        <path class="st0" d="m 113.2,51.62 c -0.02,0.87 0.01,1.9 0.22,2.73 0.04,0.17 0.1,0.52 0.21,0.58 v 0.11 c 0.01,0.28 -0.02,0.61 0.04,0.85 0,0.02 0.01,0.05 0.02,0.07 0.08,0.3 0.06,0.6 0.14,0.9 0.06,0.12 0.1,0.26 0.13,0.41 0.08,0.31 0.17,0.66 0.1,0.96 l 0.26,1.82 c 0.05,0.2 0.08,0.42 0.13,0.62 0.08,0.33 0.31,0.64 0.4,0.97 0,0.02 -0.14,0.49 -0.62,0.62 -0.14,0.04 -0.75,0.02 -0.82,-0.27 0,-0.02 -0.01,-0.03 -0.01,-0.05 l -0.13,-0.85 c -0.17,-1.84 -0.49,-3.65 -0.71,-5.44 0,-0.02 -0.01,-0.03 -0.01,-0.05 -0.01,-0.05 -0.05,-0.09 -0.12,-0.11 -0.87,-0.46 -1.68,-0.94 -2.69,-1.27 -0.72,-0.22 -1.53,-0.61 -2.08,-0.88 -0.52,-0.17 -0.88,-0.29 -1.31,-0.56 l -0.07,-0.04 c 0.01,0.03 0.01,0.05 0.02,0.08 0.01,0.05 0.03,0.12 0.04,0.17 0.06,0.13 0.1,0.26 0.16,0.38 0.04,0.17 0.06,0.34 -0.02,0.52 0.08,0.08 0.11,0.18 0.13,0.28 0.09,0.36 0.09,0.81 0.19,1.2 0.04,0.15 0.07,0.28 0.11,0.43 0.08,0.31 0.08,0.65 0.15,0.95 0.06,0.25 0.15,0.49 0.21,0.72 0.3,1.16 0.52,2.39 0.73,3.53 0.03,0.12 0.16,0.28 0.19,0.38 0.04,0.17 -0.02,0.38 0.02,0.54 0.13,0.51 0.3,1.03 0.55,1.45 0.07,0.28 -0.13,0.65 -0.64,0.78 -0.25,0.06 -0.51,0.01 -0.53,-0.09 l -0.04,-0.03 c 0,-0.02 0,-0.02 0,-0.02 -0.08,0.04 -0.14,0.05 -0.22,0.07 -0.42,0.11 -0.72,0.01 -0.78,-0.26 -0.03,-0.13 0.04,-0.29 0.01,-0.44 -0.1,-0.5 -0.35,-1.14 -0.27,-1.64 0,-0.83 -0.31,-1.67 -0.51,-2.44 -0.22,-1.09 -0.48,-2.21 -0.61,-3.32 0,-0.02 -0.01,-0.05 -0.02,-0.07 -0.02,-0.07 -0.03,-0.12 -0.07,-0.16 v -0.02 c -0.03,-0.01 -0.04,-0.03 -0.05,-0.06 -0.13,-0.5 -0.04,-1.33 -0.21,-2.01 -0.01,-0.03 -0.02,-0.08 -0.03,-0.13 -0.08,-0.33 -0.09,-0.68 -0.17,-1.01 -0.03,-0.12 -0.06,-0.23 -0.08,-0.33 -0.11,-0.43 -0.26,-1.01 0.3,-1.15 0.9,-0.23 2.31,0.94 2.8,1.22 0.64,0.38 1.45,0.62 1.97,0.8 0.93,0.34 1.81,0.74 2.74,1.1 l -0.07,-0.51 c -0.01,-0.03 -0.05,-0.06 -0.05,-0.09 -0.27,-1.04 -0.11,-2.32 -0.19,-3.44 -0.02,-0.21 -0.06,-0.69 0.34,-0.79 0.59,-0.15 0.78,-0.01 0.85,0.28 -0.05,0.66 0.09,1.33 -0.03,2.01 z" id="path148" style="fill:#bde0e1;stroke:#bde0e1;stroke-width:2.13400006;stroke-linecap:round;stroke-linejoin:round;stroke-miterlimit:10" />
      </g>
    </g>
    <g id="g158">
      <g id="g156">
        <path class="st0" d="m 175.42,304.61 c -0.12,0.23 -0.11,0.49 -0.21,0.69 -0.55,0.88 -1.14,1.74 -2.63,2.12 -0.65,0.17 -1.89,0.24 -2.24,-0.2 -0.29,-0.33 -0.75,-0.6 -0.95,-1.03 -0.14,-0.3 -0.36,-0.58 -0.44,-0.89 -0.11,-0.45 0.06,-1.28 0.71,-1.45 0.39,-0.1 0.64,0.05 0.7,0.28 0.07,0.26 -0.59,0.52 -0.49,0.9 0.14,0.56 0.93,1.75 1.73,1.73 0.29,-0.02 0.59,-0.05 0.84,-0.11 0.25,-0.06 0.52,-0.2 0.78,-0.36 l 0.08,-0.02 c 0.68,-0.37 0.33,-1.74 0.31,-2.07 -0.05,-0.32 0.01,-0.66 -0.06,-0.94 -0.01,-0.03 -0.01,-0.05 -0.02,-0.08 -0.12,-0.46 -0.1,-0.98 -0.18,-1.54 -0.35,-0.65 -0.51,-1.4 -1.31,-1.83 -0.28,-0.14 -0.74,-0.55 -0.92,-0.56 -2.25,0.22 -4.64,0.7 -5.01,-0.74 -0.41,-1.59 1.39,-4.04 3.72,-4.64 0.82,-0.21 2.01,0 2.21,0.79 0.1,0.38 -0.07,0.65 -0.44,0.75 -0.37,0.09 -0.43,-0.38 -0.53,-0.57 -0.15,-0.24 -0.72,-0.36 -1,-0.29 -0.31,0.08 -1.18,0.64 -1.16,0.61 -0.06,0.24 -0.44,0.52 -0.43,0.55 -0.41,0.72 -0.65,1.44 -0.48,2.11 0.02,0.08 0.04,0.17 0.09,0.24 l 0.03,0.12 c 0,0.02 -0.02,0.02 -0.02,0.04 0.04,0.15 0.23,0.19 0.25,0.29 0.01,0.03 0.02,0.07 0,0.11 l 0.02,0.07 c 0,0.02 -0.02,0.02 -0.02,0.04 0,-0.02 2.56,-0.2 2.84,-0.24 1,-0.08 1.75,0.41 1.92,0.49 1.21,0.5 1.69,1.91 1.94,2.32 0.19,0.29 0.28,0.62 0.36,0.93 0.08,0.31 0.13,0.64 0.13,0.97 -0.02,0.51 -0.01,1.05 -0.12,1.41 z" id="path154" style="fill:#bde0e1;stroke:#bde0e1;stroke-width:2.13400006;stroke-linecap:round;stroke-linejoin:round;stroke-miterlimit:10" />
      </g>
    </g>
    <g id="g164">
      <g id="g162">
        <path class="st0" d="m 23.72,208.08 c 0.31,1.21 0.43,2.74 0.66,3.64 0.01,0.05 0.03,0.1 0.04,0.15 0.23,0.91 -0.53,2.39 -0.76,2.63 -0.13,0.18 -0.28,0.44 -0.59,0.63 -0.36,0.22 -0.44,0.38 -1.26,0.69 -0.48,0.12 -1,0.19 -1.39,0.29 -0.03,0.01 -0.06,0.01 -0.08,0.02 -0.86,0.17 -0.92,-0.1 -1.7,-0.2 -0.79,-0.4 -1.17,-1.04 -1.43,-1.71 l 0.03,-0.01 -0.32,-0.68 c -0.13,-0.04 -0.27,-0.58 -0.31,-0.75 -0.14,-0.56 -0.16,-1.21 -0.3,-1.76 -0.03,-0.13 -0.06,-0.25 -0.1,-0.38 -0.05,-1.61 -0.23,-2.89 0.42,-4.66 0.3,-0.83 0.23,-0.87 1.61,-1.79 0.53,-0.15 0.88,-0.31 1.44,-0.46 2.16,-0.55 2.9,1.25 3.18,1.88 0.35,0.77 0.64,1.55 0.84,2.34 0,0.04 0.01,0.09 0.02,0.13 z m -0.82,1.71 c -0.06,-0.11 -0.09,-0.22 -0.12,-0.34 -0.02,-0.07 -0.03,-0.13 -0.05,-0.2 -0.04,-0.15 -0.08,-0.3 -0.11,-0.45 0.03,-0.22 -0.11,-0.66 -0.19,-0.96 -0.14,-0.55 -0.43,-1.11 -0.64,-1.67 -0.27,-0.69 -0.43,-1.11 -1.34,-1.74 -0.11,-0.08 -0.17,-0.1 -0.34,-0.05 -0.03,0.01 -0.06,0.01 -0.08,0.02 -0.09,0 -0.14,0.02 -0.2,0.03 -1.63,0.42 -1.88,1.77 -1.74,2.32 0.15,0.6 -0.02,1.2 -0.03,1.19 0.02,0.07 0.07,0.26 -0.09,0.46 -0.09,0.01 0.46,1.68 0.37,2.27 0.01,0.16 0.02,0.3 0.05,0.43 0.02,0.08 0.04,0.17 0.06,0.23 0.05,0.2 0.07,0.4 0.12,0.6 0.22,0.86 0.45,1.63 1.52,2.66 0.23,0.29 0.33,0.6 1.07,0.66 l 0.08,-0.02 c 1.66,-0.51 1.86,-1.99 2.01,-2.58 0.1,-0.45 0.05,-1.2 -0.02,-1.37 -0.05,-0.18 -0.13,-0.37 -0.17,-0.56 -0.06,-0.25 -0.19,-0.73 -0.13,-0.85 z" id="path160" style="fill:#bde0e1;stroke:#bde0e1;stroke-width:2.13400006;stroke-linecap:round;stroke-linejoin:round;stroke-miterlimit:10" />
      </g>
    </g>
    <g id="g170">
      <g id="g168">
        <path class="st0" d="m 266.65,152.97 c 0.04,0.15 -0.15,0.36 -0.49,0.44 -0.03,0.01 -0.06,0.01 -0.06,0.01 -0.08,0.04 -0.16,0.06 -0.25,0.08 -0.03,0.01 -0.2,0.05 -0.2,0.03 l 0.02,-0.02 c -1.05,0.46 -2.27,0.83 -3.4,1.12 -0.51,0.13 -1.58,0.28 -1.64,0.02 -0.04,-0.17 0.05,-0.4 0.01,-0.55 -0.03,-0.12 -0.09,-0.22 -0.12,-0.34 -0.05,-0.2 -0.07,-0.4 -0.13,-0.62 -0.14,-0.53 -0.32,-1.01 -0.47,-1.59 -0.04,-0.17 -0.03,-0.34 -0.07,-0.51 -0.05,-0.08 -0.09,-0.13 -0.11,-0.2 l -0.16,-0.61 c -0.06,-0.21 -0.2,-0.42 -0.25,-0.64 -0.03,-0.1 -0.02,-0.21 -0.05,-0.31 -0.13,-0.51 -0.38,-1.01 -0.51,-1.53 l -0.19,-0.74 c -0.13,-0.51 -0.25,-0.99 -0.35,-1.5 -0.04,-0.27 0,-0.58 -0.07,-0.86 -0.07,-0.26 -0.28,-0.51 -0.35,-0.79 -0.03,-0.12 0.11,-0.29 0.53,-0.4 0.23,-0.06 0.48,-0.02 0.7,-0.07 0.87,-0.22 1.94,-0.6 2.53,-0.75 0.73,-0.19 2.02,-0.43 2.11,-0.08 0.05,0.18 -0.55,0.42 -0.97,0.53 -0.45,0.12 -0.9,0.12 -1.35,0.24 -0.79,0.2 -1.64,0.38 -1.52,0.83 0.05,0.18 0.15,0.35 0.19,0.52 0.11,0.45 0.14,0.9 0.25,1.45 0.03,0.12 0.06,0.21 0.08,0.33 0.07,0.26 0.05,0.53 0.11,0.78 0.05,0.2 0.13,0.37 0.18,0.57 0.01,0.05 0.03,0.1 0.04,0.15 0.06,0.23 0.15,0.47 0.21,0.69 0,0.02 0,0.02 0,0.02 0.25,-0.08 0.53,-0.15 0.75,-0.21 0.17,-0.03 0.32,-0.05 0.49,-0.09 0.06,-0.01 0.14,-0.05 0.19,-0.07 0.51,-0.13 1,-0.08 1.05,0.12 0.04,0.17 -0.21,0.35 -0.63,0.46 -0.61,0.08 -1.08,0.12 -1.68,0.24 -0.03,0.01 -0.05,0.05 -0.03,0.1 0.14,0.53 0.61,1.08 0.72,1.54 0.02,0.07 0.03,0.13 0.02,0.21 0.24,0.93 0.76,1.92 0.97,2.73 0.01,0.03 0.02,0.07 0.03,0.1 0.93,-0.24 1.73,-0.5 2.63,-0.85 0.08,-0.02 0.14,-0.05 0.22,-0.07 0.25,-0.06 0.52,-0.06 0.77,-0.04 0.16,0 0.23,0.06 0.25,0.13 z" id="path166" style="fill:#bde0e1;stroke:#bde0e1;stroke-width:2.13400006;stroke-linecap:round;stroke-linejoin:round;stroke-miterlimit:10" />
      </g>
    </g>
  </g>
  <g id="g176" transform="translate(-15.0833,-5.685058)">
    <text transform="matrix(0.9516,0,0,1,196.7339,255.123)" class="st2 st3 st4 st5" id="text174" style="font-size:268.72640991px;font-family:ToolboxHeartstrings;letter-spacing:2.0999999;fill:#28a952">
      CAP BIEN-ÊTRE
    </text>
  </g>
</svg>
