<svg xmlns="http://www.w3.org/2000/svg" version="1.1" viewBox="0 0 46.8 25.6" style="enable-background:new 0 0 46.8 25.6;">
  <path fill="#434343" style="opacity:0.46" d="M3.5,23.6c-1,0-1.8-0.8-1.8-1.8v-2.3c0-1,0.7-1.6,1.7-1.6c0,0,1.4,0,3.3,0s3-0.1,3-0.1  c0.1,0,0.2-0.1,0.2-0.2v-1c0-0.1-0.1-0.2-0.2-0.2c0,0-0.6-0.3-2.9-0.2c-2.3,0.1-3.4,0.2-3.4,0.2c-1,0-1.8-0.8-1.8-1.8v-2.3  c0-1,0.8-1.8,1.8-1.8c0,0,1.7,0,3.1-0.1s3.2,0.1,3.2,0.1c0.1,0,0.2-0.1,0.2-0.2v-1C10,9.1,9.9,9,9.7,9H3.5c-1,0-1.8-0.8-1.8-1.8V5  c0-1,0.8-1.8,1.8-1.8c0,0,9-0.5,12.1,0s6,0.9,7,3.5c0.2,0.6,0.7,1,1.3,1c0,0,4.7,0.5,9.2,0.3c4.5-0.2,10.2,0,10.2,0  c1.5,0,2.8,1.3,2.8,2.8v5.1c0,1.5-0.8,3.7-4.4,3.7c0,0-3.6,0.3-7.5,0.4s-10.4-0.4-10.4-0.4c-0.6,0-1.1,0.4-1.3,1  c-0.9,2.6-2.9,3.1-6.2,3.1S3.5,23.6,3.5,23.6z" />
  <path fill="#ffffff" d="M2.4,21.2c-1,0-1.8-0.8-1.8-1.8v-2.3c0-1,0.7-1.6,1.7-1.6c0,0,1.4,0,3.3,0c2,0,3-0.1,3-0.1  c0.1,0,0.2-0.1,0.2-0.2v-1c0-0.1-0.1-0.2-0.2-0.2c0,0-0.6-0.3-2.9-0.2S2.3,14,2.3,14c-1,0-1.8-0.8-1.8-1.8V9.9c0-1,0.8-1.8,1.8-1.8  c0,0,1.7,0,3.1-0.1c1.4-0.1,3.2,0.1,3.2,0.1c0.1,0,0.2-0.1,0.2-0.2v-1c0-0.1-0.1-0.2-0.2-0.2H2.4c-1,0-1.8-0.8-1.8-1.8V2.6  c0-1,0.8-1.8,1.8-1.8c0,0,9-0.5,12.1,0s6,0.9,7,3.5c0.2,0.6,0.7,1,1.3,1c0,0,4.7,0.5,9.2,0.3s10.2,0,10.2,0c1.5,0,2.8,1.3,2.8,2.8  v5.1c0,1.5-0.8,3.7-4.4,3.7c0,0-3.6,0.3-7.5,0.4c-3.8,0.1-10.4-0.4-10.4-0.4c-0.6,0-1.1,0.4-1.3,1c-0.9,2.6-2.9,3.1-6.2,3.1  C12.1,21.2,2.4,21.2,2.4,21.2z" />
</svg>
