<svg xmlns="http://www.w3.org/2000/svg" version="1.1" viewBox="0 0 46.8 25.6" style="enable-background:new 0 0 46.8 25.6;">
  <path style="opacity:0.46" fill="#434343" d="M17.6,23c5.7-0.1,13.7,0.3,22.5-5.3c2-1.3,3.6-2.9,4.6-4.2c1.1-1.4,1.1-2.4,0.6-3.3c-0.4-0.8-1.6-1.3-2.9-1.3  c0,0-2.1,0-9.2-0.2c-6.8-0.2-13.6-0.1-18.7-0.2S3.7,8.7,3.7,8.7c-1.5,0-2.8,1.3-2.8,2.9v4.3c0,1.6,1.2,2.9,2.8,2.9  c0,0,2.5,0.2,5.2,0.2s5.1-0.2,5.1-0.2c0.2,0,0.3,0.1,0.3,0.3v0.8c0,0.9,0.4,1.8,1,2.4C15.9,22.8,16.7,23,17.6,23z" />
  <path fill="#ffffff" d="M18.6,20.5c5.7-0.1,13.7,0.3,22.5-5.3c2-1.3,3.6-2.9,4.6-4.2c1.1-1.4,1.1-2.4,0.6-3.3c-0.4-0.8-1.6-1.3-2.9-1.3  c0,0-2.1,0-9.2-0.2C27.4,6,20.5,6.1,15.5,6S4.7,6.2,4.7,6.2c-1.5,0-2.8,1.3-2.8,2.9v4.3c0,1.6,1.2,2.9,2.8,2.9c0,0,2.5,0.2,5.2,0.2  s5.1-0.2,5.1-0.2c0.2,0,0.3,0.1,0.3,0.3v0.8c0,0.9,0.4,1.8,1,2.4C16.9,20.3,17.7,20.6,18.6,20.5z" />
</svg>
