<?xml version="1.0" encoding="utf-8"?>
<!-- Generator: Adobe Illustrator 24.1.2, SVG Export Plug-In . SVG Version: 6.00 Build 0)  -->
<svg version="1.1" id="Ñëîé_4" xmlns="http://www.w3.org/2000/svg" xmlns:xlink="http://www.w3.org/1999/xlink" x="0px" y="0px"
	 viewBox="0 0 1300 625" style="enable-background:new 0 0 1300 625;" xml:space="preserve">
<style type="text/css">
	.st0{fill:#B2B2B2;}
</style>
<g>
	<g>
		<g>
			<g>
				<g>
					<path class="st0" d="M142.09,195.91c-0.94,0.71-1.8,1.49-2.71,2.24l-1.35,1.15l-1.4,1.29c-0.93,0.86-1.87,1.73-2.82,2.6
						c-0.93,0.89-1.83,1.81-2.76,2.72c-3.7,3.64-7.24,7.57-10.73,11.67c-6.9,8.26-13.41,17.34-19.18,27.23
						c-11.58,19.73-20.52,42.48-24.96,67.04c-2.75,16.29-2.96,32.83-0.36,48.79c2.6,15.96,7.98,31.3,15.81,45.31
						c3.91,7.01,8.4,13.71,13.43,20.02c5.03,6.31,10.58,12.24,16.51,17.79c11.85,11.15,25.38,20.65,39.73,28.82
						c7.23,4.02,14.58,7.85,22.21,11.2l2.84,1.29l2.88,1.21l5.77,2.41l5.85,2.25c1.95,0.74,3.89,1.51,5.88,2.17
						c15.76,5.61,31.95,10.14,48.36,13.79c4.1,0.91,8.24,1.71,12.35,2.58c4.14,0.76,8.28,1.51,12.42,2.26
						c8.48,1.29,16.96,2.57,25.42,3.86c8.46,1.29,16.91,2.57,25.35,3.85c8.49,1.02,16.97,2.05,25.43,3.07
						c67.74,8.19,135.38,12.68,202.74,15.05c67.37,2.35,134.49,2.48,201.52,1.27l12.57-0.21l12.57-0.31l25.13-0.63l25.13-0.78
						l25.14-0.84c16.78-0.62,33.56-1.24,50.34-1.86c8.42-0.3,16.84-0.6,25.27-0.89l12.74-0.33l6.37-0.16l6.16-0.2
						c16.44-0.31,32.8-1.71,49.06-3.75c16.27-2.01,32.37-5.13,48.19-9.22c31.61-8.16,62.22-20.61,89.42-38.53
						c13.59-8.94,26.3-19.22,37.76-30.76c1.42-1.45,2.9-2.86,4.28-4.35l4.08-4.53c2.8-2.96,5.25-6.21,7.86-9.34
						c1.33-1.55,2.48-3.22,3.7-4.86l3.63-4.92l3.38-5.09c1.11-1.71,2.3-3.37,3.31-5.15c2.06-3.52,4.26-6.97,6.09-10.62l2.87-5.42
						l2.61-5.55l1.31-2.78c0.44-0.92,0.79-1.89,1.19-2.83l2.34-5.68c0.8-1.89,1.4-3.85,2.11-5.77l1.03-2.9
						c0.35-0.96,0.69-1.93,0.97-2.92c1.16-3.94,2.48-7.83,3.39-11.84c0.49-2,1.02-3.98,1.48-5.99l1.21-6.05l0.61-3.03l0.46-3.06
						l0.93-6.12l0.65-6.16l0.32-3.08c0.12-1.03,0.13-2.06,0.2-3.09l0.35-6.2c0.1-2.07,0.06-4.14,0.1-6.21
						c0.13-4.15-0.14-8.29-0.27-12.44c-0.02-1.04-0.11-2.07-0.2-3.11l-0.26-3.11l-0.26-3.11l-0.13-1.55l-0.21-1.55
						c-0.55-4.12-1.02-8.27-1.85-12.36c-1.37-8.23-3.5-16.33-5.88-24.35c-1.34-3.96-2.53-7.99-4.11-11.88
						c-0.76-1.95-1.47-3.93-2.28-5.87l-2.53-5.77c-0.43-0.96-0.82-1.94-1.29-2.88l-1.4-2.83c-0.94-1.88-1.85-3.78-2.82-5.65
						l-3.08-5.52c-0.52-0.92-1.01-1.85-1.55-2.76l-1.67-2.69l-3.34-5.38l-3.6-5.22l-1.8-2.61l-1.92-2.53l-3.86-5.05
						c-10.65-13.21-22.96-25.18-36.64-35.53c-15.37-11.31-32.04-20.72-49.67-27.59c-17.6-6.97-35.87-11.82-54.54-14.6
						c-37.75-5.93-75.34-10.27-112.72-13.57c-74.78-6.54-148.7-9.01-222.45-9.24c-73.76-0.18-147.39,1.98-221.84,5.95
						C430,88.08,354.7,93.84,277.63,101.91c85.3-9.16,171.33-14.67,257.27-20.38c86.16-5.67,168.31-8.75,250.65-8.72
						c82.32,0.11,164.91,3.05,251.56,12.87c4.89,0.51,9.8,1.22,14.75,1.82c4.95,0.65,9.91,1.23,14.95,1.93
						c2.54,0.41,5.09,0.81,7.65,1.22c1.28,0.2,2.56,0.41,3.84,0.61c1.27,0.26,2.55,0.53,3.83,0.79c2.56,0.53,5.12,1.06,7.69,1.6
						c2.56,0.58,5.1,1.29,7.67,1.93c5.15,1.21,10.2,2.93,15.32,4.48c2.55,0.8,5.05,1.8,7.59,2.69c2.53,0.92,5.08,1.81,7.56,2.9
						c2.5,1.05,5.01,2.1,7.52,3.15c2.48,1.14,4.93,2.34,7.41,3.52c1.23,0.6,2.48,1.17,3.7,1.8l3.63,1.96l3.64,1.97
						c1.21,0.66,2.44,1.3,3.61,2.04c2.37,1.44,4.74,2.88,7.12,4.32c1.21,0.7,2.34,1.51,3.5,2.28l3.47,2.35l3.48,2.36l3.37,2.53
						l3.37,2.54c1.13,0.84,2.26,1.69,3.33,2.61c2.17,1.81,4.34,3.62,6.52,5.43c2.13,1.87,4.19,3.83,6.29,5.75
						c2.14,1.89,4.09,3.97,6.1,6l3.01,3.06c1.01,1.02,1.92,2.12,2.89,3.18l2.87,3.21c0.95,1.08,1.93,2.13,2.82,3.27
						c1.81,2.24,3.62,4.49,5.43,6.73c3.44,4.64,6.91,9.29,10.01,14.2c6.32,9.75,11.96,20.03,16.71,30.77
						c4.71,10.76,8.59,21.93,11.59,33.38l1.09,4.31l0.54,2.16c0.17,0.72,0.3,1.45,0.45,2.17c0.58,2.91,1.2,5.81,1.74,8.73l1.36,8.81
						c0.41,2.94,0.66,5.91,0.99,8.87c1.09,11.85,1.24,23.82,0.45,35.74c-0.74,11.93-2.67,23.78-5.4,35.41l-1.03,4.37
						c-0.38,1.45-0.81,2.88-1.21,4.32l-1.24,4.31l-0.62,2.15l-0.72,2.12c-0.97,2.83-1.9,5.67-2.91,8.48l-3.3,8.33
						c-4.64,11-10.14,21.6-16.37,31.71c-6.26,10.1-13.42,19.56-21.06,28.51c-1.96,2.2-3.91,4.39-5.87,6.58
						c-2.03,2.12-4.1,4.19-6.15,6.28c-1.04,1.03-2.03,2.11-3.11,3.09l-3.22,2.96l-3.22,2.96l-1.61,1.47l-1.67,1.4
						c-11.04,9.59-22.77,17.9-34.73,25.19c-11.98,7.27-24.15,13.7-36.51,18.96c-1.54,0.67-3.06,1.38-4.6,2.02
						c-1.55,0.61-3.1,1.22-4.64,1.83c-3.1,1.2-6.14,2.48-9.24,3.58c-6.21,2.12-12.31,4.4-18.49,6.14c-3.08,0.91-6.13,1.89-9.19,2.72
						c-3.07,0.79-6.13,1.58-9.17,2.37c-1.52,0.39-3.04,0.78-4.55,1.17c-1.52,0.33-3.05,0.66-4.56,0.99
						c-3.03,0.66-6.05,1.31-9.06,1.97c-1.5,0.35-3.01,0.59-4.51,0.86c-1.5,0.27-3,0.53-4.5,0.8c-2.99,0.52-5.96,1.08-8.92,1.57
						c-2.97,0.42-5.92,0.83-8.86,1.24c-1.47,0.21-2.93,0.41-4.39,0.62c-1.46,0.21-2.92,0.42-4.38,0.55
						c-2.91,0.3-5.81,0.61-8.69,0.91c-1.44,0.15-2.88,0.3-4.31,0.45l-2.15,0.22l-2.14,0.15c-5.71,0.37-11.35,0.84-16.93,1.12
						c-5.58,0.2-11.1,0.4-16.55,0.59c-5.31,0.16-10.56,0.31-15.74,0.46c-10.4,0.35-20.58,0.79-30.5,1.19
						c-19.88,0.83-38.73,1.62-56.54,2.37c-8.91,0.34-17.56,0.66-25.95,0.98c-4.19,0.16-8.32,0.32-12.39,0.47
						c-4.07,0.13-8.06,0.26-12,0.38c-15.73,0.5-30.41,1.02-44.02,1.3c-6.81,0.17-13.34,0.34-19.61,0.49
						c-3.13,0.08-6.2,0.16-9.2,0.23c-3,0.05-5.93,0.09-8.8,0.14c-11.46,0.2-21.84,0.37-31.12,0.53c-4.64,0.11-9.01,0.12-13.1,0.15
						c-4.09,0.03-7.91,0.06-11.44,0.09c-14.15,0.13-23.86,0.26-29.03,0.38c-5.17,0.05-5.79,0.15-1.76,0.28
						c4.03,0.13,12.7,0.14,26.13,0.15c-9.03-0.01-17.74,0.1-26.21,0.17c-8.48,0-16.72,0.05-24.8,0.15
						c-8.08,0.12-16.01,0.24-23.85,0.36c-7.85,0.05-15.61,0.1-23.37,0.14c-7.76,0.07-15.52,0.13-23.36,0.2
						c-3.92,0.06-7.85-0.03-11.82-0.06c-3.97-0.05-7.96-0.1-11.99-0.15c-8.06-0.14-16.28-0.28-24.73-0.42
						c-2.11-0.05-4.24-0.09-6.38-0.14c-2.14-0.06-4.3-0.18-6.47-0.27c-4.35-0.21-8.76-0.43-13.25-0.64
						c-9.05-0.55-18.03-1.1-26.97-1.64c-2.23-0.14-4.46-0.28-6.69-0.43c-2.22-0.2-4.45-0.39-6.67-0.58
						c-4.44-0.4-8.86-0.79-13.27-1.19c-8.82-0.81-17.59-1.62-26.31-2.43c-2.18-0.21-4.36-0.41-6.53-0.62
						c-2.17-0.27-4.34-0.53-6.5-0.79c-4.33-0.53-8.65-1.07-12.96-1.6c-8.61-1.08-17.18-2.16-25.71-3.23
						c-2.13-0.27-4.26-0.54-6.39-0.81c-2.12-0.3-4.24-0.66-6.36-0.99c-4.23-0.68-8.45-1.35-12.66-2.03
						c-8.42-1.36-16.8-2.72-25.15-4.07c-4.17-0.68-8.32-1.32-12.55-2.19c-4.21-0.82-8.42-1.6-12.59-2.55
						c-16.73-3.61-33.2-8.05-49.31-13.49c-4.04-1.29-8.02-2.84-12.01-4.28c-3.99-1.46-7.91-3.12-11.85-4.67
						c-7.81-3.35-15.57-6.8-23.1-10.74c-7.58-3.81-14.94-8.11-22.16-12.6c-7.19-4.55-14.14-9.49-20.88-14.72
						c-6.67-5.33-13.09-10.98-19.17-17c-6.03-6.09-11.7-12.54-16.93-19.35c-1.49-1.87-3.46-4.15-5.47-7
						c-1.01-1.41-2.15-2.88-3.24-4.51c-1.08-1.63-2.21-3.34-3.39-5.12c-4.55-7.21-9.19-15.89-12.92-25.01
						c-3.76-9.1-6.61-18.61-8.4-27.11c-1.79-8.49-2.64-15.93-2.92-20.96c-0.79-11.24-0.3-22.42,1.04-33.36
						c0.29-2.75,0.79-5.45,1.2-8.17c0.45-2.71,1.02-5.39,1.55-8.07c1.21-5.33,2.53-10.62,4.16-15.79
						c6.35-20.75,16.06-40.08,28.2-57.56c6.05-8.76,12.8-17,20.08-24.74c7.29-7.74,15.1-14.96,23.51-21.57
						c4.4-3.43,9-6.45,13.69-9.22c4.73-2.68,9.52-5.21,14.43-7.39c9.78-4.47,19.84-8.1,30.06-11.21
						c20.44-6.23,41.46-10.61,62.98-14.11c21.52-3.47,43.54-6.01,66.16-7.97c45.23-3.86,92.8-5.52,143.74-5.51
						c-18.43,0.73-36.69,1.87-36.69,1.87c18.64,0.07,32.6,0.37,46.56,0.77c13.95,0.44,27.92,0.93,46.48,2.08
						c-27.6,0.1-57.51,0.97-88.77,2.57c-31.26,1.62-63.89,4.06-96.86,7.88c-32.94,3.85-66.3,9-98.43,16.86
						c-16.03,3.99-31.78,8.58-46.62,14.41c-7.41,2.91-14.6,6.1-21.39,9.68C154.11,187.55,147.73,191.51,142.09,195.91z"/>
				</g>
			</g>
		</g>
	</g>
</g>
</svg>
