<svg version="1.1" xmlns="http://www.w3.org/2000/svg" viewBox="0 0 1366 768" preserveAspectRatio="none">
  <path d="M1013.34,750.33c61.78-4.93,115.97-3.98,177.85-7.06c38.51-3.08,96.16,1.26,128.64-24.22 c23.03-17.58,28.79-53.93,31.66-83.44c7.91-81.39,8.54-148.17,6.6-222.77c-6.03-74.56-0.67-149.26-5.59-223.92 c-2.39-35.47,0.78-101.08-19.47-131.61c-20.35-32.92-46.17-31.65-85.74-35.96c-62.6-6.83-128.14-5.31-190.31-4.89 c-58.42,3.29-112.53,6.37-171.09,4.89c-48.88,1.65-101.35-4.78-150.23-1.38c-31.45,2.28-62.9-0.27-94.26-2.6 c-51.21-3.82-102.43,3.5-153.65,1.54c-47.32-1.49-94.51,0.66-141.82,4.3c-69.42,5.34-123.07-4.27-184.22,5.34 c-42.7,6.21-117.34,0-137.13,24.46S10.02,161.51,11.04,200.64c3.07,69.09,2.53,138.33,7.3,207.3c3.12,54.9,7.53,108.26,12.91,164.34 c3.77,39.27,1.22,130.93,21,155.39c19.79,24.46,68.58,16.12,109.28,20.37c43.87,5.26,88.17,6.96,132.28,3.35 c67.63-4.88,135.54-3.66,203.17-8.49C496.97,742.89,935.24,752.24,1013.34,750.33z"/>
</svg>
