<svg version="1.1" xmlns="http://www.w3.org/2000/svg" viewBox="0 0 80.51 80.32">
  <path fill="currentColor" d="M26.49,7.88c-3.88,0.1-7.25,1.13-10.39,2.89c-1.57,0.9-3.1,2.01-4.58,3.49c-0.72,0.76-1.45,1.58-2.12,2.58 c-0.34,0.49-0.65,1.03-0.95,1.59c-0.29,0.55-0.5,1.06-0.76,1.62c-0.17,0.37-0.36,0.8-0.59,1.32c-0.19,0.54-0.42,1.16-0.68,1.9 c-0.52,1.48-1.08,3.47-1.58,6.2c-0.5,3.04-0.74,6.66-0.43,10.58c0.31,3.91,1.13,8.12,2.59,12.27c0.74,2.07,1.56,4.15,2.58,6.16 c0.48,1.02,1.02,2.01,1.57,2.99c0.27,0.49,0.54,0.98,0.89,1.52l0.5,0.79l0.56,0.75c3.02,3.95,7,6.68,11.05,8.58 c4.08,1.88,8.32,2.88,12.27,3.08c0.29,0.02,0.58,0.03,0.86,0.05c0.28-0.02,0.55-0.04,0.83-0.06c0.45-0.04,0.89-0.07,1.32-0.1 c0.87-0.08,1.72-0.16,2.53-0.24c0.82-0.1,1.61-0.2,2.38-0.29c0.76-0.12,1.5-0.23,2.2-0.34c2.81-0.47,5.08-1.08,6.64-1.52 c0.78-0.25,1.38-0.45,1.79-0.59c0.41-0.13,0.62-0.22,0.62-0.22s0.72-0.26,2.01-0.79c1.27-0.58,3.15-1.38,5.29-2.8 c2.16-1.41,4.52-3.29,6.82-5.98c2.16-2.79,3.97-6.04,5.35-9.71c2.75-7.34,3.32-16.4,0.8-24.54c-1.23-4.06-3.21-7.85-5.68-11.01 c-0.65-0.77-1.23-1.56-1.93-2.27c-0.71-0.69-1.41-1.38-2.1-2.04c-0.73-0.62-1.51-1.16-2.24-1.71c-0.75-0.48-1.48-0.96-2.2-1.42 c-3.19-1.9-5.95-3.01-8.15-3.78c-1.1-0.41-2.07-0.69-2.91-0.93c-0.83-0.26-1.54-0.42-2.11-0.55c-4.64-1.09-8.43-1.17-11.92-0.71 C33.18,5.08,29.93,6.1,26.49,7.88c3.87,0.04,6.96,0.51,10.14,1.01c3.18,0.53,6.46,1.1,10.56,2.11c0.51,0.12,1.13,0.27,1.87,0.5 c0.74,0.22,1.6,0.46,2.57,0.83c1.94,0.68,4.37,1.67,7.09,3.3c0.61,0.39,1.23,0.79,1.86,1.2c0.58,0.45,1.19,0.87,1.77,1.35 c0.54,0.53,1.09,1.07,1.64,1.62c0.55,0.55,1.03,1.23,1.57,1.85c2.02,2.59,3.65,5.71,4.69,9.1c2.12,6.79,1.65,14.56-0.68,20.79 c-1.17,3.11-2.75,5.9-4.38,8.02c-0.85,0.99-1.8,1.95-2.74,2.74c-0.93,0.81-1.86,1.47-2.73,2.05c-1.74,1.16-3.33,1.84-4.39,2.33 c-1.11,0.44-1.71,0.68-1.71,0.68s-0.18,0.08-0.54,0.19c-0.36,0.12-0.88,0.29-1.56,0.51c-1.38,0.39-3.38,0.92-5.94,1.35 c-0.64,0.1-1.32,0.2-2.02,0.31c-0.71,0.09-1.45,0.18-2.21,0.27c-0.77,0.07-1.57,0.15-2.39,0.23c-0.41,0.03-0.83,0.06-1.26,0.1 c-0.58,0.05-0.4,0.04-0.95,0.01c-3.2-0.16-6.73-0.99-10.11-2.55c-3.36-1.56-6.62-3.87-8.82-6.79l-0.41-0.54l-0.36-0.58 c-0.24-0.36-0.49-0.8-0.74-1.26c-0.51-0.89-0.99-1.79-1.42-2.7c-0.91-1.8-1.64-3.66-2.3-5.5c-1.3-3.69-2.02-7.4-2.29-10.8 c-0.27-3.41-0.06-6.53,0.36-9.13c0.43-2.33,0.9-4.03,1.34-5.29c0.22-0.63,0.41-1.16,0.57-1.62c0.2-0.45,0.36-0.82,0.5-1.15 c0.21-0.46,0.41-0.97,0.6-1.37c0.19-0.38,0.37-0.76,0.59-1.12c0.4-0.73,0.89-1.41,1.36-2.08c0.98-1.31,2.02-2.5,3.09-3.64 c1.08-1.14,2.2-2.21,3.45-3.27C23.42,9.85,24.8,8.81,26.49,7.88z"/>
  <path fill="currentColor" d="M7.81,30.52c0.49-1.87,1.3-3.39,2.14-4.77c0.86-1.37,1.75-2.6,2.78-3.76c2.03-2.33,4.26-4.58,7.6-7.06 c0.59-0.39,1.31-0.96,2.46-1.69c0.58-0.35,1.26-0.75,2.04-1.22c0.79-0.43,1.66-0.9,2.73-1.33c0.42-0.19,1.15-0.44,1.77-0.66 c0.31-0.12,0.6-0.19,0.81-0.25c0.21-0.06,0.34-0.1,0.34-0.1s0.11-0.03,0.29-0.08c0.18-0.05,0.43-0.11,0.72-0.16 c0.57-0.12,1.27-0.26,1.77-0.32c3.04-0.46,5.59-0.27,7.57-0.02c1.99,0.28,3.46,0.62,4.45,0.89c4.03,1.1,7.16,2.28,10.21,3.37 c3.04,1.13,6.03,2.17,9.5,3.85c-2.3-3.13-4.65-5.5-7.44-7.62c-2.81-2.08-6.1-3.94-10.74-5.25c-1.14-0.33-2.84-0.74-5.21-1.07 c-2.36-0.3-5.44-0.55-9.21,0.02c-0.63,0.07-1.49,0.25-2.2,0.41c-0.36,0.07-0.67,0.15-0.89,0.22c-0.22,0.06-0.36,0.1-0.36,0.1 s-0.16,0.04-0.43,0.11c-0.26,0.07-0.63,0.15-1.02,0.29c-0.78,0.26-1.7,0.57-2.21,0.82c-1.32,0.53-2.43,1.13-3.35,1.64 c-0.89,0.54-1.66,1-2.32,1.4c-1.31,0.83-2.16,1.51-2.83,1.97c-3.86,2.92-6.26,6.17-7.74,9.5c-0.75,1.66-1.21,3.41-1.45,5.19 C7.38,26.75,7.36,28.63,7.81,30.52z"/>
  <path fill="currentColor" d="M56.53,22.76c-0.07,0.06-0.11,0.16-0.2,0.29c-0.69,0.91-3.19,3.4-5.26,7.11c-0.13,0.4-0.41,0.71-0.51,0.82 c-0.86,0.9-1.37,2.46-1.67,2.92c-0.11,0.4-0.39,0.75-0.66,0.98c-0.11,0.11-0.49,0.59-0.9,1.2c-0.4,0.6-0.99,1.41-1.31,1.74 c-0.18,0.21-0.72,1.58-2.49,4.22c-1.61,2.41-1.81,2.34-2.21,2.9c-0.39,0.55-1.11,1.58-1.61,2.29c-2.31,3.31-2.95,3.31-3.33,3.31 c-0.94,0-1.97-3.67-2.34-5.07c-0.22-0.83-0.64-2.34-0.95-3.37c-0.28-0.97-0.62-2.33-0.68-2.94c-0.09-0.93-1.04-2.7-2.89-4.39 c-1.24-1.13-1.7-1.26-3.49-1.01c-1.11,0.15-3.8,2.46-3.86,2.58c-0.12,0.32-0.35,0.66-0.66,0.89c-0.03,0.14-0.07,0.27-0.14,0.39 c0.01,0.02,0.02,0.04,0.03,0.07c0.65,0.28,1.13,1.04,1.29,1.76c0.01,0.06,0.09,0.31,0.19,0.57c0.22,0.59,1.64,5.89,2.05,7.61 c0.11,0.44,0.26,0.87,0.31,0.96c0.53,0.98,1.11,4.18,1.08,5.45c0,0.15,0,0.27,0,0.36c0.3,0.26,0.57,0.74,0.69,1.58 c0.18,1.26,1.45,3.65,1.59,3.68c0.66,0.04,1.28,0.55,1.62,1.35c0.1,0.22,0.51,0.51,1.35,0.93l1.31,0.66l2.2-0.09 c1.92-0.08,2.48-0.2,3.08-0.49c1.48-0.72,4.48-3.82,6.59-7.31c0.44-0.73,1.12-1.79,1.51-2.37c0.36-0.53,0.86-1.39,1.09-1.88 c0.24-0.5,0.58-1.17,0.73-1.42c1.55-2.55,0.83-1.31,1.2-2.1c0.27-0.58,0.74-1.47,1.05-1.99c0.29-0.48,0.82-1.42,1.2-2.09 c1.35-2.42,0.63-0.99,0.96-1.4c0.08-0.17,0.19-0.36,0.33-0.59c0.11-0.19,0.19-0.34,0.23-0.44c0.02-0.26,0.13-0.67,0.49-1.37 c0.22-0.42,0.5-1,0.63-1.27l0.99-2.12c0.13-0.28,0.22-0.5,0.29-0.66c-0.15-0.21-0.22-0.45-0.23-0.68c-0.01-0.49,0.29-1.11,1.16-1.33 c0.16-0.41,0.48-1.07,0.73-1.54c0.28-0.53,0.58-1.08,0.69-1.32c0-0.44,0.25-0.84,0.53-1.14c-0.05-0.26-0.03-0.52,0.07-0.76 c0.06-0.15,0.15-0.27,0.26-0.38c0.12-0.27,0.19-0.93,0.58-1.68C60.18,24.43,59.33,20.18,56.53,22.76z"/>
</svg>
