<?xml version="1.0" encoding="utf-8"?>
<!-- Generator: Adobe Illustrator 24.1.2, SVG Export Plug-In . SVG Version: 6.00 Build 0)  -->
<svg version="1.1" id="Layer_1" xmlns="http://www.w3.org/2000/svg" xmlns:xlink="http://www.w3.org/1999/xlink" x="0px" y="0px"
	 viewBox="0 0 189.53 21.17" style="enable-background:new 0 0 189.53 21.17;" xml:space="preserve">
<style type="text/css">
	.st0{fill:#37474F;}
</style>
<path class="st0" d="M1450.4,268.12c-2.59-0.01-10.34,0-13.91-0.09c-5.42-0.14-46.91-1.31-52.36-1.48
	c-5.21-0.16-17.39-1.36-19.21-1.57c-0.2-0.2,0.43-0.19,1.29-0.21c1.14-0.03,2.6,0.31,5.46,0.32s12.22,0.87,19.59,1.01
	c7.37,0.14,46.98,1.1,52.7,1.32c1.96,0.08,3.92,0.16,5.88,0.25C1454.27,267.86,1452.99,268.13,1450.4,268.12z"/>
<path class="st0" d="M166.68,13.09c-4.79-0.04-19.16,1.97-25.67,1.65c-9.9-0.48-84.98-3-95.35-3.72c-9.35-0.65-30.5-1.26-32.95-2.27
	c-0.15-1.45-0.98-2.43,0.62-2.66c2.13-0.3,4.17-0.26,9.47-0.46S45.88,8.79,59.37,9.1c13.62,0.3,83.24,0.78,96.16-0.44
	c4.37-0.61,7.08-0.18,10.62,0.26C169.19,9.31,169.19,13.11,166.68,13.09z"/>
</svg>
