<?xml version="1.0" encoding="utf-8"?>
<!-- Generator: Adobe Illustrator 25.0.0, SVG Export Plug-In . SVG Version: 6.00 Build 0)  -->
<svg version="1.1" id="Calque_1" xmlns="http://www.w3.org/2000/svg" xmlns:xlink="http://www.w3.org/1999/xlink" x="0px" y="0px"
	 viewBox="0 0 62.2 60" style="enable-background:new 0 0 62.2 60;" xml:space="preserve">
<g>
	<g style="opacity:0.5;">
		<path style="fill:#E28B17;" d="M55.3,25.3c-0.5,0-0.5,0.2-1,0.2c-0.5,0-0.5,0-1,0c-0.5,0-0.5-0.4-1-0.4c-0.5,0-0.5,0.2-1,0.2
			c-0.5,0-0.5-0.2-1-0.2c-0.5,0-0.5-0.1-1-0.1c-0.5,0-0.5,0.5-1,0.5c-0.5,0-0.5-0.2-1-0.2c-0.5,0-0.5,0-1,0c-0.5,0-0.5,0.1-1,0.1
			c-0.5,0-0.5-0.2-1-0.2c-0.5,0-0.5,0-1,0c-0.5,0-0.5,0.1-1,0.1c-0.5,0-0.5,0-1,0c-0.5,0-0.5,0-1,0c-0.5,0-0.5,0.3-1,0.3
			c-0.5,0-0.5-0.4-1-0.4c-0.5,0-0.5-0.1-1-0.1s-0.5,0.1-1,0.1c0,0,0,0.4,0,0.4c-0.5,0-0.5-0.5-0.9-0.5c-0.5,0-0.5,0.2-0.9,0.2
			c-0.5,0-0.5,0.1-0.9,0.1c-0.5,0-0.5,0-0.9,0c-0.5,0-0.7-0.4-1,0c-0.2,0.3,0.2,0.4,0.4,0.7s0,0.4,0.2,0.7c0.2,0.3,0.3,0.5,0.4,0.9
			c0.1,0.3,0.5,0.7,0.4,1c0,0.3-0.3,0.7-0.5,1c-0.1,0.3-0.4,0.5-0.6,0.8c-0.2,0.2-0.4,0.5-0.8,0.6c-0.2,0.1-0.5,0.3-0.7,0.4
			c-0.3,0.1-0.6-0.1-0.8-0.1c-0.3,0-0.6,0.3-0.9,0.2c-0.3-0.1-0.4-0.5-0.7-0.6c-0.2-0.1-0.4-0.3-0.6-0.5c-0.2-0.2-0.5-0.3-0.6-0.5
			c-0.3-0.5-0.2-0.5-0.4-1c-0.3-0.5-0.3-0.4-0.6-0.9c-0.3-0.5-0.3-0.4-0.6-0.9c-0.3-0.5-0.2-0.5-0.5-0.9c-0.3-0.5-0.2-0.5-0.7-0.8
			C24.2,25,24.2,25,23.7,25c-0.5,0-0.5,0.2-1,0.2c-0.5,0-0.5-0.2-1-0.2c-0.5,0-0.5,0.3-1,0.3c-0.5,0-0.5-0.2-1-0.2
			c-0.5,0-0.5,0.1-1,0.1c-0.5,0-0.5,0.3-1,0.3c-0.5,0-0.5-0.1-1-0.1c-0.5,0-0.5-0.2-1-0.2c-0.5,0-0.5,0.3-1,0.3
			c-0.5,0-0.5-0.2-1-0.2c-0.5,0-0.5,0-1,0c-0.5,0-0.5-0.1-1-0.1c-0.5,0-0.5,0.1-1,0.1c-0.5,0-0.5-0.1-1-0.1c-0.5,0-0.5,0-1,0
			c-0.5,0-0.5,0-1,0c-0.5,0-0.5,0-1,0c-0.5,0-0.5,0-1,0S5.9,25,5.5,25c-0.4,0-0.8,0-1.1,0.1c-0.3,0.1-0.6,0.5-0.8,0.8
			c-0.2,0.2-0.4,0.6-0.6,0.9c-0.1,0.3,0.1,0.7,0.1,1c0,0.5-0.1,0.5-0.1,1c0,0.5-0.4,0.5-0.4,1c0,0.5,0.4,0.5,0.4,1
			c0,0.5,0.1,0.5,0.1,1c0,0.5,0,0.5,0,1c0,0.5-0.2,0.5-0.2,1c0,0.5,0.1,0.5,0.1,1c0,0.5-0.4,0.5-0.4,1c0,0.4,0.4,0.7,0.5,1
			c0.1,0.3,0.3,0.5,0.6,0.8c0.2,0.2,0.4,0.6,0.7,0.7c0.3,0.1,0.7,0.2,1,0.2c0.1,0,0.3-0.2,0.3-0.1c0.2,0.4-0.3,0.5-0.2,1
			c0.1,0.5,0.3,0.4,0.3,0.9C6,40.8,6,40.8,6,41.3c0.1,0.5,0.2,0.5,0.2,0.9c0.1,0.5,0.3,0.4,0.4,0.9c0.1,0.5,0,0.5,0.1,0.9
			c0.1,0.5,0,0.5,0.1,0.9c0.1,0.5,0.1,0.5,0.2,0.9c0.1,0.5-0.3,0.5-0.2,1c0.1,0.5,0.2,0.4,0.3,0.9c0.1,0.5-0.1,0.5,0,1
			c0.1,0.5,0.4,0.4,0.5,0.9c0.1,0.5,0.1,0.5,0.2,0.9c0.1,0.5,0,0.5,0.1,1C7.9,52,8,52,8,52.5c0.1,0.5-0.2,0.5-0.2,1
			c0,0.3,0.5,0.5,0.6,0.7c0.1,0.3,0.1,0.6,0.2,0.8c0.2,0.2,0.2,0.7,0.4,0.9c0.2,0.2,0.7-0.1,1,0c0.3,0.1,0.5,0.3,0.8,0.3
			c0.5,0,0.5-0.1,0.9-0.1c0.5,0,0.5-0.1,1-0.1c0.5,0,0.5,0.4,0.9,0.4c0.5,0,0.5-0.2,0.9-0.2c0.5,0,0.5-0.3,0.9-0.3
			c0.5,0,0.5,0.2,0.9,0.2c0.5,0,0.5,0.1,0.9,0.1c0.5,0,0.5,0,0.9,0c0.5,0,0.5,0.2,0.9,0.2c0.5,0,0.5-0.1,0.9-0.1
			c0.5,0,0.5-0.4,0.9-0.4c0.5,0,0.5,0,1,0c0.5,0,0.5,0,1,0c0.5,0,0.5,0,0.9,0c0.5,0,0.5,0.4,0.9,0.4c0.5,0,0.5-0.3,0.9-0.3
			c0.5,0,0.5,0.3,0.9,0.3c0.5,0,0.5-0.2,1-0.2c0.5,0,0.5-0.2,1-0.2c0.5,0,0.5,0.2,1,0.2c0.5,0,0.5,0.1,0.9,0.1c0.5,0,0.5,0.2,1,0.2
			c0.5,0,0.5-0.4,1-0.4c0.5,0,0.5,0.3,1,0.3c0.5,0,0.5-0.1,1-0.1c0.5,0,0.5,0.2,1,0.2c0.5,0,0.5-0.3,1-0.3c0.5,0,0.5,0.1,0.9,0.1
			c0.5,0,0.5-0.3,0.9-0.3c0.5,0,0.5,0,0.9,0c0.5,0,0.5,0.1,1,0.1c0.5,0,0.5,0,1,0c0.5,0,0.5-0.1,1-0.1c0.5,0,0.5,0,1,0
			c0.5,0,0.5,0,1,0c0.5,0,0.5,0.3,1,0.3c0.5,0,0.5,0,1,0c0.5,0,0.5-0.2,1-0.2c0.5,0,0.5-0.1,1-0.1c0.5,0,0.5,0.4,1,0.4
			s0.5-0.4,1-0.4c0.3,0,0.6,0,0.8-0.1c0.3-0.1,0.4-0.3,0.7-0.5c0.2-0.2,0.8,0,1-0.2c0.2-0.2,0-0.7,0.1-1c0.1-0.3,0-0.6,0-0.9
			c0.1-0.5,0.4-0.4,0.5-0.9c0.1-0.5,0.2-0.4,0.3-0.9c0.1-0.5-0.4-0.5-0.3-1c0.1-0.5,0.1-0.5,0.1-0.9c0.1-0.5,0.5-0.4,0.5-0.9
			c0.1-0.5-0.3-0.5-0.2-1c0.1-0.5,0.1-0.5,0.2-0.9c0.1-0.5,0.5-0.4,0.6-0.9c0.1-0.5-0.1-0.5,0-1c0.1-0.5-0.1-0.5,0-1
			c0.1-0.5-0.2-0.5-0.1-1c0.1-0.5,0.3-0.4,0.4-0.9c0.1-0.5-0.1-0.5,0-1c0.1-0.5,0-0.5,0.1-0.9c0.1-0.5,0.3-0.4,0.4-0.9
			c0.1-0.5,0-0.5,0.1-1c0-0.1,0.1,0.1,0.2,0.1c0.4,0,0.8,0,1.1-0.1c0.3-0.1,0.4-0.6,0.7-0.8c0.2-0.2,0.6-0.4,0.7-0.7
			c0.1-0.3-0.1-0.7-0.1-1c0-0.5,0.3-0.5,0.3-1c0-0.5,0.1-0.5,0.1-1c0-0.5,0.1-0.5,0.1-1c0-0.5-0.5-0.5-0.5-1c0-0.5,0.4-0.5,0.4-1
			c0-0.5-0.3-0.5-0.3-1c0-0.5,0-0.5,0-1s0-0.5,0-1c0-0.4-0.2-0.6-0.3-1c-0.1-0.3-0.1-0.7-0.4-1c-0.2-0.2-0.6-0.4-0.9-0.5
			C56,25.3,55.7,25.3,55.3,25.3z M19.1,51.7c0,0.3-0.1,0.9-0.3,1.1c-0.2,0.2-0.7,0.4-1.1,0.4c0,0,0-0.4-0.1-0.4
			c-0.3,0-0.7,0-0.9-0.2c-0.2-0.2-0.2-0.6-0.2-0.9c0-0.5,0.1-0.5,0.1-0.9c0-0.5-0.5-0.5-0.5-0.9c0-0.5,0.2-0.5,0.2-0.9
			c0-0.5,0-0.5,0-0.9c0-0.5-0.1-0.5-0.1-0.9c0-0.5,0.2-0.5,0.2-0.9c0-0.5,0-0.5,0-0.9c0-0.5-0.1-0.5-0.1-0.9c0-0.5,0-0.5,0-0.9
			c0-0.5,0-0.5,0-0.9c0-0.5-0.3-0.5-0.3-0.9s0.4-0.5,0.4-0.9c0-0.3,0.1-0.5,0.4-0.7c0.2-0.2,0.4-0.4,0.7-0.4c0,0,0-0.4,0.1-0.4
			c0.3,0,0.5,0.6,0.7,0.8c0.2,0.2,0.5,0.4,0.5,0.7C19,41,19,41,19,41.5c0,0.5,0,0.5,0,0.9c0,0.5-0.1,0.5-0.1,0.9c0,0.5,0,0.5,0,0.9
			c0,0.5-0.2,0.5-0.2,0.9c0,0.5,0,0.5,0,0.9c0,0.5,0.4,0.5,0.4,0.9c0,0.5-0.2,0.5-0.2,0.9c0,0.5-0.1,0.5-0.1,0.9c0,0.5,0,0.5,0,0.9
			c0,0.5,0,0.5,0.1,0.9C19.1,51.2,19.1,51.2,19.1,51.7z M31.2,51.7c0,0.3-0.1,0.9-0.3,1.1c-0.2,0.2-0.7,0.4-1.1,0.4
			c0,0,0-0.4-0.1-0.4c-0.3,0-0.7,0-0.9-0.2c-0.2-0.2-0.2-0.6-0.2-0.9c0-0.5,0.1-0.5,0.1-0.9c0-0.5-0.5-0.5-0.5-0.9
			c0-0.5,0.2-0.5,0.2-0.9c0-0.5,0-0.5,0-0.9c0-0.5-0.1-0.5-0.1-0.9c0-0.5,0.2-0.5,0.2-0.9c0-0.5,0-0.5,0-0.9c0-0.5-0.1-0.5-0.1-0.9
			c0-0.5,0-0.5,0-0.9c0-0.5,0-0.5,0-0.9c0-0.5-0.3-0.5-0.3-0.9s0.4-0.5,0.4-0.9c0-0.3,0.1-0.5,0.4-0.7c0.2-0.2,0.4-0.4,0.7-0.4
			c0,0,0-0.4,0.1-0.4c0.3,0,0.5,0.6,0.7,0.8c0.2,0.2,0.5,0.4,0.5,0.7c0,0.5,0.1,0.5,0.1,0.9c0,0.5,0,0.5,0,0.9
			c0,0.5-0.1,0.5-0.1,0.9c0,0.5,0,0.5,0,0.9c0,0.5-0.2,0.5-0.2,0.9c0,0.5,0,0.5,0,0.9c0,0.5,0.4,0.5,0.4,0.9c0,0.5-0.2,0.5-0.2,0.9
			c0,0.5-0.1,0.5-0.1,0.9c0,0.5,0,0.5,0,0.9c0,0.5,0,0.5,0.1,0.9C31.2,51.2,31.2,51.2,31.2,51.7z M43.2,51.7c0,0.3-0.1,0.9-0.3,1.1
			c-0.2,0.2-0.7,0.4-1.1,0.4c0,0,0-0.4-0.1-0.4c-0.3,0-0.7,0-0.9-0.2c-0.2-0.2-0.2-0.6-0.2-0.9c0-0.5,0.1-0.5,0.1-0.9
			c0-0.5-0.5-0.5-0.5-0.9c0-0.5,0.2-0.5,0.2-0.9c0-0.5,0-0.5,0-0.9c0-0.5-0.1-0.5-0.1-0.9c0-0.5,0.2-0.5,0.2-0.9c0-0.5,0-0.5,0-0.9
			c0-0.5-0.1-0.5-0.1-0.9c0-0.5,0-0.5,0-0.9c0-0.5,0-0.5,0-0.9c0-0.5-0.3-0.5-0.3-0.9s0.4-0.5,0.4-0.9c0-0.3,0.1-0.5,0.4-0.7
			c0.2-0.2,0.4-0.4,0.7-0.4c0,0,0-0.4,0.1-0.4c0.3,0,0.5,0.6,0.7,0.8c0.2,0.2,0.5,0.4,0.5,0.7c0,0.5,0.1,0.5,0.1,0.9
			c0,0.5,0,0.5,0,0.9c0,0.5-0.1,0.5-0.1,0.9c0,0.5,0,0.5,0,0.9c0,0.5-0.2,0.5-0.2,0.9c0,0.5,0,0.5,0,0.9c0,0.5,0.4,0.5,0.4,0.9
			c0,0.5-0.2,0.5-0.2,0.9c0,0.5-0.1,0.5-0.1,0.9c0,0.5,0,0.5,0,0.9c0,0.5,0,0.5,0.1,0.9C43.2,51.2,43.2,51.2,43.2,51.7z"/>
	</g>
	<g style="opacity:0.5;">
		<path style="fill:#E28B17;" d="M30.9,29.7L30.9,29.7c-0.3,0.2-0.6,0.3-0.9,0.3c-0.3,0-0.7-0.1-1-0.2c-0.3-0.2-0.6-0.4-0.7-0.7
			c-0.2-0.4-0.2-0.4-0.4-0.9c-0.2-0.4-0.1-0.5-0.3-0.9c-0.2-0.4-0.4-0.3-0.6-0.8c-0.2-0.4-0.1-0.5-0.4-0.9c-0.2-0.4-0.3-0.4-0.5-0.8
			c-0.2-0.4-0.2-0.4-0.4-0.8c-0.2-0.4-0.4-0.3-0.6-0.7c-0.2-0.4-0.2-0.5-0.4-0.9c-0.2-0.4-0.3-0.4-0.6-0.8c-0.2-0.4-0.2-0.5-0.4-0.9
			c-0.2-0.4-0.2-0.4-0.4-0.8c-0.2-0.4-0.3-0.4-0.5-0.8c-0.2-0.4-0.3-0.4-0.6-0.8c-0.2-0.4-0.2-0.4-0.4-0.8c-0.2-0.4-0.2-0.4-0.5-0.8
			c-0.2-0.4-0.2-0.4-0.5-0.8c-0.2-0.4-0.2-0.4-0.4-0.9c-0.2-0.4-0.3-0.4-0.5-0.8c-0.2-0.4-0.2-0.4-0.5-0.8c-0.2-0.4-0.3-0.4-0.5-0.8
			c-0.2-0.4-0.2-0.5-0.4-0.9s-0.3-0.4-0.6-0.8c-0.2-0.3-0.1-0.6-0.1-0.9c0-0.3,0.1-0.6,0.2-0.9c0.2-0.3,0.3-0.6,0.6-0.8
			c0,0,0,0.1,0,0.1c0.3-0.2,0.6-0.3,0.9-0.3c0.3,0,0.6,0.2,0.9,0.3c0.3,0.2,0.5,0.4,0.6,0.7c0.2,0.4,0.3,0.4,0.5,0.8
			c0.2,0.4,0.2,0.5,0.4,0.9c0.2,0.4,0.2,0.4,0.4,0.8c0.2,0.4,0.3,0.3,0.6,0.8c0.2,0.4,0.2,0.4,0.4,0.9c0.2,0.4,0.3,0.4,0.5,0.8
			c0.2,0.4,0.3,0.4,0.5,0.8c0.2,0.4,0.2,0.4,0.5,0.8c0.2,0.4,0.1,0.5,0.4,0.9c0.2,0.4,0.3,0.3,0.6,0.8c0.2,0.4,0.3,0.4,0.5,0.8
			c0.2,0.4,0.1,0.5,0.3,0.9c0.2,0.4,0.3,0.4,0.5,0.8c0.2,0.4,0.2,0.4,0.4,0.8c0.2,0.4,0.2,0.4,0.5,0.8c0.2,0.4,0.3,0.4,0.5,0.8
			c0.2,0.4,0.1,0.5,0.4,0.9c0.2,0.4,0.4,0.3,0.6,0.7c0.2,0.4,0.1,0.5,0.4,0.9c0.2,0.4,0.2,0.4,0.4,0.8c0.2,0.4,0.3,0.4,0.6,0.8
			c0.2,0.4,0.3,0.4,0.5,0.8c0.2,0.3,0.1,0.6,0.1,0.9c0,0.3-0.1,0.6-0.2,0.9C31.3,29.2,31.2,29.5,30.9,29.7z"/>
	</g>
	<g>
		<path style="fill:#E28B17;" d="M10.8,23c-0.1-0.3,0-0.6,0-0.9c0-0.3-0.1-0.7,0-1c0.1-0.3,0.2-0.6,0.3-0.9c0.1-0.3,0.2-0.6,0.4-0.9
			c0.2-0.3,0.3-0.6,0.5-0.9c0.2-0.3,0.5-0.4,0.7-0.7c0.2-0.2,0.5-0.4,0.8-0.6c0.1-0.3-0.1-0.3-0.1-0.6c0-0.3,0-0.6-0.1-0.9
			c-0.1-0.3-0.2-0.6-0.4-0.9c-0.2-0.2-0.4-0.4-0.7-0.6c-0.2-0.2-0.6-0.3-0.8-0.4c-0.1-0.4,0-0.5,0-0.9c0-0.5,0.1-0.5,0.1-0.9
			c0-0.5-0.1-0.5-0.1-0.9c0-0.5,0-0.5,0-0.9c0-0.5-0.1-0.5-0.1-0.9c0-0.5,0.1-0.5,0.1-0.9c0-0.5,0.3-0.7,0-1
			c-0.4-0.4-0.6,0.1-1.1,0.1c-0.6,0-0.6,0-1.1,0C8.5,7.5,8.4,7,8,7.4c-0.3,0.3,0,0.5,0,0.9C7.9,8.8,8,8.8,8,9.2
			c0,0.5-0.1,0.5-0.1,0.9c0,0.5,0.1,0.5,0.1,0.9c0,0.5-0.1,0.5-0.1,0.9c0,0.5,0.1,0.5,0.1,0.9s0.1,0.5-0.1,0.9
			c-0.3,0.1-0.6,0.2-0.9,0.3c-0.3,0.2-0.4,0.5-0.6,0.7c-0.2,0.2-0.4,0.5-0.5,0.8c-0.1,0.3-0.1,0.6-0.1,0.9c0,0.5,0,0.5,0,0.9
			c0,0.5,0.1,0.5,0.1,0.9c0,0.5-0.1,0.5-0.1,0.9c0,0.5,0.1,0.5,0.1,0.9c0,0.5,0,0.5,0,0.9c0,0.5,0,0.5,0,0.9s-0.4,0.6-0.1,1
			c0.3,0.3,0.5,0,1,0c0.5,0,0.5,0,1,0c0.5,0,0.5,0,1,0c0.5,0,0.5-0.1,1,0C10.3,23.1,10.3,23.2,10.8,23z"/>
	</g>
	<g>
		<path style="fill:#E28B17;" d="M54,23.1c0.1-0.3,0.2-0.5,0.2-0.8c0.1-0.3,0.1-0.6,0.1-0.9c0-0.2-0.1-0.5-0.1-0.7c0.3,0,0.6-0.1,0.9-0.1
			c0.3-0.1,0.6-0.2,0.8-0.3c0.3-0.1,0.6-0.1,0.8-0.3c0.3-0.1,0.5-0.3,0.8-0.4c0.3-0.2,0.4-0.4,0.6-0.6c0.2-0.2,0.5-0.4,0.6-0.6
			c0.2-0.3,0.2-0.6,0.3-0.8c0.1-0.3,0.2-0.6,0.3-0.8c0-0.3,0.1-0.6,0.1-0.9c0-0.5,0.1-0.5-0.2-0.8c-0.3,0-0.6,0-0.9-0.1
			c-0.3,0-0.6,0-0.9,0c-0.3,0-0.6-0.1-0.9,0c-0.3,0-0.6,0.1-0.9,0.1c-0.3,0.1-0.6,0.2-0.8,0.4c-0.3,0.1-0.6,0.2-0.8,0.4
			c-0.3,0.2-0.5,0.4-0.6,0.6c-0.2,0.2-0.4,0.4-0.6,0.7c-0.2,0.3-0.3,0.5-0.4,0.8c-0.3-0.2-0.5-0.3-0.8-0.5c-0.3-0.1-0.6-0.3-0.9-0.3
			c-0.3-0.1-0.6-0.1-1-0.1c-0.3,0-0.6,0-0.9,0c-0.3,0.1-0.6,0.2-0.8,0.3c-0.3,0.1-0.5,0.2-0.8,0.4c-0.2,0.2-0.4,0.4-0.7,0.6
			c-0.2,0.2-0.4,0.4-0.6,0.7c-0.2,0.2-0.3,0.5-0.4,0.8c-0.1,0.3-0.2,0.6-0.3,0.8c-0.1,0.3,0,0.6,0,0.9c0,0.3,0,0.6,0,0.9
			c0.1,0.3,0.2,0.6,0.3,0.9c0.4,0.1,0.4,0,0.8,0c0.4,0,0.4-0.1,0.8-0.1c0.4,0,0.4,0,0.8,0c0.4,0,0.4,0,0.8,0c0.4,0,0.4,0,0.8,0
			c0.4,0,0.4,0,0.8,0c0.4,0,0.4,0,0.8,0c0.4,0,0.4,0.1,0.8,0.1c0.4,0,0.4-0.1,0.8-0.1C53.6,23.1,53.6,23.2,54,23.1z"/>
	</g>
	<g>
		<path style="fill:#E28B17;" d="M43.8,23c-0.1-0.3-0.1-0.6-0.2-0.9c0-0.3-0.1-0.6-0.1-0.9c0-0.3,0-0.7,0.1-1c0.1-0.3,0.1-0.7,0.2-1
			c0.1-0.3,0.3-0.6,0.4-0.9c0.2-0.3,0.3-0.6,0.5-0.8c0.1-0.4,0-0.4,0-0.8c0-0.4,0-0.4,0-0.8c0-0.4-0.1-0.4-0.1-0.8
			c0-0.4-0.1-0.7-0.4-1c-0.3-0.3-0.6-0.4-1-0.4c-0.5,0-0.5,0-1,0s-0.6,0.3-1,0c-0.4-0.4,0-0.5,0-1c0-0.4-0.3-0.6-0.7-0.6
			c-0.4,0-0.4-0.1-0.8-0.1s-0.4,0-0.8,0c-0.4,0-0.7,0.3-0.7,0.7c0,0.5,0.3,0.6,0,1c-0.4,0.4-0.5,0.1-1,0.1s-0.5-0.1-1-0.1
			c-0.4,0-0.7,0.2-1,0.4c-0.3,0.3-0.4,0.6-0.4,1c0,0.4,0,0.4,0,0.9c0,0.4,0,0.4,0,0.9c0,0.4,0,0.4,0,0.9c0,0.4,0,0.4,0,0.9
			c0,0.4,0,0.4,0,0.9c0,0.4,0.1,0.4,0.1,0.9c0,0.4-0.1,0.4-0.1,0.9c0,0.4,0.1,0.4,0.1,0.9c0,0.4-0.4,0.6-0.1,0.9c0.4,0.3,0.5,0,1,0
			c0.5,0,0.5,0,1,0c0.5,0,0.5-0.1,1-0.1c0.5,0,0.5,0.1,1,0.1c0.5,0,0.5,0,1,0c0.5,0,0.5-0.1,1-0.1c0.5,0,0.5,0,1,0c0.5,0,0.5,0,1,0
			C43.4,23.1,43.4,23.2,43.8,23z"/>
	</g>
	<g>
		<path style="fill:#E28B17;" d="M29.8,19.7c0,0.2-0.1,0.1-0.3,0.2c0.1,0.4,0.3,0.4,0.5,0.8c0.2,0.4,0.3,0.4,0.5,0.8c0.2,0.4,0.1,0.5,0.4,0.9
			c0.2,0.4,0.1,0.5,0.5,0.7c0.4,0.2,0.4,0,0.9,0c0.5,0,0.6,0.4,1,0.1c0.3-0.3-0.1-0.5-0.1-1c0-0.5,0-0.5,0-0.9c0-0.5,0-0.5,0-0.9
			c0-0.5,0.1-0.5,0.1-0.9c0-0.5,0-0.5,0-0.9c0-0.5,0-0.5,0-0.9c0-0.5,0-0.5,0-0.9c0-0.5,0-0.5,0-0.9s0-0.5,0-0.9
			c0-0.3,0.2-0.6,0.3-0.9c0.1-0.3,0.2-0.6,0.4-0.8c0.2-0.2,0.5-0.3,0.8-0.5c0.3-0.1,0.6-0.2,0.9-0.2c0.3,0,0.4,0.2,0.6,0
			c0.3-0.3,0-0.4,0.1-0.8c0.1-0.4,0.1-0.4,0.2-0.8c0.1-0.4,0.1-0.4,0.2-0.8c0.1-0.3,0.1-0.6,0-0.9c0-0.3-0.1-0.6-0.3-0.9
			c-0.1-0.3-0.3-0.5-0.5-0.8c-0.2-0.2-0.4-0.5-0.7-0.6c-0.3-0.2-0.6-0.3-0.9-0.4c-0.1,0-0.1,0-0.3,0c-0.3-0.1-0.6-0.1-0.9-0.1
			c-0.3,0-0.7,0.1-0.9,0.2c-0.3,0.1-0.5,0.4-0.8,0.6c-0.2,0.2-0.5,0.4-0.6,0.7c-0.2,0.3-0.2,0.6-0.3,0.9c-0.1,0.6-0.3,0.6-0.3,1.2
			c0.2,0.2,0.4,0.4,0.6,0.6c0.2,0.2,0.4,0.4,0.5,0.7c-0.1,0.4-0.2,0.2-0.7,0.3c-0.2,0.1-0.4,0.1-0.7,0.1c-0.2,0.4-0.2,0.4-0.3,0.8
			c-0.1,0.4,0.1,0.5,0,0.9c-0.1,0.4-0.3,0.4-0.2,0.9c0.2,0.2,0.4,0.4,0.6,0.7c0.2,0.2,0.3,0.4,0.5,0.7c-0.1,0.4-0.2,0.1-0.7,0.2
			c-0.2,0.1-0.5,0.2-0.8,0.2c-0.2,0.3-0.2,0.4-0.3,0.8c-0.1,0.4,0,0.4-0.1,0.8c-0.1,0.4-0.2,0.4-0.2,0.8c0,0.2,0.1,0.2,0.3,0.3
			c0.2,0.2,0.4,0.4,0.6,0.6C29.5,19.2,29.6,19.4,29.8,19.7z"/>
	</g>
	<g>
		<path style="fill:#E28B17;" d="M22.1,23c0.1-0.3,0.1-0.6,0.1-0.9c0,0-0.1,0-0.1,0c-0.2-0.4-0.2-0.4-0.4-0.9c-0.2-0.4-0.2-0.4-0.5-0.8
			c-0.2-0.4-0.3-0.4-0.5-0.8c-0.2-0.4-0.3-0.4-0.5-0.8c-0.2-0.4-0.1-0.5-0.4-0.9c-0.2-0.1-0.5-0.2-0.8-0.3c-0.3-0.1-0.5-0.2-0.8-0.3
			c-0.3,0-0.6-0.1-0.8-0.1c-0.3,0-0.6,0.1-0.9,0.1c-0.3,0.1-0.6,0.2-0.9,0.3c-0.3,0.1-0.6,0.3-0.8,0.4c-0.3,0.2-0.5,0.4-0.7,0.6
			c-0.2,0.2-0.5,0.4-0.6,0.7c-0.2,0.3-0.3,0.6-0.4,0.9c-0.1,0.3-0.3,0.6-0.3,0.9c-0.1,0.3-0.1,0.6-0.1,1c0,0.3,0,0.6,0.1,0.9
			c0.5,0.1,0.5,0,0.9,0c0.5,0,0.5,0,0.9,0c0.5,0,0.5,0,1,0c0.5,0,0.5,0,1,0c0.5,0,0.5,0,1,0c0.5,0,0.5,0.1,0.9,0.1
			c0.5,0,0.5-0.1,1-0.1c0.5,0,0.5,0,1,0c0.5,0,0.5,0,1,0C21.7,23.1,21.7,23.1,22.1,23z"/>
	</g>
</g>
</svg>
