<svg xmlns="http://www.w3.org/2000/svg" viewBox="0 0 1132.19 317.69">
  <g>
    <g data-type="compass">
      <g>
        <path fill="#bde0e1" stroke="#bde0e1" stroke-width="2.134" stroke-linecap="round" stroke-linejoin="round" stroke-miterlimit="10" d="M111.82,70.17l10.8,97.81l17.06,10.92C139.68,178.9,111.13,69.76,111.82,70.17z"/>
        <path fill="none" stroke="#bde0e1" stroke-width="2.134" stroke-linecap="round" stroke-linejoin="round" stroke-miterlimit="10" d="M112.05,70.11l37.57,90.95l-9.71,17.78C139.91,178.84,112.46,69.42,112.05,70.11z"/>
      </g>
      <g>
        <path fill="#bde0e1" stroke="#bde0e1" stroke-width="2.134" stroke-linecap="round" stroke-linejoin="round" stroke-miterlimit="10" d="M168.05,288.66l-10.8-97.81l-17.06-10.92C140.19,179.93,168.74,289.07,168.05,288.66z"/>
        <path fill="none" stroke="#bde0e1" stroke-width="2.134" stroke-linecap="round" stroke-linejoin="round" stroke-miterlimit="10" d="M167.82,288.72l-37.57-90.95l9.71-17.78C139.96,179.99,167.41,289.41,167.82,288.72z"/>
      </g>
      <g>
        <path fill="#bde0e1" stroke="#bde0e1" stroke-width="2.134" stroke-linecap="round" stroke-linejoin="round" stroke-miterlimit="10" d="M30.69,207.53l97.81-10.8l10.92-17.06C139.42,179.67,30.28,208.22,30.69,207.53z"/>
        <path fill="none" stroke="#bde0e1" stroke-width="2.134" stroke-linecap="round" stroke-linejoin="round" stroke-miterlimit="10" d="M30.63,207.3l90.95-37.57l17.78,9.71C139.36,179.44,29.94,206.89,30.63,207.3z"/>
      </g>
      <g>
        <path fill="#bde0e1" stroke="#bde0e1" stroke-width="2.134" stroke-linecap="round" stroke-linejoin="round" stroke-miterlimit="10" d="M249.18,151.3l-97.81,10.8l-10.92,17.06C140.45,179.16,249.59,150.61,249.18,151.3z"/>
        <path fill="none" stroke="#bde0e1" stroke-width="2.134" stroke-linecap="round" stroke-linejoin="round" stroke-miterlimit="10" d="M249.24,151.53l-90.95,37.57l-17.78-9.71C140.51,179.39,249.93,151.94,249.24,151.53z"/>
      </g>
      <g>
        <g>
          <path fill="#bde0e1" stroke="#bde0e1" stroke-width="2.134" stroke-linecap="round" stroke-linejoin="round" stroke-miterlimit="10" d="M113.2,51.62c-0.02,0.87,0.01,1.9,0.22,2.73c0.04,0.17,0.1,0.52,0.21,0.58v0.11 c0.01,0.28-0.02,0.61,0.04,0.85c0,0.02,0.01,0.05,0.02,0.07c0.08,0.3,0.06,0.6,0.14,0.9c0.06,0.12,0.1,0.26,0.13,0.41 c0.08,0.31,0.17,0.66,0.1,0.96l0.26,1.82c0.05,0.2,0.08,0.42,0.13,0.62c0.08,0.33,0.31,0.64,0.4,0.97 c0,0.02-0.14,0.49-0.62,0.62c-0.14,0.04-0.75,0.02-0.82-0.27c0-0.02-0.01-0.03-0.01-0.05l-0.13-0.85 c-0.17-1.84-0.49-3.65-0.71-5.44c0-0.02-0.01-0.03-0.01-0.05c-0.01-0.05-0.05-0.09-0.12-0.11c-0.87-0.46-1.68-0.94-2.69-1.27 c-0.72-0.22-1.53-0.61-2.08-0.88c-0.52-0.17-0.88-0.29-1.31-0.56l-0.07-0.04c0.01,0.03,0.01,0.05,0.02,0.08 c0.01,0.05,0.03,0.12,0.04,0.17c0.06,0.13,0.1,0.26,0.16,0.38c0.04,0.17,0.06,0.34-0.02,0.52c0.08,0.08,0.11,0.18,0.13,0.28 c0.09,0.36,0.09,0.81,0.19,1.2c0.04,0.15,0.07,0.28,0.11,0.43c0.08,0.31,0.08,0.65,0.15,0.95c0.06,0.25,0.15,0.49,0.21,0.72 c0.3,1.16,0.52,2.39,0.73,3.53c0.03,0.12,0.16,0.28,0.19,0.38c0.04,0.17-0.02,0.38,0.02,0.54c0.13,0.51,0.3,1.03,0.55,1.45 c0.07,0.28-0.13,0.65-0.64,0.78c-0.25,0.06-0.51,0.01-0.53-0.09l-0.04-0.03c0-0.02,0-0.02,0-0.02 c-0.08,0.04-0.14,0.05-0.22,0.07c-0.42,0.11-0.72,0.01-0.78-0.26c-0.03-0.13,0.04-0.29,0.01-0.44c-0.1-0.5-0.35-1.14-0.27-1.64 c0-0.83-0.31-1.67-0.51-2.44c-0.22-1.09-0.48-2.21-0.61-3.32c0-0.02-0.01-0.05-0.02-0.07c-0.02-0.07-0.03-0.12-0.07-0.16v-0.02 c-0.03-0.01-0.04-0.03-0.05-0.06c-0.13-0.5-0.04-1.33-0.21-2.01c-0.01-0.03-0.02-0.08-0.03-0.13c-0.08-0.33-0.09-0.68-0.17-1.01 c-0.03-0.12-0.06-0.23-0.08-0.33c-0.11-0.43-0.26-1.01,0.3-1.15c0.9-0.23,2.31,0.94,2.8,1.22c0.64,0.38,1.45,0.62,1.97,0.8 c0.93,0.34,1.81,0.74,2.74,1.1l-0.07-0.51c-0.01-0.03-0.05-0.06-0.05-0.09c-0.27-1.04-0.11-2.32-0.19-3.44 c-0.02-0.21-0.06-0.69,0.34-0.79c0.59-0.15,0.78-0.01,0.85,0.28C113.18,50.27,113.32,50.94,113.2,51.62z"/>
        </g>
      </g>
      <g>
        <g>
          <path fill="#bde0e1" stroke="#bde0e1" stroke-width="2.134" stroke-linecap="round" stroke-linejoin="round" stroke-miterlimit="10" d="M175.42,304.61c-0.12,0.23-0.11,0.49-0.21,0.69c-0.55,0.88-1.14,1.74-2.63,2.12 c-0.65,0.17-1.89,0.24-2.24-0.2c-0.29-0.33-0.75-0.6-0.95-1.03c-0.14-0.3-0.36-0.58-0.44-0.89c-0.11-0.45,0.06-1.28,0.71-1.45 c0.39-0.1,0.64,0.05,0.7,0.28c0.07,0.26-0.59,0.52-0.49,0.9c0.14,0.56,0.93,1.75,1.73,1.73c0.29-0.02,0.59-0.05,0.84-0.11 s0.52-0.2,0.78-0.36l0.08-0.02c0.68-0.37,0.33-1.74,0.31-2.07c-0.05-0.32,0.01-0.66-0.06-0.94c-0.01-0.03-0.01-0.05-0.02-0.08 c-0.12-0.46-0.1-0.98-0.18-1.54c-0.35-0.65-0.51-1.4-1.31-1.83c-0.28-0.14-0.74-0.55-0.92-0.56c-2.25,0.22-4.64,0.7-5.01-0.74 c-0.41-1.59,1.39-4.04,3.72-4.64c0.82-0.21,2.01,0,2.21,0.79c0.1,0.38-0.07,0.65-0.44,0.75c-0.37,0.09-0.43-0.38-0.53-0.57 c-0.15-0.24-0.72-0.36-1-0.29c-0.31,0.08-1.18,0.64-1.16,0.61c-0.06,0.24-0.44,0.52-0.43,0.55c-0.41,0.72-0.65,1.44-0.48,2.11 c0.02,0.08,0.04,0.17,0.09,0.24l0.03,0.12c0,0.02-0.02,0.02-0.02,0.04c0.04,0.15,0.23,0.19,0.25,0.29 c0.01,0.03,0.02,0.07,0,0.11l0.02,0.07c0,0.02-0.02,0.02-0.02,0.04c0-0.02,2.56-0.2,2.84-0.24c1-0.08,1.75,0.41,1.92,0.49 c1.21,0.5,1.69,1.91,1.94,2.32c0.19,0.29,0.28,0.62,0.36,0.93s0.13,0.64,0.13,0.97C175.52,303.71,175.53,304.25,175.42,304.61z" />
        </g>
      </g>
      <g>
        <g>
          <path fill="#bde0e1" stroke="#bde0e1" stroke-width="2.134" stroke-linecap="round" stroke-linejoin="round" stroke-miterlimit="10" d="M23.72,208.08c0.31,1.21,0.43,2.74,0.66,3.64c0.01,0.05,0.03,0.1,0.04,0.15c0.23,0.91-0.53,2.39-0.76,2.63 c-0.13,0.18-0.28,0.44-0.59,0.63c-0.36,0.22-0.44,0.38-1.26,0.69c-0.48,0.12-1,0.19-1.39,0.29c-0.03,0.01-0.06,0.01-0.08,0.02 c-0.86,0.17-0.92-0.1-1.7-0.2c-0.79-0.4-1.17-1.04-1.43-1.71l0.03-0.01l-0.32-0.68c-0.13-0.04-0.27-0.58-0.31-0.75 c-0.14-0.56-0.16-1.21-0.3-1.76c-0.03-0.13-0.06-0.25-0.1-0.38c-0.05-1.61-0.23-2.89,0.42-4.66c0.3-0.83,0.23-0.87,1.61-1.79 c0.53-0.15,0.88-0.31,1.44-0.46c2.16-0.55,2.9,1.25,3.18,1.88c0.35,0.77,0.64,1.55,0.84,2.34 C23.7,207.99,23.71,208.04,23.72,208.08z M22.9,209.79c-0.06-0.11-0.09-0.22-0.12-0.34c-0.02-0.07-0.03-0.13-0.05-0.2 c-0.04-0.15-0.08-0.3-0.11-0.45c0.03-0.22-0.11-0.66-0.19-0.96c-0.14-0.55-0.43-1.11-0.64-1.67c-0.27-0.69-0.43-1.11-1.34-1.74 c-0.11-0.08-0.17-0.1-0.34-0.05c-0.03,0.01-0.06,0.01-0.08,0.02c-0.09,0-0.14,0.02-0.2,0.03c-1.63,0.42-1.88,1.77-1.74,2.32 c0.15,0.6-0.02,1.2-0.03,1.19c0.02,0.07,0.07,0.26-0.09,0.46c-0.09,0.01,0.46,1.68,0.37,2.27c0.01,0.16,0.02,0.3,0.05,0.43 c0.02,0.08,0.04,0.17,0.06,0.23c0.05,0.2,0.07,0.4,0.12,0.6c0.22,0.86,0.45,1.63,1.52,2.66c0.23,0.29,0.33,0.6,1.07,0.66 l0.08-0.02c1.66-0.51,1.86-1.99,2.01-2.58c0.1-0.45,0.05-1.2-0.02-1.37c-0.05-0.18-0.13-0.37-0.17-0.56 c-0.06-0.25-0.19-0.73-0.13-0.85L22.9,209.79z"/>
        </g>
      </g>
      <g>
        <g>
          <path fill="#bde0e1" stroke="#bde0e1" stroke-width="2.134" stroke-linecap="round" stroke-linejoin="round" stroke-miterlimit="10" d="M266.65,152.97c0.04,0.15-0.15,0.36-0.49,0.44c-0.03,0.01-0.06,0.01-0.06,0.01 c-0.08,0.04-0.16,0.06-0.25,0.08c-0.03,0.01-0.2,0.05-0.2,0.03l0.02-0.02c-1.05,0.46-2.27,0.83-3.4,1.12 c-0.51,0.13-1.58,0.28-1.64,0.02c-0.04-0.17,0.05-0.4,0.01-0.55c-0.03-0.12-0.09-0.22-0.12-0.34c-0.05-0.2-0.07-0.4-0.13-0.62 c-0.14-0.53-0.32-1.01-0.47-1.59c-0.04-0.17-0.03-0.34-0.07-0.51c-0.05-0.08-0.09-0.13-0.11-0.2l-0.16-0.61 c-0.06-0.21-0.2-0.42-0.25-0.64c-0.03-0.1-0.02-0.21-0.05-0.31c-0.13-0.51-0.38-1.01-0.51-1.53l-0.19-0.74 c-0.13-0.51-0.25-0.99-0.35-1.5c-0.04-0.27,0-0.58-0.07-0.86c-0.07-0.26-0.28-0.51-0.35-0.79c-0.03-0.12,0.11-0.29,0.53-0.4 c0.23-0.06,0.48-0.02,0.7-0.07c0.87-0.22,1.94-0.6,2.53-0.75c0.73-0.19,2.02-0.43,2.11-0.08c0.05,0.18-0.55,0.42-0.97,0.53 c-0.45,0.12-0.9,0.12-1.35,0.24c-0.79,0.2-1.64,0.38-1.52,0.83c0.05,0.18,0.15,0.35,0.19,0.52c0.11,0.45,0.14,0.9,0.25,1.45 c0.03,0.12,0.06,0.21,0.08,0.33c0.07,0.26,0.05,0.53,0.11,0.78c0.05,0.2,0.13,0.37,0.18,0.57c0.01,0.05,0.03,0.1,0.04,0.15 c0.06,0.23,0.15,0.47,0.21,0.69c0,0.02,0,0.02,0,0.02c0.25-0.08,0.53-0.15,0.75-0.21c0.17-0.03,0.32-0.05,0.49-0.09 c0.06-0.01,0.14-0.05,0.19-0.07c0.51-0.13,1-0.08,1.05,0.12c0.04,0.17-0.21,0.35-0.63,0.46c-0.61,0.08-1.08,0.12-1.68,0.24 c-0.03,0.01-0.05,0.05-0.03,0.1c0.14,0.53,0.61,1.08,0.72,1.54c0.02,0.07,0.03,0.13,0.02,0.21c0.24,0.93,0.76,1.92,0.97,2.73 c0.01,0.03,0.02,0.07,0.03,0.1c0.93-0.24,1.73-0.5,2.63-0.85c0.08-0.02,0.14-0.05,0.22-0.07c0.25-0.06,0.52-0.06,0.77-0.04 C266.56,152.84,266.63,152.9,266.65,152.97z"/>
        </g>
      </g>
    </g>
    <g>
      <g enable-background="new" data-type="font">
        <path fill="#28a952" d="M259.13,253.24c-4.6,3.49-13.04,6.45-19.95,6.45c-21.48,0-29.66-51.06-28.9-48.1 c-0.26-1.88-1.28-5.38-1.28-5.91c0-0.27,0.26-0.27,0.26-0.54c0-11.02-2.56-24.99-4.09-36.55c-0.77-11.29-0.77-24.45-2.56-35.2 c0-0.81-0.26-1.88-0.26-2.96c0-5.64,0.77-11.02,0.77-16.66c0-2.69-0.26-5.37-0.26-8.33c0-7.52,1.02-16.66,2.81-24.19 c1.53-7.26,2.05-12.36,4.6-18.54c2.05-11.02,11.25-16.12,19.95-16.12c9.97,0,23.27,13.97,23.27,25.53c0,3.76-1.79,6.72-4.86,6.72 c-5.88,0-6.39-16.93-15.85-20.96c-0.26,0-0.51,0-1.02,0c-6.14,0-8.69,23.92-8.69,31.44c0,0.27,0.26,0.27,0.26,0.54 c-0.26,0.54-0.26,0.81-0.26,1.07c0,0.81,0.26,1.34,0.26,2.15c0,5.37-1.79,11.82-1.79,18c0,9.14,1.28,18,1.28,27.14 c0,2.96-0.26,5.91-0.26,8.6c0,2.15,0,4.3,0.26,6.72l0.51,7.52c2.56,28.22,5.11,53.48,11.51,83.57c0.51,2.15,3.32,4.03,5.88,4.03 c12.53-1.34,14.83-5.64,23.27-20.15c2.3-2.96,2.81-7.26,2.81-11.55c0-0.54,0-1.34,0-1.88c0.26-1.34,0.51-3.22,0.51-4.3 c0-0.81-0.26-1.61-1.53-3.49l5.37-4.84c7.42,2.42,4.86,13.17,5.37,19.89C276.52,233.63,262.2,250.82,259.13,253.24z"/>
        <path fill="#28a952" d="M357.32,229.06c0,1.61-1.53,3.49-5.11,3.49c-2.3,0-5.37-2.42-5.37-5.64c0-0.27,0-0.54,0-0.81 c0-16.66-5.37-34.13-6.9-51.06c-0.77-9.14-2.81-18.54-4.6-27.68c-0.51-2.42-1.53-5.64-1.53-8.33l-0.51-2.15 c-0.51-0.81-0.77-0.54-0.77-0.54c-0.77,0-1.53,0-2.3,0l-3.58-0.27c-1.53-0.27-2.81-0.81-4.35-1.88c-1.02,0.27-2.3,0.54-3.32,0.54 l-3.07-0.27c-3.07,0-5.37,21.5-5.37,21.77c-2.05,11.02-7.16,24.72-7.16,34.4c0,0.27,0,0.81,0,1.08 c0,17.47-5.63,39.77-11.51,39.77c-2.3,0-9.46-4.3-9.46-13.44c0-5.37,2.05-11.02,2.05-15.32c1.02-24.19,7.42-43.26,10.74-62.61 c3.58-21.77,7.67-46.22,13.81-66.37c0-0.27,0.26-0.54,0.26-0.81v-0.27c1.02-7.79,4.09-13.71,5.63-22.57 c3.32-0.27,4.86-0.81,6.9-0.81c10.74,0,10.74,27.68,11.51,33.32c2.05,16.39,4.6,32.52,8.18,47.3 c5.63,24.19,4.86,30.37,6.14,35.74c1.79,4.03,0.77,9.14,1.53,13.97c1.02,6.72,3.07,13.44,3.84,20.42c0,0.27,0,0.54,0,0.81 c0,5.64,3.58,13.17,3.58,20.69c0,0.81,0,1.34,0,1.88c0,1.61,0.51,2.69,0.51,4.3C357.07,228.25,357.32,228.52,357.32,229.06z M328.68,112.43c-1.79-10.75-3.32-21.23-5.11-31.98c0,9.41-4.6,18.54-5.37,28.75c0,3.22-0.51,10.75-2.56,15.59 c0,0.54,0.26,0.81,0.77,0.81c4.35,0,8.69-0.81,13.04-0.81c0.51,0,1.02,0.27,1.53,0.27C330.98,121.3,329.45,116.46,328.68,112.43z "/>
        <path fill="#28a952" d="M407.19,168.59c-4.35,3.76-22.5,12.9-22.5,16.12c0,6.72,1.53,14.51,1.53,22.04c0,6.18,0.77,12.09,1.53,18.27 v1.08c0,0.27,0.26,0.54,0.26,1.07c0,1.08-0.51,2.42-0.51,4.3c1.28,5.91,2.3,13.44,2.3,19.35c0,5.11-2.81,8.87-7.16,8.87 c-2.05,0-3.32-1.08-5.11-1.08c-0.77,0-1.28,0.27-1.79,0.27c-3.32,0-6.14-2.96-6.14-6.45c0-3.22,0.77-6.72,0.77-10.48 c-0.26-3.22-0.51-6.45-0.51-9.67c0-2.15,0.26-4.03,0.26-5.91v-3.22c0-0.27,0-0.54,0-0.54c0-1.07-0.51-2.42-0.51-4.03 c0-2.15,0.26-4.3,0.26-6.18c0-33.86-2.56-62.61-3.32-90.83c0-0.54,0-0.81-0.26-1.07v-1.61c0.26-2.69,0.51-5.64,0.51-8.33 c0-6.45-0.51-12.9-0.51-19.35c0-3.49-0.51-15.59,0.77-16.93c-0.77-1.61-1.02-3.22-1.02-4.57c1.02-5.37,0.26-12.9,2.56-16.66 c3.58-4.03,7.93-5.91,12.79-6.72h2.05c20.2,3.76,37.34,2.69,40.92,71.75c0.26,1.88,0.26,4.03,0.51,5.11 C424.32,140.92,420.74,159.46,407.19,168.59z M404.12,69.7c-3.32-9.94-11.51-9.94-19.44-10.75c-0.77,0-1.53,9.67-2.05,13.71h0.26 c-0.51,8.87-0.77,13.17-0.77,18c0,8.33,0.26,16.39,0.26,24.45c0,4.57-0.26,8.87-0.26,13.17c0,13.97,1.53,27.95,1.53,41.92 c20.2-6.45,29.66-22.84,29.66-48.37C412.56,105.71,410.77,90.93,404.12,69.7z"/>
        <path fill="#28a952" d="M549.11,198.96c0,20.15-6.65,33.05-25.57,47.56c-6.9,3.76-14.32,5.64-21.99,8.33 c-1.79,1.08-1.79,2.15-3.32,2.15c-0.77,0-1.79-0.81-1.53-0.81c-0.26,0-0.26,0-0.51,0.27c-0.77,0-1.53,0-2.05,0.27V257 c-0.77,1.88-3.07,2.69-5.63,2.69c-4.35,0-5.88-1.88-5.88-6.18v-1.61c-0.26-1.08-0.51-2.42-0.51-3.49c0-1.61,0.51-3.49,0.51-5.11 c0-0.27,0-0.81,0-1.07v-3.49c0-18.81,1.79-37.89,1.79-56.43c0-3.22,0-6.45,0-9.67c0.26-20.15,1.79-40.31,1.79-60.46 c-0.51-13.44-0.51-26.33-1.02-40.04c0-1.34,0.26-2.96,0.26-4.3V54.39v-1.34c0.51-2.42,2.3-4.3,4.6-4.3c0.77,0,1.53,0.27,2.3,0.27 c3.07,0,8.69-2.69,13.3-2.69c3.84,0,7.42,1.07,11.25,2.96c8.44,4.57,19.18,15.05,19.18,35.47c0,18.81-8.69,26.6-24.55,39.5 c0,0,0,0.27-0.26,0.27c5.88,5.64,17.39,13.97,19.18,19.62c8.69,15.32,15.85,37.62,15.85,37.62c0.77,3.22,2.56,8.33,2.56,10.48 C549.11,194.66,549.11,196.81,549.11,198.96z M538.62,196.81l-0.26-3.49c-0.51-6.18-3.07-10.75-4.09-16.93l-0.26-0.27 c-4.6-10.21-10.74-27.41-17.9-31.98c-4.86-2.96-9.72-9.14-14.58-11.56c-0.51,3.76-1.02,7.52-1.02,11.29 c0,10.21,0.77,20.42,0.51,30.63c0,1.08,0,2.15,0,3.49c0,1.88,0.26,3.49,0.26,5.11s-0.51,2.69-0.51,4.03 c0,3.49,0.26,6.72,0.51,9.94c0,3.22,0,6.45-0.26,9.41c0,1.07,0.26,2.15,0.26,3.22c0,6.45-1.79,13.44-1.79,19.62 c0.26,2.15,0.77,4.3,0.77,6.45c0,1.61-1.28,4.03-1.28,6.18c0,0.81,0.26,1.08,0.77,1.08c9.97,0,20.71-7.79,21.74-8.6 c11-8.6,15.85-18.27,17.13-31.71V196.81z M505.12,57.61c-1.28,0-3.84,0-3.84,1.34c0.26,1.61,0.51,3.49,0.51,5.11 c0,5.64-0.51,11.55-0.51,17.2c0,11.29,1.02,22.3,1.02,33.59c0,1.07,0,2.15,0.26,2.96c12.79-6.72,23.01-17.47,23.01-33.59 c0-3.49-0.51-6.72-1.53-10.21C521.49,65.94,516.63,57.61,505.12,57.61z"/>
        <path fill="#28a952" d="M574.68,220.73c0,1.88-1.02,6.45-6.65,6.45c-13.55,0-10.74-26.07-10.74-35.74h0.26 c-0.51-12.63-1.02-25.8-1.02-37.62c0-5.37,0-10.75,0-15.85c0-4.84-0.26-9.67-0.26-14.51c0-18,1.02-35.74,1.53-54.28 c0-5.37-0.26-10.21-0.26-16.39c0-3.22,2.3-5.11,5.37-5.11c0.51,0,1.28,0.27,1.79,0.27c1.02,0,2.3-1.34,3.58-1.34 c3.84,0,5.11,3.22,5.11,5.11c0,15.05-1.53,29.29-1.53,44.34c0,4.03,0.26,8.06,0.26,12.09c0,1.07,0,1.88,0,2.96l-0.51,20.42 c0.51,2.42,0.51,4.57,0.51,6.99c0,2.15,0,4.3,0,6.72c0,0.81,0,1.61,0,2.42c0,4.3-0.77,8.87-0.77,13.17c0,1.34,0,2.69,0,4.03 c0,3.49,0,6.72-0.26,10.21c0,2.42,0,12.09,0.77,12.9h-0.26c1.79,8.06,1.02,17.74,2.3,24.99c0,0.81-0.26,1.88-0.26,2.96 c0,0.27,0.26,0.81,0.26,1.08C574.17,218.04,574.68,219.38,574.68,220.73z"/>
        <path fill="#28a952" d="M651.9,242.49c0,2.42-2.05,4.84-5.11,4.84c-0.26,0-0.51,0-0.51,0c-0.77,0.27-1.53,0.27-2.3,0.27 c-0.26,0-1.79,0-1.79-0.27l0.26-0.27c-9.97,2.96-21.23,3.76-31.46,3.76c-4.6,0-14.06-1.88-14.06-6.18c0-2.69,1.28-5.91,1.28-8.33 c0-1.88-0.26-3.76-0.26-5.64c0-3.22,0.26-6.45,0.26-9.94c0-8.6-0.51-16.66-0.51-26.07c0-2.69,0.51-5.37,0.51-8.06 c-0.26-1.34-0.51-2.42-0.51-3.49v-9.94c0-3.49-0.77-7.25-0.77-10.75c0-1.61,0.26-3.23,0.26-4.84c0-8.33-1.02-16.93-1.02-25.26 v-12.09c0-8.33,0-16.12,0.26-24.19c0.26-4.3,1.28-8.87,1.28-13.44c0-4.3-1.28-8.87-1.28-13.44c0-1.88,1.54-4.03,5.37-4.03 c2.04,0,4.09,1.61,6.14,1.61c7.93,0,17.9-1.61,23.27-1.61c6.65,0,18.16,1.34,18.16,6.99c0,2.96-5.63,4.3-9.46,4.3 c-4.09,0-7.93-1.61-12.02-1.61c-7.16,0-14.83-0.54-14.83,6.72c0,2.96,0.51,5.91,0.51,8.6c0,7.26-0.77,14.24-1.02,23.11 c0,1.88,0,3.49,0,5.37c0,4.3-0.77,8.33-0.77,12.36c0,3.22,0.26,6.18,0.26,9.41c0,0.81,0,1.61,0,2.42c0,3.76,0.26,7.79,0.26,11.29 c0,0.27,0,0.27,0,0.27c2.3-0.27,4.86-0.27,6.9-0.27c1.53,0.27,2.81,0.54,4.35,0.54c0.51,0,1.28-0.27,1.79-0.27 c4.6,0,8.7,2.69,8.7,5.91c0,2.69-2.56,4.57-6.39,4.57c-5.37-1.07-9.46-2.42-14.83-2.96c-0.26,0-0.51,0.54-0.51,1.34 c0,8.6,2.81,18.81,2.81,26.33c0,1.08,0,2.15-0.26,3.22c0,15.05,2.3,32.25,2.3,45.41c0,0.54,0,1.08,0,1.61 c8.44,0,15.85-0.81,24.29-2.69c0.77,0,1.28-0.27,2.04-0.27c2.3,0,4.6,1.08,6.65,2.42C651.39,240.07,651.9,241.42,651.9,242.49z" />
        <path fill="#28a952" d="M747.8,83.68c-2.05,13.17-4.09,29.02-4.09,42.46c0,2.69-0.26,8.33,0.51,9.67l-0.26,1.61 c-0.51,4.3-1.53,9.14-1.53,13.17c0,0.27,0,0.81,0,1.08c0,4.84-0.77,9.41-0.77,14.24c0.26,2.15,0.26,4.3,0.26,6.72 c0,5.11,0,10.75-1.28,15.05l-1.79,28.75c0,3.23-0.26,6.72-0.26,9.94c0,5.38,1.28,11.02,1.28,16.39c0,0.27-2.3,6.99-6.65,6.99 c-1.28,0-6.39-2.69-6.39-7.25c0-0.27,0-0.54,0-0.81l0.77-13.44c2.56-28.75,3.84-57.51,5.88-85.72c0-0.27,0-0.54,0-0.81 c0-0.81-0.26-1.61-0.77-2.15c-6.39-10.48-12.28-20.96-20.2-29.83c-5.63-6.18-11.76-15.32-15.86-21.5 c-4.09-4.57-6.9-7.79-9.97-13.71l-0.51-0.81c0,0.54,0,0.81,0,1.34c0,0.81,0,1.88,0,2.69c0.26,2.15,0.26,4.3,0.51,6.45 c0,2.69-0.26,5.37-1.28,7.79c0.51,1.61,0.51,3.22,0.51,4.84c0,5.91-1.02,12.63-1.02,19.08c0,2.42,0,4.57,0,6.99 c0,5.11-0.77,10.21-0.77,15.05c0,4.03,0.26,8.06,0.26,11.82c0,18.81-0.77,38.43-1.53,56.7c0,1.88,0.77,4.84,0.77,6.45 c0,2.69-1.02,5.64-1.02,8.33c0,8.33,0.26,16.93,1.53,24.19c0,4.57-2.56,9.41-7.16,9.41c-2.3,0-4.35-1.88-4.35-3.49l-0.26-0.54 c0-0.27,0-0.27,0-0.27c-0.77,0.27-1.28,0.27-2.05,0.27c-3.84,0-6.14-2.69-6.14-6.99c0-2.15,1.02-4.3,1.02-6.72 c0.26-8.06-0.51-18.81,1.28-26.07c1.79-12.63,1.02-26.6,1.02-39.23c0.51-17.47,0.77-35.47,2.05-52.94c0-0.27,0-0.81,0-1.08 c0-1.07,0-1.88-0.26-2.69v-0.27c-0.26-0.27-0.26-0.54-0.26-1.08c0-8.06,2.56-20.42,2.56-31.44c0-0.54,0-1.34,0-2.15 c0-5.37,0.77-10.75,0.77-16.12c0-1.88,0-3.76,0-5.37c0-6.99,0-16.39,5.11-16.39c8.18,0,17.64,23.38,21.22,29.56 c4.6,8.33,11,15.05,15.09,19.89c7.16,8.87,13.81,18.27,20.97,27.41l0.51-8.06c0-0.54-0.26-1.08-0.26-1.61 c0-16.93,4.09-35.74,5.88-53.21c0.26-3.22,1.02-10.75,4.6-10.75c5.37,0,6.65,2.96,6.65,7.52 C750.61,62.99,750.35,73.74,747.8,83.68z"/>
        <path fill="#28a952" d="M809.17,154.89l-36.31,1.61c-2.3,0-4.6-4.3-4.6-9.14c0-4.03,1.53-7.79,3.58-7.79l36.31-1.61 c2.05,0,4.09,3.76,4.6,8.33C812.75,150.59,811.47,154.89,809.17,154.89z"/>
        <path fill="#28a952" d="M874.89,54.92c0.25,0-6.91-5.11-9.72-7.26c-1.28-0.54-8.95-7.52-12.53-7.52c-2.05,0-4.35,5.11-6.39,7.52 c0.26-0.54-6.65,7.79-9.21,7.79c-2.04,0-7.16-3.23-7.16-5.37c0-1.88,6.14-7.79,7.93-11.29c0.51-1.61,4.86-11.82,9.21-11.82 c1.02,0,1.28,1.08,2.3,1.08c0.51,0,3.07-1.61,3.58-1.61c2.81,0,6.9,5.37,15.6,10.21c0.77,0.27,12.79,7.52,12.79,10.21 c0,0.54-0.51,1.34-0.51,1.88s0,0.81,0.26,0.81c0,1.07-1.28,5.11-5.37,5.11C875.4,54.66,875.14,54.92,874.89,54.92z M877.44,236.85c-0.77,0-1.28,0.27-2.05,0.27c-8.44,1.88-15.85,2.69-24.29,2.69c0-0.54,0-1.08,0-1.61 c0-13.17-2.3-30.37-2.3-45.41c0.26-1.07,0.26-2.15,0.26-3.22c0-7.52-2.81-17.74-2.81-26.33c0-0.81,0.26-1.34,0.51-1.34 c5.37,0.54,9.46,1.88,14.83,2.96c3.84,0,6.39-1.88,6.39-4.57c0-3.22-4.09-5.91-8.69-5.91c-0.51,0-1.28,0.27-1.79,0.27 c-1.53,0-2.81-0.27-4.35-0.54c-2.05,0-4.6,0-6.91,0.27c0,0,0,0,0-0.27c0-3.49-0.26-7.52-0.26-11.29c0-0.81,0-1.61,0-2.42 c0-3.22-0.25-6.18-0.25-9.41c0-4.03,0.77-8.06,0.77-12.36c0-1.88,0-3.49,0-5.37c0.26-8.87,1.02-15.85,1.02-23.11 c0-2.69-0.51-5.64-0.51-8.6c0-7.26,7.67-6.72,14.83-6.72c4.09,0,7.93,1.61,12.02,1.61c3.84,0,9.46-1.34,9.46-4.3 c0-5.64-11.51-6.99-18.16-6.99c-5.37,0-15.34,1.61-23.27,1.61c-2.05,0-4.09-1.61-6.14-1.61c-3.84,0-5.37,2.15-5.37,4.03 c0,4.57,1.28,9.14,1.28,13.44c0,4.57-1.02,9.14-1.28,13.44c-0.26,8.06-0.26,15.85-0.26,24.19v12.09c0,8.33,1.02,16.93,1.02,25.26 c0,1.61-0.26,3.22-0.26,4.84c0,3.49,0.77,7.26,0.77,10.75v9.94c0,1.07,0.26,2.15,0.51,3.49c0,2.69-0.51,5.37-0.51,8.06 c0,9.41,0.51,17.47,0.51,26.07c0,3.49-0.26,6.72-0.26,9.94c0,1.88,0.26,3.76,0.26,5.64c0,2.42-1.28,5.64-1.28,8.33 c0,4.3,9.46,6.18,14.06,6.18c10.23,0,21.48-0.81,31.45-3.76l-0.26,0.27c0,0.27,1.53,0.27,1.79,0.27c0.77,0,1.53,0,2.3-0.27 c0,0,0.26,0,0.51,0c3.07,0,5.12-2.42,5.12-4.84c0-1.08-0.51-2.42-1.79-3.22C882.05,237.92,879.74,236.85,877.44,236.85z"/>
        <path fill="#28a952" d="M965.15,33.16c0,3.76-1.79,6.72-5.63,6.72c-3.07-0.54-5.88-1.34-8.95-1.34c-4.6,0-13.81,0.81-13.81,0.81 h-1.02c0,0-3.33,0-3.33,1.07c1.79,11.56,1.28,24.72,1.28,36.55c0,1.88-0.26,3.76-0.26,5.37c0,13.97,2.05,31.17,2.05,42.73 c0,2.42-0.51,5.11-0.51,7.52c0,15.85,3.32,31.44,4.35,47.3c0.51,11.29,0,22.3,1.28,31.44c0.51,4.57,0.77,9.14,0.77,13.97 c0,2.42,0,5.11-0.26,7.52v1.08c0,3.49-11.51,4.84-8.18,4.84c-0.26,0-0.77-0.27-1.02-0.27h-0.77c-0.26,0-0.51,0-0.77,0 c-1.28,0-3.84,2.15-5.63,2.15c-1.53,0-5.11-1.61-5.11-4.3c0-1.34,1.53-2.69,1.53-4.03c-0.51-5.11-1.02-10.48-1.02-15.85 c0-1.88,0-4.03,0.26-6.18h-0.51c0.26-8.06,0.77-14.24,0.77-20.15c0-6.99-0.51-13.17-0.51-19.88c0-3.22,0-6.18,0-9.41 c-1.53-35.74-3.84-71.21-4.86-107.49c0-2.69-0.51-5.37-0.77-8.06v-4.3h-1.02c-6.65,0.81-13.55,2.42-20.2,2.42 c-3.84,0-5.88-2.42-5.88-6.18c0-9.14,25.57-7.26,30.18-8.06h0.77c0.51-0.27,1.02-0.27,1.53-0.27c3.84,0.27,5.12,0.54,6.65,0.54 c6.65,0,32.73-2.42,33.5-2.42c3.32,0,4.35,2.96,5.11,4.57C965.15,32.08,965.15,32.62,965.15,33.16z"/>
        <path fill="#28a952" d="M1036.24,236.58c0,5.11-1.79,8.06-5.11,8.06c-4.6,0-7.16-5.37-7.16-9.4c0-4.03,0.26-8.06,0.26-11.82 c0-13.44-2.05-26.07-4.6-40.04c-2.3-17.2-18.67-40.31-27.87-44.61c-1.02,11.02-1.79,20.42-2.81,31.17c0,2.42,0.26,4.84,0.26,7.26 c0,16.93-2.05,34.4-4.09,49.98c-0.25,1.08-0.51,2.15-0.51,2.96s0,1.34,0.26,1.88l-0.26,1.34c0.77,1.08,1.02,1.88,1.02,2.96 c0,5.91-4.35,7.52-6.65,7.52c-4.6,0-4.35-5.91-8.18-5.91c-2.56-0.27-3.32-2.96-3.32-4.3c0-19.88,5.11-37.89,5.11-54.55 c0.77-16.39,2.3-32.25,2.3-48.64c0-1.88,0-3.76,0-5.64c0-20.15,2.56-40.31,2.56-60.46c0-9.14-0.51-23.92,5.63-27.95 c4.6-2.96,12.28-5.11,15.6-5.11c14.83,0,24.55,10.21,25.57,12.36c5.37,11.29,9.46,18.81,9.46,29.83 c0,23.92-16.62,37.62-32.73,51.33c-1.02,0.81-2.05,1.34-3.07,1.88l-0.77,0.54c16.11,12.63,27.36,27.14,33.5,50.25 c0,7.25,3.07,15.59,3.84,23.11c0.77,6.99,1.53,13.97,1.53,21.23c0,1.34,0,2.69,0,4.03c0,2.15,0.26,4.57,0.26,6.99 C1036.24,234.16,1036.24,235.24,1036.24,236.58z M1015.02,49.82c-2.56-3.76-13.04-6.72-17.39-6.72c-2.56,0-2.56,4.3-2.56,6.99 c0.26,9.14,1.53,18.54,1.53,27.41c0,2.69-1.02,4.57-1.02,6.99c0,1.34,0.25,2.42,0.25,3.76c0,1.34,0,2.69-0.77,4.03v0.54 c0.26,0.27,0.26,0.81,0.26,1.34s-0.26,1.07-0.26,1.61c0,1.08,0.26,2.15,0.26,3.22l-0.77,9.41l-0.51,7.79 c13.55-8.6,28.9-22.84,28.9-44.07C1022.95,62.72,1019.62,59.49,1015.02,49.82z"/>
        <path fill="#28a952" d="M1106.82,242.49c0,2.42-2.05,4.84-5.12,4.84c-0.25,0-0.51,0-0.51,0c-0.77,0.27-1.54,0.27-2.3,0.27 c-0.26,0-1.79,0-1.79-0.27l0.26-0.27c-9.97,2.96-21.23,3.76-31.45,3.76c-4.6,0-14.06-1.88-14.06-6.18c0-2.69,1.28-5.91,1.28-8.33 c0-1.88-0.26-3.76-0.26-5.64c0-3.22,0.26-6.45,0.26-9.94c0-8.6-0.51-16.66-0.51-26.07c0-2.69,0.51-5.37,0.51-8.06 c-0.26-1.34-0.51-2.42-0.51-3.49v-9.94c0-3.49-0.77-7.25-0.77-10.75c0-1.61,0.26-3.23,0.26-4.84c0-8.33-1.02-16.93-1.02-25.26 v-12.09c0-8.33,0-16.12,0.26-24.19c0.26-4.3,1.28-8.87,1.28-13.44c0-4.3-1.28-8.87-1.28-13.44c0-1.88,1.53-4.03,5.37-4.03 c2.05,0,4.09,1.61,6.14,1.61c7.93,0,17.9-1.61,23.27-1.61c6.65,0,18.16,1.34,18.16,6.99c0,2.96-5.63,4.3-9.46,4.3 c-4.09,0-7.93-1.61-12.02-1.61c-7.16,0-14.83-0.54-14.83,6.72c0,2.96,0.51,5.91,0.51,8.6c0,7.26-0.77,14.24-1.02,23.11 c0,1.88,0,3.49,0,5.37c0,4.3-0.77,8.33-0.77,12.36c0,3.22,0.25,6.18,0.25,9.41c0,0.81,0,1.61,0,2.42c0,3.76,0.26,7.79,0.26,11.29 c0,0.27,0,0.27,0,0.27c2.3-0.27,4.86-0.27,6.91-0.27c1.53,0.27,2.81,0.54,4.35,0.54c0.51,0,1.28-0.27,1.79-0.27 c4.6,0,8.69,2.69,8.69,5.91c0,2.69-2.56,4.57-6.39,4.57c-5.37-1.07-9.46-2.42-14.83-2.96c-0.26,0-0.51,0.54-0.51,1.34 c0,8.6,2.81,18.81,2.81,26.33c0,1.08,0,2.15-0.26,3.22c0,15.05,2.3,32.25,2.3,45.41c0,0.54,0,1.08,0,1.61 c8.44,0,15.85-0.81,24.29-2.69c0.77,0,1.28-0.27,2.05-0.27c2.3,0,4.6,1.08,6.65,2.42 C1106.31,240.07,1106.82,241.42,1106.82,242.49z"/>
      </g>
    </g>
  </g>
</svg>
