<?xml version="1.0" encoding="utf-8"?>
<!-- Generator: Adobe Illustrator 25.0.0, SVG Export Plug-In . SVG Version: 6.00 Build 0)  -->
<svg version="1.1" id="Calque_1" xmlns="http://www.w3.org/2000/svg" xmlns:xlink="http://www.w3.org/1999/xlink" x="0px" y="0px"
	 viewBox="0 0 77.8 60" style="enable-background:new 0 0 77.8 60;" xml:space="preserve">
<g>
	<path style="fill:#F5BC2D;" d="M66.8,53.7c1.5-5.6,2.2-7,3.9-13.8c0.1-0.3,0.2-0.7,0.3-1c0.1-0.3,0.1-0.5,0.2-0.8c0.1-0.4,0.2-0.8,0.3-1.2
		c0-0.2,0.1-0.3,0.1-0.5c0.1-0.5,0.2-0.9,0.4-1.3c0-0.1,0-0.1,0-0.2c0.1-0.5,0.3-1,0.4-1.4c0,0,0,0,0,0c0.1-0.3,0.2-0.6,0.2-0.9
		c0-0.1,0.1-0.3,0.1-0.4c0,0,0,0,0,0c0.3-1.2,0.7-2.3,1-3.2c4.3-13.7,2.3-14.4-1.8-9.3c-0.6,0.8-1.3,1.8-2,2.9c0,0,0,0,0,0
		c0,0.1-0.1,0.1-0.1,0.2c-0.2,0.3-0.3,0.6-0.5,0.9c0,0,0,0.1-0.1,0.1c0,0,0,0,0,0c-0.2,0.3-0.3,0.6-0.5,0.9
		c-0.1,0.3-0.3,0.6-0.4,0.9c-0.1,0.1-0.1,0.3-0.2,0.4c-0.1,0.2-0.2,0.5-0.3,0.8c-0.1,0.1-0.1,0.3-0.2,0.4c-0.1,0.4-0.3,0.8-0.4,1.2
		c0,0,0,0,0,0c-2,6.1-2.8,7.8-0.4,9.3c-1.1,5.1-2,12.2-2,15.6C65,53.8,66.7,54.2,66.8,53.7z"/>
	<g>
		<g>
			<g>
				<path style="fill:#F5BC2D;" d="M3,20.7c-0.1-0.6-1.3,2.1-0.5,7.9c0.8,5.8,2.3,8.2,4.3,7.8c0,0,0.8,8.4,2.7,13.8c1.9,5.4,4.2,2.9,3.4,0
					c-0.8-2.9-2.6-11.7-2.9-14.4c0,0,2.8,0.1,2.6-2.6c-0.2-2.7-2.5-12.6-3.1-13.5c-0.6-0.9,0.1,7.9,0.7,11.2c0.2,1.1-0.5,1-0.7-0.3
					c-0.2-1.2-1.4-8.2-1.7-9.6c-0.3-1.3-0.7-1-0.5,2.2c0.2,3.3,0.5,7.5,0.4,8.3c-0.1,0.8-0.6,0.3-0.7-0.8c-0.1-1.1-1.2-8-1.4-9.4
					c-0.3-1.5-0.8-0.2-0.8,1c0,1.3,0.9,7.8,1,9.7c0.1,1.8-0.9,0.8-1.1-1C4.4,29.3,3.1,21.8,3,20.7z"/>
			</g>
		</g>
	</g>
	<path style="opacity:0.5;fill:#F5BC2D;" d="M17.7,6.4c0.8-0.2,1.3,0.2,1.6,0.9c0.1,0.1,0.1,0.3,0.2,0.4c0.3,0.3,0.9-0.1,1,0.6c0,0.4,0.4,0.7,0.5,1.1
		c0.1,0.4,0.4,0.5,0.6,0.8c0.2,0.2,0.5,0.4,0.5,0.8c0.1,0.9,1,1.6,0.6,2.6c-0.2,0.5-0.5,1-0.4,1.6c0,0.2-0.4,0.5-0.6,0.4
		c-0.4-0.3-0.8-0.7-1.2-0.9c-0.5-0.2-1-0.2-0.9-0.9c-0.8-0.5-1-1.6-1.8-2.1c-0.5-0.3-0.3-0.9-0.8-1.2c-0.4-0.3-0.2-0.8-0.3-1.2
		c-0.1-0.5,0.1-1.1-0.5-1.4c-0.2-0.1-0.2-0.3,0-0.4c0.3-0.2,1.3,0,0.4-0.8c0,0,0.1-0.3,0.2-0.3C17.2,6.4,17.4,6.4,17.7,6.4z"/>
	<path style="opacity:0.5;fill:#F5BC2D;" d="M33.1,10.1c-0.3-0.3-0.6-0.6-0.9-0.9C32,9,31.7,8.9,31.8,8.6c0.2-0.7-0.5-1-0.5-1.6c0-1.3-0.1-2.6,0-3.9
		c0-0.3,0.6-0.6,0.5-1.1c0-0.1,0.3-0.2,0.4-0.2c0.8-0.4,1.2,0.5,1.8,0.6c0.3,0,0.8,0.6,0.8,0.9c-0.1,1,0.8,1.6,0.6,2.6
		c-0.2,0.8,0,1.7-0.1,2.6c-0.1,0.5-0.4,1-0.6,1.5c0,0.1-0.3,0.2-0.4,0.2C34,10.1,33.5,10.1,33.1,10.1z"/>
	<path style="opacity:0.5;fill:#F5BC2D;" d="M49.3,1.4c0.1,0,0.4,0,0.5,0.1C50,1.9,50,2.5,50.4,2.8c0.1,0.1,0.1,0.5-0.2,0.7C50.1,3.6,50,3.7,50,3.9
		c0,0.7,0,1.4-0.1,2c-0.7,0.4-0.5,1-0.5,1.6c0,0.4-0.2,0.6-0.4,0.9c-0.3,0.3-0.6,0.5-0.6,1c-0.1,0.6-0.9,0.2-1.2,0.8
		C46.8,10,46.3,9.9,46,9.7c-0.4-0.2-0.2-0.6-0.2-0.9c0-0.4-0.6-0.6-0.5-0.8c0.2-0.4,0.5-0.6,0.5-1.1c0-0.3-0.1-0.9,0.1-1
		c0.6-0.4,0.2-1.3,0.6-1.6c0.8-0.8,1.1-1.9,2-2.6C48.7,1.5,49,1.4,49.3,1.4z"/>
	<path style="opacity:0.5;fill:#F5BC2D;" d="M61.7,7.1c0.2,0.4,0.3,0.7,0.6,1.1c0.1,0.2,0.2,0.2,0,0.4c-0.7,0.9-0.9,2.1-1.8,2.9c-0.6,0.5-1,1.2-1.7,1.6
		c-0.5,0.4-1.2,0.6-1.6,1.1c-0.3,0.4-0.6,0.2-1,0.2c-0.4,0-0.6-0.2-0.5-0.6c0-0.1,0-0.2,0-0.3c0-0.1,0-0.2,0-0.3
		c0.6-0.5,0.4-1.2,0.7-1.8c0.1-0.3,0.5-0.5,0.4-0.9c0.7-0.5,1-1.3,1.4-2c0.4-0.7,1.2-0.9,1.8-1.3C60.5,6.9,61.1,7.1,61.7,7.1z"/>
	<path style="fill:#F5BC2D;" d="M15.2,37.4c0-0.7,0-1.5,0-2.2c0-0.6-0.2-1.3,0.1-1.8c0.3-0.5,0.6-1,0.8-1.5c0.2-0.5,0.7-0.9,0.6-1.6
		c-0.1-0.4,0.1-0.7,0.3-1c0.6-0.8,1.7-1.3,2-2.5c0.2-0.8,1.6-1.2,1.5-2.4c0.8-0.8,5.5-5.5,7.1-7.1c0.8-0.8,1.8-1,2.8-1.4
		c1.3,0.4,2.3-0.5,3.3-1c1-0.5,1.7-0.7,2.6,0.1c0.2,0.2,0.3,0.1,0.6,0c1.2-0.7,1.2-0.6,2.3-0.1c1.2,0.6,1.2,0.5,2.3,0
		c0.3-0.1,0.8-0.4,0.9-0.3c1.3,1.2,2.8,0.7,4.2,0.7c1.2,0,1.9,0.8,2.9,1c0.8,1.1,2.1,1.5,3.3,2c0.3,0.1,0.6,0.4,0.8,0.6
		c0.6,0.7,0.6,2.1,1.6,2.2c1,0.2,1.4,0.9,2.1,1.4c0.8,0.5,0.5,1.6,1.3,2.1c0.7,0.5,1.3,1.2,1.9,1.8c0.2,0.2,0.4,0.4,0.4,0.6
		c-0.3,1.9,1.9,3.1,1.5,5c1.1,1,1.1,2.1,0,3.1c-0.1,0.1,0,0.5,0,0.7c0,0.1,0.2,0.2,0.3,0.3c0.6,0.4,0.7,1.3,0.4,1.6
		c-0.9,1.2-0.8,2.5-0.7,3.8c0.2,1.5-1,2.6-0.9,4.1c-1,1.2-1.1,2.8-2.4,3.9c-1.1,0.9-1.9,2.2-3.4,2.6c0.3,1.5-1.4,0.9-1.8,1.8
		c-0.4,0.9-1.5,0.7-2,1.3c-0.6,0.7-1.5-0.1-2,0.5c-0.6,1-1.8,1.1-2.6,1.8c-0.3,0.3-0.8,0.9-1.1,0.9c-1.2-0.4-1.9,1.1-3.1,0.8
		c-0.8-0.2-1.8-0.2-2.6,0c-0.6,0.2-1.1,0.9-1.6-0.1c-0.7,0-3.7,0-4.5,0c-0.5-0.9-1.5-0.7-2.3-0.8c-0.7-1.1-1.8-0.5-2.7-0.7
		c-0.8-0.2-1.4-0.9-2.3-0.7c-0.5,0.1-1,0.1-1.3-0.4c-0.4-0.6-1.8-0.2-1.5-1.5c-1.5-0.4-2.3-1.7-3.4-2.6c-0.7-0.6-0.9-1.4-1.3-2.1
		c-0.5-0.8-0.7-1.8-1.6-2.3c-0.6-0.4-0.3-1.4-1.1-1.8c0.3-1.2-0.9-1.9-0.8-3c0.1-1-1-1.6-0.8-2.7C15.4,39.4,15.2,38.4,15.2,37.4z"/>
	<path style="fill:#FDE6B7;" d="M45.4,51c0.5-0.1,1.5,0,5-2.2c1.2-1.3,0.8-1.1,2.1-2.4c0.6-0.6,2.3-1.9,3.1-3.5c1.1-2.1,1.2-4.7,0.5-6.9
		c-0.3,0.3,0.4,3.9-1.2,5.9c-1.1,1.4-0.9,1.5-1.7,2.2s-2.4,3.1-3.3,3.4L45.4,51z"/>
	<path style="fill:#FDE6B7;" d="M21.9,39.1c-1.3-3.9,0.5-6.9,1.7-8.2c1.3-1.4,2.7-3.4,3.9-4.7c0.6-0.7,1.7-1.5,3-2.3c1.1-0.7,2.4-1.8,3.8-2.3
		c1.4-0.4,3.2-0.2,4.8-0.2c2,0,3.9,0.3,5.6,1.1c3,1.6,4.7,2,4.7,2.5s-0.9,0.2-2.2-0.5s-3.7-2.2-5.1-1.9s-2.8-0.1-4-0.1
		s-4.6,1-5.8,1.7c-1.2,0.7-3.5,3-4.4,3.4c-0.9,0.4-2.5,3.4-3.3,4.1c-0.8,0.7-0.7,1-1.7,2.4C21.5,36.1,22.2,38.9,21.9,39.1z"/>
</g>
</svg>
