<svg xmlns="http://www.w3.org/2000/svg" viewBox="0 0 66 63">
  <path fill="#f8ae19" d="M24.05,61.38C1.34,57.32-1.33,41.14,1.75,24.21C4.45,9.34,23.38-3.5,42.97,2.58S64.6,24.88,64.6,31.64 S61.9,68.14,24.05,61.38z"/>
  <path fill="#ce8e17" d="M62.63,43.46L48.24,28.25l-0.14,0.31c0,0,1.09,1.44,1.3,1.71c0.79,0.5,1.92,1.54,2.12,3.47 s1.62,3.36,2.53,4.67c2.6,3.75,1.64,6.68,0.77,8.22c-0.28,0.8-0.63,1.49-0.63,1.49l-1.71,1.5l-7.11-0.14c0,0-3.15-0.11-5.36,0.61 s-3.25-0.56-3.25-0.56s-7.07-0.41-9.47-0.48c-0.48,0.32-1.56,0.56-2.81-0.18c-0.86-0.01-1.74-0.02-2.53-0.03 c-1.85,1.02-2.85-0.03-2.85-0.03s-6.43-0.27-7.45-0.48c-0.37-0.07-0.85-0.42-1.31-0.83c0.23,0.37,0.51,0.73,0.85,1.07l13.77,12.95 C49.82,65.63,59.17,53.74,62.63,43.46z"/>
  <g>
    <g>
      <path fill="#ffffff" fill-rule="evenodd" clip-rule="evenodd" d="M18.42,46.18c-2.99,0.64-5.99,0.64-8.77-0.43c0.43,1.28,0.86,2.35,2.35,2.78c2.35,0.64,4.87,0.8,7.11,0.23 C19.54,47.91,19.49,46.61,18.42,46.18L18.42,46.18z"/>
    </g>
    <g>
      <path fill="#ffffff" fill-rule="evenodd" clip-rule="evenodd" d="M38.01,45.38c1.28-1.07,3.21-1.07,4.71-0.64c2.57,0.86,5.35,2.14,7.91,1.28c2.35-1.07,3.21-3.42,3.64-5.99 c0.21-1.07-0.21-2.14-0.64-3.21s-1.07-2.57-2.35-3.21c-2.14-1.07-4.49-0.64-6.84-0.86c-0.43-0.21-0.64-1.07-0.43-1.5 c1.5-1.07,3.64-1.5,5.56-0.86c-0.64-2.14-2.57-3.42-4.49-4.49c-2.78-1.28-6.2-1.07-8.98,0c-0.64-0.43-1.28-0.86-1.93-1.28 c-0.43-0.21-1.07-0.43-1.5-0.64c-1.5-0.43-3.21-0.43-4.71,0c-3.42,1.07-6.2,4.92-4.49,8.34c1.07,1.71,3.42,2.57,5.35,1.71 c0.43,0,0.86,0.21,1.07,0.86c0,0.43-0.21,0.86-0.43,1.28c-1.71,1.5-3.85,0.43-5.78-0.21c-0.64,1.93-2.35,2.78-4.28,2.99 c-0.64,0-1.5-0.64-1.5-1.5c0-0.43,0.21-0.86,0.64-1.07c0.86,0,1.93,0,2.57-0.43c0.43-0.43,0.64-1.28,0.43-1.93 c-0.64-1.71-1.5-3.64-0.86-5.56c-1.71-0.21-2.99,0.86-3.85,2.14c-0.86,1.5-0.64,2.99-0.43,4.49c-2.35,0.21-4.49,1.5-5.78,3.42 c-0.86,1.5-1.07,2.99-0.21,4.49c1.93,2.35,4.71,1.07,7.06,0.43c0.86,0,1.5-0.21,2.35,0.21c1.71,1.07,2.57,2.99,2.14,5.13 c-0.21,1.39,2.53,1.39,2.57,0c0.21-2.14-0.86-4.28-2.57-5.78c-0.43-0.43-0.43-1.07,0.21-1.71c0.43-0.21,0.86-0.43,1.28-0.21 c1.5,0.86,2.35,2.35,2.99,4.06c2.35-1.93,5.99-2.78,8.77-1.28c0.43,0.21,0.64,1.28,0,1.5c-1.5,0.43-2.99,0-4.49,0.43 c-1.5,0.21-3.64,1.28-3.42,3.21c0.28,1.93,9.45,2.44,9.41,0.43C36.08,47.94,37.15,46.45,38.01,45.38L38.01,45.38z M36.08,33.83 c0.86-1.07,0.86-2.57,0.21-3.64c-0.64-0.86-1.5-1.28-2.57-1.5c-1.71-0.21-3.42,0.43-3.64,2.35c-0.21,0.43-0.64,0.64-1.07,0.64 c-0.64,0-1.28-0.64-1.28-1.5c0.21-1.07,0.64-2.35,1.71-2.99c2.35-1.28,5.35-1.5,7.49,0.21c2.57,2.14,2.35,5.99,1.07,8.77 c-0.64,1.07-0.21,2.14,0.64,2.99c1.5,1.28,3.64,1.5,5.35,0.64c1.28-0.64,1.5-2.14,1.93-3.42c0.43-0.64,1.28-0.86,1.71-0.64 c1.93,1.71,0,4.49-1.71,5.78c-2.99,2.14-7.06,1.5-9.2-1.07C35.22,38.53,34.8,35.97,36.08,33.83L36.08,33.83z"/>
    </g>
    <g>
      <path fill="#ffffff" fill-rule="evenodd" clip-rule="evenodd" d="M45.47,50.49c2.45,0.23,5.63,0.64,8.2-0.86c0.86-0.43,1.07-1.93,1.07-2.99c-2.99,4.71-8.34,1.5-12.62,0.43 c-0.86-0.21-1.71,0.21-1.93,1.28c0,0.21-0.43,0.21-0.43,0.43c-0.21,0.43,0,1.28,0.21,1.28C41.04,50.48,43.02,50.26,45.47,50.49z" />
    </g>
  </g>
  <path fill="#ffffff" d="M31.04,5.44c-0.24-0.23-0.51-0.06-0.66,0.03c-0.02,0.01-0.05,0.03-0.07,0.04c-1.5,0.84-2.62,1.55-3.61,2.31 c-0.35,0.27-0.31,0.51-0.22,0.84C27,10.61,27.51,12.6,28,14.52l0.41,1.61c0.01,0.04,0.02,0.09,0.02,0.15 c0.02,0.17,0.05,0.46,0.36,0.52c0.13,0.03,0.25-0.01,0.36-0.1c0.05-0.04,0.09-0.09,0.13-0.13c0.03-0.04,0.07-0.07,0.11-0.11 c0.42-0.32,0.73-0.75,1.02-1.15c0.18-0.25,0.37-0.51,0.58-0.74c0.07,0.1,0.07,0.21,0.07,0.35c0,0.05,0,0.1,0.01,0.14 c0.18,1.84,0.55,3.69,0.88,5.31c0.01,0.03,0.01,0.07,0.01,0.1c0.01,0.15,0.05,0.5,0.41,0.49c0.11,0,0.2-0.03,0.27-0.09 c0.14-0.12,0.15-0.3,0.15-0.45c0-0.04,0-0.08,0.01-0.12c0.03-0.2,0.06-0.4,0.09-0.6c0.12-0.76,0.24-1.54,0.33-2.32 c0.11-0.97,0.28-1.95,0.44-2.91c0.23-1.36,0.46-2.76,0.55-4.17c0-0.03,0-0.06,0.01-0.09c0.02-0.21,0.04-0.51-0.23-0.67 c-0.24-0.14-0.43,0.02-0.49,0.07c-0.02,0.02-0.05,0.04-0.07,0.06c-0.04,0.03-0.07,0.06-0.11,0.09c-0.35,0.21-0.67,0.46-0.98,0.7 c-0.39,0.3-0.8,0.62-1.24,0.85c-0.28,0.15-0.34,0.12-0.34,0.11c0,0-0.05-0.04-0.07-0.35c-0.05-1.49-0.04-3.24,0.38-4.93 c0.01-0.03,0.02-0.07,0.03-0.1C31.17,5.89,31.25,5.63,31.04,5.44z"/>
  <path fill="#ffffff" d="M53.41,14.58c0.08-0.3-0.17-0.44-0.31-0.52c-0.02-0.01-0.04-0.03-0.06-0.04c-1.33-0.84-2.39-1.42-3.42-1.89 c-0.36-0.16-0.54-0.03-0.77,0.19c-1.34,1.28-2.72,2.56-4.05,3.79l-1.11,1.03c-0.03,0.03-0.07,0.05-0.11,0.08 c-0.13,0.09-0.35,0.24-0.26,0.52c0.03,0.11,0.11,0.2,0.24,0.24c0.05,0.02,0.11,0.04,0.16,0.05c0.05,0.01,0.09,0.02,0.14,0.04 c0.44,0.2,0.91,0.26,1.37,0.31c0.28,0.04,0.57,0.07,0.85,0.14c-0.05,0.1-0.14,0.15-0.25,0.21c-0.04,0.02-0.08,0.05-0.11,0.07 c-1.4,0.95-2.72,2.06-3.88,3.04c-0.02,0.02-0.05,0.04-0.08,0.06c-0.11,0.08-0.38,0.26-0.21,0.54c0.05,0.09,0.11,0.14,0.19,0.17 c0.16,0.06,0.3-0.01,0.42-0.08c0.04-0.02,0.07-0.04,0.1-0.05c0.17-0.06,0.35-0.12,0.52-0.19c0.66-0.24,1.35-0.48,2.01-0.75 c0.83-0.34,1.69-0.64,2.52-0.92c1.19-0.41,2.42-0.84,3.59-1.39c0.02-0.01,0.05-0.02,0.07-0.03c0.18-0.08,0.43-0.19,0.44-0.48 c0.01-0.25-0.2-0.34-0.27-0.37c-0.03-0.01-0.05-0.02-0.08-0.03c-0.04-0.01-0.08-0.03-0.12-0.05c-0.32-0.19-0.66-0.33-0.99-0.48 c-0.41-0.18-0.84-0.37-1.22-0.63c-0.24-0.16-0.24-0.22-0.24-0.22s0-0.06,0.25-0.21c1.17-0.69,2.58-1.45,4.12-1.85 c0.03-0.01,0.06-0.01,0.09-0.02C53.1,14.88,53.34,14.83,53.41,14.58z"/>
  <path fill="#ffffff" d="M11.61,13.71c-0.3-0.06-0.44,0.2-0.51,0.34c-0.01,0.02-0.02,0.05-0.04,0.07c-0.79,1.39-1.33,2.48-1.75,3.55 c-0.15,0.38,0,0.55,0.23,0.77c1.35,1.29,2.7,2.63,4.01,3.92l1.09,1.08c0.03,0.03,0.06,0.07,0.09,0.1c0.1,0.13,0.26,0.34,0.54,0.24 c0.11-0.04,0.19-0.12,0.24-0.25c0.02-0.06,0.03-0.11,0.04-0.17c0.01-0.05,0.02-0.09,0.03-0.14c0.18-0.46,0.22-0.94,0.25-1.4 c0.02-0.29,0.05-0.58,0.1-0.86c0.1,0.05,0.16,0.14,0.22,0.24c0.02,0.04,0.05,0.08,0.08,0.11c1.02,1.37,2.2,2.65,3.25,3.78 c0.02,0.02,0.04,0.05,0.06,0.08c0.08,0.11,0.28,0.37,0.56,0.19c0.08-0.05,0.14-0.12,0.17-0.2c0.05-0.16-0.03-0.31-0.1-0.42 c-0.02-0.03-0.04-0.07-0.05-0.1c-0.07-0.17-0.14-0.34-0.21-0.52c-0.27-0.66-0.55-1.34-0.85-2c-0.38-0.82-0.72-1.68-1.05-2.51 c-0.47-1.18-0.96-2.41-1.56-3.56c-0.01-0.02-0.02-0.05-0.04-0.07c-0.09-0.18-0.21-0.42-0.5-0.42c-0.26,0-0.33,0.22-0.36,0.29 c-0.01,0.03-0.02,0.05-0.03,0.08c-0.01,0.04-0.02,0.08-0.04,0.12c-0.17,0.33-0.31,0.68-0.44,1.02c-0.17,0.43-0.34,0.87-0.58,1.27 c-0.15,0.25-0.21,0.25-0.22,0.25c0,0-0.06,0-0.22-0.25c-0.75-1.16-1.58-2.54-2.06-4.09c-0.01-0.03-0.02-0.06-0.02-0.09 C11.92,14.01,11.86,13.77,11.61,13.71z"/>
</svg>
