<?xml version="1.0" encoding="utf-8"?>
<!-- Generator: Adobe Illustrator 24.0.2, SVG Export Plug-In . SVG Version: 6.00 Build 0)  -->
<svg version="1.1" id="Calque_1" xmlns="http://www.w3.org/2000/svg" xmlns:xlink="http://www.w3.org/1999/xlink" x="0px" y="0px"
	 viewBox="0 0 17.15 17.27" style="enable-background:new 0 0 17.15 17.27;" xml:space="preserve">
<style type="text/css">
	.st0{fill:#FFFFFF;}
</style>
<g>
	<circle cx="8.49" cy="8.61" r="7.56"/>
	<path class="st0" d="M9.91,8.61l3.22-3.22c0.39-0.39,0.39-1.02,0-1.41s-1.02-0.39-1.41,0L8.49,7.2L5.27,3.97
		c-0.39-0.39-1.02-0.39-1.41,0S3.46,5,3.85,5.39l3.22,3.22l-3.22,3.22c-0.39,0.39-0.39,1.02,0,1.41c0.2,0.2,0.45,0.29,0.71,0.29
		s0.51-0.1,0.71-0.29l3.22-3.22l3.22,3.22c0.2,0.2,0.45,0.29,0.71,0.29s0.51-0.1,0.71-0.29c0.39-0.39,0.39-1.02,0-1.41L9.91,8.61z"
		/>
</g>
</svg>
