<?xml version="1.0" encoding="utf-8"?>
<!-- Generator: Adobe Illustrator 25.0.0, SVG Export Plug-In . SVG Version: 6.00 Build 0)  -->
<svg version="1.1" id="infographics" xmlns="http://www.w3.org/2000/svg" xmlns:xlink="http://www.w3.org/1999/xlink" x="0px"
	 y="0px" viewBox="0 0 16.7 68.7" style="enable-background:new 0 0 16.7 68.7;" xml:space="preserve">
<style type="text/css">
	.st0{fill:#8B7783;}
	.st1{fill:#D6C5D0;}
	.st2{opacity:0.49;fill:#51454D;}
	.st3{opacity:0.42;fill:#D6C5D0;}
</style>
<g>
	<path class="st0" d="M0.9,11.1C0.3,19,3.5,19.9,5.5,22.6S3.4,54.4,4.2,62.1c0.8,7.7,7.1,5.1,7,1c-0.1-4.1-2.8-38.9-0.8-40.8
		s4.5-2.4,5.2-8.9S14.3,1.1,8.9,0.9C5.3,0.8,1.6,3.1,0.9,11.1z"/>
	<path class="st1" d="M7.4,30.8c0-2.1,0.1-4.3,0.1-4.9c0-0.5-0.7-0.4-0.7,0.3s0,2.4-0.2,4.5c-0.2,2.4-1.2,27.7-1.2,30.1
		c0,2.2,1.3,2.2,1.3-0.1C6.8,58.4,7.4,33.1,7.4,30.8z"/>
	<path class="st1" d="M4,13.3c0-0.2,0-0.4-0.1-0.6c-0.1-0.3-0.1-0.7-0.1-1c0-0.1-0.1-0.2-0.2-0.1c-0.4,0.3-0.4,0.7-0.4,1.2
		c0,0.3,0,0.5,0.1,0.8c0.1,0.3,0.2,0.4,0.4,0.5c0.1,0,0.2,0,0.3-0.2C3.9,13.6,4,13.4,4,13.3z"/>
</g>
<path class="st2" d="M12.7,15.1c0.1,1.4-1.6,5.2-5.4,4.5c-3.8-0.7-3.6-4.4-3.6-4.9s0.8,1.5,1.8,2c0.9,0.4,2.6,0.8,3.9-0.9
	S12.6,13.4,12.7,15.1z"/>
<path class="st3" d="M4,8.4C4.4,7.6,5,6.6,5.7,6C7,4.8,8.6,4.4,10.2,5c1.2,0.4,1.7,0.8,2.4,2c0.2,0.2,0.2,0.2,0.2,0.1
	c0-0.5-0.5-3.6-4.3-3.6c-3.9,0-5,3.5-4.6,4.9C3.9,8.4,4,8.4,4,8.4z"/>
</svg>
